<svg xmlns="http://www.w3.org/2000/svg" viewBox="0 0 356.392 140"><path d="M64.793 105.931a.844.844 0 0 0 .233-.775 4.7 4.7 0 0 1-.078-.776c.207 0 .336-.022.387-.076a.318.318 0 0 1 .233-.08c-.209-.307-.233-.44-.078-.387s.233-.076.233-.389c-.209.1-.311.1-.311 0s-.1-.2-.309-.311a.737.737 0 0 0 .231-.7c-.051-.256.18-.387.7-.387a.275.275 0 0 1-.309-.313c-.415.415-.6.34-.542-.231a1.9 1.9 0 0 1 .387-1.163.2.2 0 0 1 0-.313c0-.1-.156-.151-.465-.151a2.314 2.314 0 0 1 .153-.856.6.6 0 0 0-.153-.7c.2 0 .282-.1.231-.311s.078-.256.389-.155c-.209.1-.286.231-.233.387a.693.693 0 0 0 .389.389 1.77 1.77 0 0 0-.311 1.007 3.157 3.157 0 0 0 .156 1.011 1.966 1.966 0 0 0 .309-1.862 4.549 4.549 0 0 1-.154-2.014.441.441 0 0 0-.156.307c0 .1-.1.1-.311 0-.1-.205-.053-.307.156-.307s.207-.1 0-.313a.343.343 0 0 1 .233.076c.049.057.178.029.387-.076v-1.863c-.209.1-.287.208-.231.311s-.029.209-.233.309a.593.593 0 0 1-.156-.7c.1-.256.207-.491.311-.7.1 0 .154.1.154.311a1.053 1.053 0 0 0 .311-.773 1.7 1.7 0 0 1 .156-.776q-.623-.157-.467.155a.3.3 0 0 1-.154.463h-.467a4.475 4.475 0 0 0 .467-2.559 3.232 3.232 0 0 1 .465-2.249.762.762 0 0 1-.233-.931 2.772 2.772 0 0 0 .233-1.24c-.1-.207-.287-.256-.542-.155s-.389.051-.389-.156a1.938 1.938 0 0 1-.851.467 1.941 1.941 0 0 0-.853.464.572.572 0 0 1 .465.545c0 .26-.209.438-.62.542.2.309.233.516.076.62s-.131.365.08.776c-.311.1-.467.051-.467-.155a.5.5 0 0 0-.309-.465 1.341 1.341 0 0 0 .078-1.163c-.156-.364.022-.649.542-.855a.67.67 0 0 0-.854 0 4.1 4.1 0 0 1-.7.467v-.312q-.467.623-1.94.545c-.982-.053-1.576.131-1.783.542a71.847 71.847 0 0 0-10.084 2.016 4.44 4.44 0 0 0-3.256.856 2.612 2.612 0 0 1-2.792.387 4.429 4.429 0 0 1-2.483.62 3.167 3.167 0 0 0-2.327.776c-.413.1-.62 0-.62-.313a2.03 2.03 0 0 1-2.016.931 3.035 3.035 0 0 0-2.172.62 2.11 2.11 0 0 0-.465 1.087 4.9 4.9 0 0 1-.622 1.552 58.471 58.471 0 0 0-4.808 9.151 68.954 68.954 0 0 1-4.654 9.155 15.008 15.008 0 0 0-1.24 2.4 4.341 4.341 0 0 1-1.551 1.94 14.1 14.1 0 0 1-2.094 3.877 26.878 26.878 0 0 0-2.4 3.724 11.154 11.154 0 0 0-2.016 2.716 14.242 14.242 0 0 1-1.862 2.714c-.309.1-.827.256-1.551.462a15.631 15.631 0 0 1-2.249.469 5.631 5.631 0 0 1-2.094-.08c-.62-.151-.931-.491-.931-1.007a2.287 2.287 0 0 1-1.4-.465 5.885 5.885 0 0 1-2.4-2.174q-.7-1.243 1.163-3.1 1.86-2.637 3.723-5.041t3.567-5.04q.93.313.931-.311a.733.733 0 0 1 .62-.776 1.284 1.284 0 0 1 .156-1.4 3.72 3.72 0 0 1 1.24-.776 15.551 15.551 0 0 1 1.938-3.8 15.355 15.355 0 0 0 1.94-3.8c.207 0 .282-.08.233-.232s.025-.13.231.076q1.24-2.014 2.249-3.956a40.6 40.6 0 0 1 2.249-3.8 2.458 2.458 0 0 0-1.24 0c-.518.1-.829.26-.931.464-.518.1-1.138.231-1.86.387a18.564 18.564 0 0 0-2.018.545v-.311l-.309.155.156.156h.154a.438.438 0 0 0-.309.155c.1.209.051.336-.156.389s-.309-.024-.309-.233l-1.242.309c.207.311-.027.542-.7.7a7.428 7.428 0 0 0-1.629.544.634.634 0 0 0-.154-.467h.309c.1-.2 0-.309-.309-.309s-.364.1-.156.309a3.468 3.468 0 0 0-.7.08c-.26.051-.389-.024-.389-.237a1.858 1.858 0 0 1-1.162.389 15.887 15.887 0 0 0-1.629.235 3.35 3.35 0 0 1-1.7-2.173 6.316 6.316 0 0 1-.158-3.1A4.951 4.951 0 0 1 5.156 93.2a7.752 7.752 0 0 1 3.18-1.707q2.014-.774 4.265-1.47t4.576-1.32c.1.1 0 .209-.311.309a5.822 5.822 0 0 0-.776.311 24.434 24.434 0 0 0 4.265-.468 9.036 9.036 0 0 0 4.112-1.7 2.117 2.117 0 0 1 .542.388c.156.152.438.127.853-.079a54.032 54.032 0 0 0 4.11-7.137 35.205 35.205 0 0 1 4.421-6.979c.207-.515.411-1.058.622-1.627a3.538 3.538 0 0 1 .774-1.318c.1-.209.051-.255-.154-.156s-.311.051-.311-.157a1.5 1.5 0 0 1 .62-.774 1.721 1.721 0 0 0 .62-.62c0-.209-.027-.255-.078-.156a.253.253 0 0 1-.231.156.248.248 0 0 1 .156-.233c.1-.051.1-.178 0-.387a.832.832 0 0 0 .929-.625q-.156-.3-.233 0c-.051.213-.18.26-.387.157a17.85 17.85 0 0 0 1.087-2.247 6.186 6.186 0 0 1 1.4-2.1 5.3 5.3 0 0 0-.776 1.551 1.852 1.852 0 0 0 1.085-1.394 1.488 1.488 0 0 1 .931-1.244c-.1-.2-.231-.307-.389-.307s-.231-.1-.231-.313c.311 0 .44-.1.389-.311a.369.369 0 0 1 .231-.462c.311-.1.389-.078.233.076s-.182.287-.078.387a13.879 13.879 0 0 1 1.785-2.634 2.977 2.977 0 0 0 .851-2.638c0-.209.078-.311.233-.311s.18-.1.078-.309c.207 0 .284.053.233.156s.023.153.231.153a5.583 5.583 0 0 1 .7-.851 1.222 1.222 0 0 0 .233-1.164q2.637-4.028 5.2-8.142t4.576-8.148c-.209-.2-.156-.307.156-.307a.436.436 0 0 0-.156.307q.93-.151.465-.62c-.309-.307-.364-.567-.156-.774.311-.1.467 0 .467.312a6.872 6.872 0 0 1 1.007-1.321 2.2 2.2 0 0 0 .544-1.627.7.7 0 0 0 .929-.622 1.419 1.419 0 0 1 .931-1.085.739.739 0 0 1 .465-1.087.738.738 0 0 0 .467-1.087c0-.2-.078-.231-.233-.075s-.233.131-.233-.076a2.1 2.1 0 0 0 .467-.7 1.6 1.6 0 0 1 .62-.7.7.7 0 0 0-.078.544c.051.155-.027.287-.233.387.207 0 .362-.156.467-.463a1.473 1.473 0 0 1 .62-.776q-.313-.313-.387 0a.368.368 0 0 1-.389.307c0-.621.207-.979.62-1.083 0 .307-.053.463-.156.463.518.1.8-.155.853-.774a1.392 1.392 0 0 1 .7-1.24.892.892 0 0 0-.62.156l.931-1.862q.464-.157.233.076c-.156.156-.131.289.076.389a.647.647 0 0 1 .467-.157c0-.1-.1-.151-.311-.151-.1 0-.053-.1.156-.311h-.318a6.847 6.847 0 0 1 1.165-2.4 5.254 5.254 0 0 0 1.007-2.562 9.372 9.372 0 0 0 2.329-3.49 8.812 8.812 0 0 1 2.171-3.334c-.622-.207-.52-.411.309-.62a2.323 2.323 0 0 1-.309-.931c.411 0 .565-.155.465-.466.311.108.489.108.542 0a3 3 0 0 0 .156-.389 1.252 1.252 0 0 1 .309-.463.95.95 0 0 1 .7-.231c.1.207 0 .336-.311.387s-.415.232-.311.545c.1.207.18.26.233.152a.248.248 0 0 1 .231-.152.85.85 0 0 0 .311-.545c0-.155.1-.284.311-.387a.522.522 0 0 1 .465.231c.1.155.36.184.776.076.207.311.156.5-.156.544s-.362.287-.153.7c.1.209.309.26.618.158a2.537 2.537 0 0 1 .778-.158l-.311-1.707a2.942 2.942 0 0 1 .7-.231 1.353 1.353 0 0 0 .7-.387c.207.307.467.336.776.076s.518-.233.62.08a19.722 19.722 0 0 1 7.833.776q3.027 1.083 2.716 2.789a12.049 12.049 0 0 1-.776 6.439 38.5 38.5 0 0 0-2.016 5.968 2.184 2.184 0 0 1-.156 1.864 1.877 1.877 0 0 0-.156 1.707 4.03 4.03 0 0 0-.542 1.783 28.96 28.96 0 0 0-.078 2.249.951.951 0 0 0-.62.852v1.32h.156a4.443 4.443 0 0 0-.467 2.018h.311v.309h-.311c-.1.831-.182 1.654-.233 2.481a3.02 3.02 0 0 1-.851 2.02.892.892 0 0 1 .078.62c-.053.207.078.258.387.156a.684.684 0 0 0-.387.387c-.053.152-.233.231-.544.231a6.459 6.459 0 0 1-.309 3.41 5.5 5.5 0 0 0-.156 3.414.36.36 0 0 0-.389.233.359.359 0 0 1-.387.235c.414.1.544.335.387.7s-.131.491.078.386a8.531 8.531 0 0 0-.387 3.1 3.089 3.089 0 0 1-1.009 2.638 7.057 7.057 0 0 1-.62 3.49 4.555 4.555 0 0 0-.156 3.49 23.343 23.343 0 0 1-.929 6.052 22.6 22.6 0 0 0-.776 6.979c.1 0 .62-.051 1.551-.156s1.963-.207 3.1-.311c.722-.1 1.033.311.931 1.242s-.209 2.118-.309 3.565a1.975 1.975 0 0 1-.931.469c-.416.1-.569.411-.467.927a3.691 3.691 0 0 0-1.7.624 3.119 3.119 0 0 1-1.862.462q-2.174.313-2.249 1.552a10.433 10.433 0 0 0 .389 3.1c-.311.311-.465.416-.465.311.2.1.231.231.076.387s-.026.338.389.544c-.209.411-.465.62-.776.62a12.348 12.348 0 0 1 .156 3.334c-.1 1.087-.233 2.17-.389 3.259s-.287 2.2-.389 3.331a9.58 9.58 0 0 0 .311 3.414 16.852 16.852 0 0 0-1.007 4.5 28.211 28.211 0 0 0-.078 4.656c0 .209-.027.231-.078.075s-.182-.126-.387.076v.469a2.018 2.018 0 0 1 .62 1.938 4.557 4.557 0 0 1-.467 1.783l.931 10.706c-.1 0-.156-.029-.156-.08s-.1-.078-.309-.078a11.4 11.4 0 0 1 .7 1.32 13.294 13.294 0 0 1 .542 1.783c-.209 0-.287-.1-.233-.311s-.078-.209-.389 0c-.207.1-.231.282-.076.542a.7.7 0 0 1 .076.7c.311 0 .413-.1.311-.311s-.1-.364 0-.464a.249.249 0 0 1 .233.151c.051.1.18.1.389 0q0 1.4.929.933a.984.984 0 0 0 0 .773 1.421 1.421 0 0 1 0 .934.5.5 0 0 1 .467.311q.153.307.62.155a3.222 3.222 0 0 0 .156.852c.1.36 0 .544-.311.544a.536.536 0 0 0 .387.155.522.522 0 0 1 .389.152c.207 0 .231-.076.078-.231a.431.431 0 0 1-.078-.545 1.942 1.942 0 0 1 .311 2.1 2.6 2.6 0 0 0-.156 1.938 1.856 1.856 0 0 1 .465.311c.1.1.256.1.465 0 .1.309-.078.489-.542.545s-.542.231-.231.542a8.6 8.6 0 0 1-4.965.078 19.706 19.706 0 0 1-4.188-1.783c-.1.1-.131.178-.078.231s-.027.076-.233.076a2.487 2.487 0 0 1-1.4-1.083 2.532 2.532 0 0 0-1.24-1.089l.776-.931q-.313-.31-.467 0a.5.5 0 0 1-.465.313.519.519 0 0 0 0-.545c-.1-.155 0-.231.311-.231a.6.6 0 0 0-.7-.156c-.26.1-.389 0-.389-.313.411-.207.62-.1.62.313a.259.259 0 0 0 .078-.313q-.08-.156.233-.307a.386.386 0 0 1 0-.62.511.511 0 0 0-.389-.155c-.153 0-.231-.1-.231-.311-.1.1-.131.178-.078.231s-.027.08-.233.08a1 1 0 0 0 .389.232c.153.053.178.18.076.389-.309 0-.465.051-.465.156a.5.5 0 0 0-.311-.469.62.62 0 0 1-.309-.618c.516 0 .776-.158.776-.464-.209-.209-.338-.184-.387.075s-.182.336-.389.231q0-.617.776-.618c.1-.209.025-.285-.233-.233s-.336-.027-.233-.232c-.1 0-.131.049-.076.152s-.027.155-.233.155c-.209-.206-.287-.362-.233-.462a1.1 1.1 0 0 0 .078-.469c-.1 0-.156.158-.156.469-.1 0-.153-.209-.153-.62a2.769 2.769 0 0 0 .774-.311 7.107 7.107 0 0 0-.309-1.32c-.1-.26-.26-.647-.465-1.163-.311-.1-.493-.076-.544.08a.362.362 0 0 1-.387.231q-.313-.623.078-.467a.606.606 0 0 0 .7-.151c0-.213-.055-.34-.156-.389s-.1-.184 0-.386a.309.309 0 0 0-.233.075.321.321 0 0 1-.231.076l.154.156a1.3 1.3 0 0 1-.542-.62 7.081 7.081 0 0 1-.387-.931c.2-.1.309.053.309.469.1-.313.233-.495.389-.544s.438-.184.853-.387a.906.906 0 0 0 .387 1.082.918.918 0 0 1 .387 1.087.323.323 0 0 1-.231-.076.309.309 0 0 0-.233-.08 1.969 1.969 0 0 1 .7 1.783q-.08 1.163.7 1.475a1.6 1.6 0 0 0 0 1.007.757.757 0 0 0 .776.7c-.209.311-.231.462-.078.462s.078.1-.231.313a.634.634 0 0 0 .465.156 1.2 1.2 0 0 1 .078.7 1.174 1.174 0 0 0 .078.7h.153a.885.885 0 0 1 .311.619c0 .208.207.256.622.155a1.421 1.421 0 0 1 .154.62c0 .209.156.256.465.155a2.356 2.356 0 0 1-.618-2.325c-.106-.209-.233-.26-.389-.158s-.233.1-.233 0a50.776 50.776 0 0 0-1.318-8.453 24.924 24.924 0 0 1-.7-7.988q.617 0 .465-.618c-.209.1-.258.232-.156.387s0 .181-.309.076c-.1-.52-.182-.982-.233-1.4a2.11 2.11 0 0 1 .233-1.242c.1 0 .156.024.156.08s.051.076.153.076a.252.252 0 0 0 .078-.307c-.051-.1.025-.213.233-.313 0-.1-.053-.131-.156-.075s-.156.024-.156-.08c-.207 0-.284.1-.231.313s-.078.256-.389.156a25.377 25.377 0 0 0 .078-3.414 19.728 19.728 0 0 1 .078-3.1c.516-.206.749-.515.7-.931a3.292 3.292 0 0 1 .078-1.238c-.209 0-.311.075-.311.231s-.1.231-.309.231c.207-.1.309.053.309.465s-.1.571-.309.467a.964.964 0 0 0-.156-.543c-.1-.155-.053-.285.156-.389zm-51.187-15.51a.412.412 0 0 0 .465-.467.532.532 0 0 1-.387.156c-.155.001-.18.105-.075.312zm1.085-.311a.375.375 0 0 1 .465-.233.87.87 0 0 0 .622-.08c0-.307-.26-.387-.776-.231s-.62.336-.309.545zm4.188 14.583a1.354 1.354 0 0 1 .233-.545c.156-.26.129-.284-.078-.08a2.433 2.433 0 0 0-.309.389c-.102.157-.051.237.156.237zm.156-.931q.62 0 .62-.469a1.052 1.052 0 0 1 .311-.776c-.415.1-.62.208-.62.313a4.355 4.355 0 0 1-.31.932zm1.087-1.4a4.959 4.959 0 0 0 2.558-2.714 20.626 20.626 0 0 1 1.474-3.334l-.931.155c.207.415.1.52-.309.313-.1-.1-.1-.157 0-.157a.138.138 0 0 0 .156-.156 1.723 1.723 0 0 0-1.318 1.32 7.492 7.492 0 0 1-.544 1.628c0-.2-.1-.256-.309-.158a5.819 5.819 0 0 1-.156 1.4 1.388 1.388 0 0 1-.931.927c.1.213.129.364.078.469s.024.207.233.307zm.153.776c-.1-.2-.053-.332.156-.387s.258-.176.156-.389a.633.633 0 0 0-.465.156c.001.415.052.62.155.62zm.622-1.858v.155a.452.452 0 0 0-.311.152v-.307zm1.549-14.116c0 .411-.258.62-.776.62-.1-.209-.051-.336.156-.387a3.085 3.085 0 0 0 .622-.233zm-.465 12.253c-.209-.1-.26-.234-.156-.389s.258-.18.467-.076c-.206.209-.308.365-.308.465zm-.156-1.085v-.156a.442.442 0 0 1 .311-.156v.311zm2.171-11.169c-.309-.1-.258-.156.156-.156s.516-.1.311-.311h.311c.1.206.049.311-.158.311a1.392 1.392 0 0 0-.616.157zm3.1 10.857a1.507 1.507 0 0 1 .465-1.476 2.415 2.415 0 0 0 .778-1.47 2.267 2.267 0 0 1-.467.387 3.083 3.083 0 0 1-.929.076 6.706 6.706 0 0 1-.853 1.707 6.505 6.505 0 0 0-.854 1.707c.311 0 .438-.126.387-.387a.443.443 0 0 1 .233-.544c.2.209.309.209.309 0s.156-.256.467-.155v.155c-.311 0-.364.156-.156.465.207 0 .285-.1.233-.309s.084-.259.393-.155zm-.62-.776c0-.1.1-.155.309-.155v.311c-.201.001-.303-.05-.303-.154zm38.469-72.749a2.391 2.391 0 0 0-.931 1.4.371.371 0 0 0 .389-.313q.074-.3.387 0a.5.5 0 0 0-.311.469.31.31 0 0 1-.62 0c0-.209-.1-.26-.309-.156a.538.538 0 0 1-.233.7c-.258.151-.336.335-.233.538 0 .213.078.26.233.155s.233-.051.233.158c0 .311-.209.567-.62.776.309-.313.154-.465-.467-.465a2.676 2.676 0 0 1-.076.62.845.845 0 0 0 .076.618c-.207 0-.286.028-.231.078s.025.131-.078.236c0-.313-.209-.364-.62-.156a.805.805 0 0 0 0 .694.61.61 0 0 1-.156.7c-.209 0-.287-.023-.233-.076s.024-.126-.078-.235a1.219 1.219 0 0 1-.62.856c-.311.155-.413.491-.311 1.007a.317.317 0 0 0-.231.08.315.315 0 0 1-.233.076 4.375 4.375 0 0 1-.542 1.241c-.26.415-.542.831-.853 1.242a7.99 7.99 0 0 0-.776 1.24 1.4 1.4 0 0 0-.156 1.087 1 1 0 0 0-.929.542 10.363 10.363 0 0 0-.544 1.085 4.13 4.13 0 0 1-.62 1.011 1.26 1.26 0 0 1-1.009.463 27.031 27.031 0 0 1-3.49 6.747q-2.25 3.178-4.11 6.437a.354.354 0 0 0 .231.387c.156.057.18.185.078.389a.657.657 0 0 0-.309.08 1.1 1.1 0 0 1-.465.076 2.266 2.266 0 0 1-.544 1.551 4.8 4.8 0 0 0-.853 1.394c.516-.2.722-.152.62.158a1.046 1.046 0 0 0-.464.08 1.1 1.1 0 0 1-.465.076 1.622 1.622 0 0 1-.544 1.162q-.543.546-.231.852-.467.467-.931 1.011a1.2 1.2 0 0 0-.156 1.32 2.649 2.649 0 0 0-1.474 1.238 2.709 2.709 0 0 0-.387 1.862c-.52.1-.776.336-.776.7s-.26.649-.776.856c0 .209.156.309.465.309-.518.831-1.034 1.653-1.551 2.482a6.069 6.069 0 0 0-.929 2.325 2.543 2.543 0 0 0-1.242 1.087 1.845 1.845 0 0 0-.309 1.4.467.467 0 0 1 .154-.311c.1.311-.154.467-.774.467a4.369 4.369 0 0 1-.853 1.706c-.465.62-.544 1.036-.233 1.24-.209.1-.26.207-.156.311s.051.209-.156.307a.306.306 0 0 1-.231-.076.323.323 0 0 0-.233-.076.435.435 0 0 1-.309.62c-.311.1-.311.307 0 .62-.1-.1-.311-.1-.622 0-.1.207-.053.335.156.387s.207.133 0 .231c-.309-.307-.44-.178-.387.389s-.131.856-.544.856c0 .207.051.335.156.387s.051.18-.156.389c0-.209-.154-.313-.465-.313-.1.313-.078.52.078.62a1.159 1.159 0 0 1 .387.469c-.209.1-.309.076-.309-.08s-.156-.181-.467-.076c-.209.311-.465.671-.774 1.087s-.26.723.154.927c-.209 0-.311-.024-.311-.075s-.1-.025-.309.075c.207.211.18.34-.078.387s-.338.185-.231.389c0 .21.127.235.387.079s.389-.129.389.076l-.311.467a.412.412 0 0 0-.465-.467 4.092 4.092 0 0 1-.389.62 2.7 2.7 0 0 0-.387.775l.776-.308a.271.271 0 0 0 .309.308.523.523 0 0 0 .467-.233 1.137 1.137 0 0 1 .465-.387 5.946 5.946 0 0 1 1.551-3.334 3.336 3.336 0 0 0 1.085-2.87 1.957 1.957 0 0 0 1.4-1.627 1.96 1.96 0 0 1 1.4-1.631.273.273 0 0 0-.309-.309c-.209 0-.26-.156-.156-.467.722 0 1.109-.2 1.162-.62s.336-.671.853-.775a12.712 12.712 0 0 0 1.009-2.25 4.2 4.2 0 0 1 1.318-1.94 885.242 885.242 0 0 0 1.474-3.256 8.344 8.344 0 0 1 2.094-2.792 4.851 4.851 0 0 1 1.551-2.945 4.2 4.2 0 0 1 1.707-2.951q2.634-4.495 5.041-9.149a73.571 73.571 0 0 1 5.508-9 1.664 1.664 0 0 1 .465-1.239c.311-.313.62-.624.931-.932a2.934 2.934 0 0 1 1.4-2.327 2.706 2.706 0 0 0 1.24-2.483c.207.1.311.1.311 0s.1-.156.309-.156q1.084-2.171 2.1-4.265a13.733 13.733 0 0 1 2.714-3.8 3.674 3.674 0 0 1 1.007-2.716 4.869 4.869 0 0 0 1.32-2.558.575.575 0 0 0-.622.075c-.207.158-.362.133-.465-.075a.273.273 0 0 0 .311-.311c-.52.213-.7.469-.544.776a2.406 2.406 0 0 1 .233 1.087 1 1 0 0 0-.62.464c-.1.211-.415.311-.931.311a.749.749 0 0 1-.231.544 2.052 2.052 0 0 0-.389.543c-.1.209-.053.309.156.309s.2.055 0 .156a.137.137 0 0 0-.156.155c0 .1-.1.1-.311 0v.775a.441.441 0 0 1-.309.156c.207-.1.336-.025.387.231s-.027.338-.231.233a.639.639 0 0 0-.171-.475zM29.114 85.764v.156h-.311v-.156zm1.4-1.859c.2.207.178.283-.078.232s-.286.026-.078.231c-.209 0-.286-.076-.233-.231a.356.356 0 0 1 .391-.23zm.153 5.739v-.311h-.309v.311zm.311-.466a.464.464 0 0 1 .465-.075c.207.051.311-.025.311-.237a.45.45 0 0 1-.465.08c-.206-.052-.308.029-.308.234zm.62-1.552c.722 0 1.087-.155 1.087-.464-.724.002-1.084.155-1.084.466zm1.087-1.862a2.789 2.789 0 0 1 .851-.154 2.4 2.4 0 0 0 1.009-.311 21.68 21.68 0 0 1 2.792-4.885 14.837 14.837 0 0 0 2.483-5.039q.93-1.243 1.785-2.407a5.633 5.633 0 0 0 1.007-2.871 29.109 29.109 0 0 0 5.274-9.149 1.76 1.76 0 0 0 1.242-1.787 1.756 1.756 0 0 1 1.238-1.783 9.149 9.149 0 0 1 1.94-3.647 7.781 7.781 0 0 0 1.785-3.645 60.247 60.247 0 0 0 4.5-6.823q2.014-3.567 3.876-7.134a10.634 10.634 0 0 0 2.1-3.1 363.877 363.877 0 0 0 1.472-3.259 5.975 5.975 0 0 0 1.862-2.249c.411-.876.827-1.731 1.24-2.558-.209.1-.309.1-.309 0a.446.446 0 0 1 .153-.309c-.207 0-.309-.051-.309-.155q-9.772 15.047-18.614 30.325T32.688 85.766zm30.868-2.016a.617.617 0 0 1 .076-.387c.051-.053.027-.181-.076-.389a2.31 2.31 0 0 0-.7.233 4.977 4.977 0 0 0-.389.543c.1-.311.078-.491-.076-.543a1.509 1.509 0 0 0-.7 0l-.929.156c-.311.051-.52.029-.622-.076a17.556 17.556 0 0 1-5.041 1.163 14.794 14.794 0 0 0-5.041 1.316q-2.947.467-6.981 1.162a60.04 60.04 0 0 1-6.979.856l-.776 1.707q7.288-1.4 14.658-2.714t13.578-3.025zm-.931-2.794c-.311 0-.465-.1-.465-.307-.52.207-.831.282-.931.231s-.26.029-.465.231a7.491 7.491 0 0 0-2.171.389c-.831.26-1.347.34-1.551.231l-7.91 1.862a25.5 25.5 0 0 1-6.283 1.32 12.475 12.475 0 0 0-5.817 1.783 20.652 20.652 0 0 0 5.739-1.007 25.081 25.081 0 0 1 5.739-1.164q.154-.31 1.165-.463c.671-.1 1.4-.238 2.172-.389s1.574-.311 2.4-.467a3.5 3.5 0 0 0 1.862-.851.829.829 0 0 0 .931.076 2.028 2.028 0 0 1 1.24-.076 2.842 2.842 0 0 1 2.172-.856 4.075 4.075 0 0 0 2.175-.541zm-25.129-9.306v-.307a.634.634 0 0 0 .465-.155.3.3 0 0 0 .08.231.328.328 0 0 1 .076.231zm.311-5.583c0 .207-.055.286-.156.231s-.1.029 0 .235h.309q.003-.464-.151-.464zm.465-.931c-.209 0-.338.13-.389.386s.027.389.233.389c-.207-.2-.182-.333.078-.389s.287-.174.08-.384zm36.142-36.916a7.4 7.4 0 0 0 1.009-2.948 21.077 21.077 0 0 1 .7-3.258c-.311 0-.493.076-.544.233a.692.692 0 0 1-.387.387 8.62 8.62 0 0 1-1.242 2.638 8.28 8.28 0 0 0-1.238 2.79 2.338 2.338 0 0 0 .929.313.947.947 0 0 0 .156.542c.1.153.051.234-.156.234h-.465c.2-.208.256-.364.156-.469s-.26-.047-.467.156a1.036 1.036 0 0 1-.078.855 16.61 16.61 0 0 0-.465 1.24 4.611 4.611 0 0 0-.233 1.474 1.68 1.68 0 0 0 .465 1.24.351.351 0 0 0-.387-.076 1.307 1.307 0 0 1-.389.076 87.163 87.163 0 0 1-.7 3.182 11.7 11.7 0 0 0-.389 2.558c-.311 0-.465.051-.465.156.411 0 .465.075.154.231s-.413.336-.309.544c.411-.1.62-.053.62.156a2.041 2.041 0 0 1-.387.538.431.431 0 0 0-.078.545c-.1.209-.209.26-.311.156s-.209-.051-.311.155c0 .62.1.776.311.465a.815.815 0 0 1 0 .7.793.793 0 0 0 0 .7h-.62c0 .211.078.311.233.311a.522.522 0 0 1 .387.156 1.233 1.233 0 0 0-.776.155.984.984 0 0 1 .465.54c.1.26-.051.5-.465.7a1.761 1.761 0 0 1 .156 1.242.632.632 0 0 0-.465-.155.5.5 0 0 1-.467-.311 1.837 1.837 0 0 1 .233-.776c.156-.313.025-.516-.389-.62a1.131 1.131 0 0 0 .7-.775 1.149 1.149 0 0 1 .542-.776c0-.207-.131-.255-.389-.156s-.336.051-.231-.155.231-.44.387-.7a.52.52 0 0 0-.078-.7q-1.087.157-.776 1.007t-.62 1.009l1.551-6.981c.207-.2.309-.2.309 0a.5.5 0 0 0 .311.469 1.809 1.809 0 0 0 .233-1.087 2.418 2.418 0 0 1 .231-1.24 1.356 1.356 0 0 0-.387.7 1.376 1.376 0 0 1-.389.7.892.892 0 0 1-.62-.156c.207-.62.467-1.32.778-2.1a2.123 2.123 0 0 0 0-1.938.787.787 0 0 0 .309-.932.788.788 0 0 1 .309-.931l-.465-.465q-8.842 13.655-16.365 27.223T37.953 84.678a1.98 1.98 0 0 0 2.018-.231 1.976 1.976 0 0 1 2.016-.236 4.157 4.157 0 0 1 2.4-.7 5.269 5.269 0 0 0 2.4-.545 2.838 2.838 0 0 0 1.707-.311c.722-.307 1.343-.567 1.86-.776a.444.444 0 0 0 .158.313 1.064 1.064 0 0 1 1.24-.157 34.571 34.571 0 0 1 6.126-1.474 27.038 27.038 0 0 0 6.128-1.627.832.832 0 0 1 .62-.931 2.185 2.185 0 0 1 .156.931 2.26 2.26 0 0 1 1.165-.234 1.624 1.624 0 0 0 1.007-.231q1.707-12.1 3.18-23.889A221.346 221.346 0 0 1 74.399 31c.1-.2.051-.281-.156-.231s-.26-.025-.154-.234a2.684 2.684 0 0 0 .542-1.162c.169-.558.093-.947-.218-1.153zm-34.9 40.485q-.154 0-.154-.313a.313.313 0 0 0 .231-.076.317.317 0 0 1 .233-.076c0 .209-.053.309-.156.309a.137.137 0 0 0-.154.158zm2.018-3.878c-.209-.1-.156-.155.154-.155a.137.137 0 0 1-.154.156zm.465-6.2c0 .209-.156.308-.465.308 0-.1.023-.156.078-.156s.076-.047.076-.152zm0-.624c0-.2.051-.2.156 0s.051.26-.156.155zm3.258-5.272c.2 0 .256.1.153.311a.306.306 0 0 1-.464.157c0-.103.102-.262.311-.47zm.62 3.57h.311v.151h-.311zm2.325-7.91c0-.1-.153 0-.465.307v-.307zm2.172.464c0 .207-.154.311-.465.311 0-.1.025-.156.078-.156s.078-.053.078-.155zm.933-1.551a.636.636 0 0 1-.467.155c-.209-.208-.182-.285.078-.231s.334-.029.231-.238c.103-.002.158.106.158.306zm1.4-6.979a1 1 0 0 1-.622.932 4.8 4.8 0 0 0 .233-.545.7.7 0 0 1 .38-.391zm.465 4.5c-.209.207-.311.232-.311.076s-.1-.231-.309-.231c0-.1.129-.155.387-.155s.331.098.229.303zm.62-6.361a.378.378 0 0 0-.233.469c.051.209-.027.307-.231.307a1.278 1.278 0 0 0 .156-.543c-.005-.162.095-.24.304-.24zm.931 2.948v-.152a.306.306 0 0 0 .231-.08.309.309 0 0 1 .233-.076c-.207-.209-.233-.338-.078-.389s.233-.127.233-.231c.2 0 .282.051.233.152a.248.248 0 0 0 .078.311.628.628 0 0 0-.467.158v.307zm.156-4.655v.313a.2.2 0 0 0-.005-.32zm1.085 2.327h.311v.156h-.467zm.931-5.737c.1.1.078.256-.078.465a.67.67 0 0 1-.542.311zm.62-.467a.45.45 0 0 0-.156.311c0 .1-.1.1-.309 0-.004-.213.148-.317.461-.317zm.776-1.082a.49.49 0 0 0-.311.462c0 .209-.154.26-.465.156.207-.1.411-.467.62-1.087.311 0 .387.029.233.076s-.186.177-.082.391zm.156-.78c-.209-.2-.156-.36.156-.465s.411-.256.309-.463c.207.207.233.387.078.538a1.981 1.981 0 0 1-.548.383zm.62 3.881a.137.137 0 0 1-.156-.156c.207 0 .311-.051.311-.155v.311zm.62 47.153h.311v-.156h.153v-.156h-.309v.156h-.156zm.465-48.7a.438.438 0 0 1-.309.154v-.309h.309zm1.087-1.242c-.209.1-.364.133-.465.08a.712.712 0 0 0-.311-.08c.207 0 .311-.076.311-.231s.153-.234.465-.234zm-.156 77.87c-.309 0-.413-.209-.309-.62a.937.937 0 0 0-.156-.931c.411 0 .567.209.464.62a1.389 1.389 0 0 0-.004.919zm.156.776c0 .207-.1.284-.311.231s-.258-.18-.153-.386a.137.137 0 0 1 .153.155c-.006.092.097.092.305-.013zm.311 2.483a.925.925 0 0 0-.233.851.825.825 0 0 1-.389.855 2.73 2.73 0 0 1-.153-1.089c.411 0 .489-.178.231-.542a1.092 1.092 0 0 1-.231-1.007h.62a6.046 6.046 0 0 1-.311.542c-.111.147.045.272.461.377zm-.622-5.586a.449.449 0 0 1-.153-.311h.309l.156.156c-.215-.013-.318.038-.318.142zm.467 8.687c-.209.1-.311.1-.311 0s-.1-.156-.309-.156c0-.207.1-.283.309-.232a.366.366 0 0 1 .305.375zm-.467-11.324c.207-.1.311-.025.311.231s-.1.34-.311.237zm.156-5.272c.207 0 .311.131.311.387s-.1.335-.311.233a.317.317 0 0 1 .078-.233c.045-.065.018-.192-.084-.401zm.467 18.612c.1.207.078.283-.08.235s-.18.025-.076.232c-.209 0-.287-.055-.233-.156a.257.257 0 0 0-.078-.311zm-.156-91.672c-.209 0-.287-.075-.233-.233s.178-.178.389-.08a.139.139 0 0 1-.156.157c-.11-.013-.11.042-.006.142zm-.156 72.591c.207-.2.311-.173.311.082s-.1.336-.311.232zm.156 11.945c.2-.1.282-.022.233.237s.022.336.231.231a2.091 2.091 0 0 0 .078-1.476 1.052 1.052 0 0 1 .233-1.162l.62.463c-.209.213-.26.313-.156.313s.156.156.156.462h-.467a4.83 4.83 0 0 0 .233.78.98.98 0 0 1-.078.62 2.526 2.526 0 0 0-.776.156.9.9 0 0 1-.313-.638zm.156 2.638a.139.139 0 0 1 .153.158h-.309v-.158zm.147 7.738c-.309-.1-.364-.157-.153-.157s.309-.051.309-.152a.451.451 0 0 1 .311.152c-.311.004-.467.057-.467.157zm-.153-95.55l.153-.311a.464.464 0 0 1-.153.315zm.774 92.915a2.334 2.334 0 0 1-.076-1.554q.233-.62-.7-1.084.617-.467.309-2.018a2.139 2.139 0 0 0 .931.156.894.894 0 0 0-.156.855c.1.256.207.541.311.852-.311-.1-.442-.156-.389-.156s-.078.051-.387.156a.975.975 0 0 1 .309.7.761.761 0 0 1-.156.54q.467.31.156.467c-.207.1-.1.256.311.465a.527.527 0 0 0-.156.387c.003.158-.101.238-.308.238zm0-10.86c.1.207-.027.287-.387.232s-.44-.176-.233-.387a.914.914 0 0 1 .619.159zm0-2.634c-.207.207-.362.231-.465.075a.95.95 0 0 1-.156-.544.323.323 0 0 0 .233-.076.318.318 0 0 1 .233-.08c.2.209.178.364-.078.467s-.181.162.232.162zm-.153.307c.2-.1.282-.076.233.08s-.029.231.076.231a.5.5 0 0 0-.309.464.5.5 0 0 1-.311.467 1.2 1.2 0 0 0 .078-.7c-.055-.149.023-.329.232-.538zm.309 8.53c-.207-.1-.309-.18-.309-.231s-.1-.076-.311-.076v-.931c.311 0 .465-.1.465-.314q.31-.156.233 0c-.053.1.025.156.233.156 0 .209-.209.313-.62.313v.463c.2 0 .309-.051.309-.156s.1-.151.311-.151a.3.3 0 0 1-.156.462.3.3 0 0 0-.156.47zm-.465 9.462c.1 0 .258.1.465.311a1.14 1.14 0 0 0-.231.313c-.055.1-.182.151-.389.151 0-.208.051-.335.156-.387s.1-.175-.002-.384zm0-36.451a.439.439 0 0 0 .309-.153v.309h-.309zm.309 15.977a.273.273 0 0 0-.309-.307c.207-.208.283-.336.233-.389a1.585 1.585 0 0 1-.233-.387 1.255 1.255 0 0 1 .931-.311v.931c-.209-.1-.311-.053-.311.156a.273.273 0 0 1-.312.311zm-.153 5.12c.2 0 .282.1.233.309s-.182.258-.389.156v-.309a.138.138 0 0 0 .155-.152zm0-4.652c.1.207.178.231.233.076s.178-.18.387-.076q-.157.31 0 .387c.1.054.1.18 0 .389a.442.442 0 0 0-.311.156.908.908 0 0 0-.309-.624c-.209-.2-.156-.411.153-.62q-.001.316-.154.316zm.776 18.147a.89.89 0 0 1 .309.62.492.492 0 0 0 .311.463c-.1 0-.156.1-.156.313s.156.256.464.156c0 .1-.076.18-.233.231s-.076.076.233.076c-.309.209-.364.44-.153.7s.049.44-.467.542a2.457 2.457 0 0 0-.776-1.394.817.817 0 0 0 .156-.856.8.8 0 0 1 .156-.852c0-.1-.156-.155-.467-.155 0-.208.051-.313.156-.313s0-.051-.309-.152c-.1-.21-.027-.311.233-.311s.282-.1.076-.313a.313.313 0 0 0 .233-.076.618.618 0 0 1 .387-.076 4.248 4.248 0 0 0 .078.851.45.45 0 0 1-.233.551zm-.776-20.323h.309v.313h-.309zm.465-1.858c-.311-.209-.413-.411-.311-.62.518.1.722.336.622.7s-.209.7-.311 1.007a.5.5 0 0 1-.387-.618c.048-.309.176-.465.385-.465zm-.311-3.259c.518-.207.722-.516.622-.931-.209 0-.26.075-.156.231s0 .184-.311.08c-.207-.311-.182-.516.078-.622s.285-.36.078-.776a1.352 1.352 0 0 1 .389 1.162 2.976 2.976 0 0 0 .231 1.476c-.309-.307-.362-.256-.156.155s.207.725 0 .931h-.62v-.776a8.088 8.088 0 0 0-.157-.925zm.776 23.578c-.309 0-.413.1-.309.311-.311-.1-.442-.26-.387-.467a2.793 2.793 0 0 1 .231-.62c.309-.1.467.16.467.78zm-.62-26.06c0-.207.051-.335.156-.386s.1-.18 0-.389a.925.925 0 0 1 .62-.156.643.643 0 0 1-.156.469c-.1.1-.1.256 0 .462zm0 7.137c.207-.1.311 0 .311.311h-.311zm.156-8.843c.311-.1.465-.023.465.233a.55.55 0 0 1-.309.542 1.69 1.69 0 0 1-.159-.771zm.931-1.083c-.209 0-.286.075-.233.231s-.078.181-.387.076c.2.208.334.233.387.079s.129-.13.233.078a1.151 1.151 0 0 0-.233.311c-.053.1-.182.151-.387.151a1.836 1.836 0 0 1-.156-1.238c.1-.313.207-.672.309-1.089.207 0 .311.157.311.469a2.923 2.923 0 0 0 .153.932zm-.156 35.364a1.992 1.992 0 0 1 .078-.463c.051-.213-.027-.313-.233-.313 0 .2-.156.313-.465.313 0 .2.078.307.233.307a.533.533 0 0 1 .385.16zm.62-46.068c.207 0 .285.051.233.155s.025.156.231.156c.1-.1.08-.209-.076-.311a1.134 1.134 0 0 0-.62-.158 1.148 1.148 0 0 0-.7.234.4.4 0 0 0-.154.542c.619-.199.98-.407 1.084-.614zm-.776-3.414c.1-.2.129-.129.078.236s-.182.491-.387.386v-.311a.273.273 0 0 0 .307-.307zm0 .774l.156.158h-.309l-.154-.158zm.62 52.587c-.207.207-.413.127-.62-.231s-.1-.544.311-.544a.713.713 0 0 1 .076.544c-.053.159.025.234.231.234zm-.309-55.688c.2.311.2.52 0 .625s-.156.207.156.307c.1.207.049.289-.156.232s-.26.028-.156.235a.83.83 0 0 1-.233-.773.779.779 0 0 1 .387-.622zm0-51.807a.449.449 0 0 0-.156.309v.156c.099.003.154-.152.154-.462zm.309 48.549v.155h-.153v-.931h.153v.311h.156v.465zm0-1.7c.207-.1.311-.051.311.151a.274.274 0 0 1-.311.313zm.311-.467a.427.427 0 0 1-.078-.62.429.429 0 0 0-.078-.62q.773 0 .465.464a1.519 1.519 0 0 0-.31.777zm1.24 2.638c.311.1.336.26.078.463s-.44.209-.542 0v.776c.207 0 .284-.1.233-.307s.076-.26.387-.158a1.4 1.4 0 0 0-.233 1.009c.051.362-.18.6-.7.7a.9.9 0 0 1 .156.62.138.138 0 0 0 .156-.156c0-.1.1-.155.309-.155.1.311.051.491-.153.543a1.4 1.4 0 0 0-.622.389.753.753 0 0 1 .389.156c.156.1.078.156-.233.156a.5.5 0 0 1 .311.465 1.356 1.356 0 0 0 .156.62c-.52 0-.753.1-.7.311a.65.65 0 0 1-.233.62c-.1-.1-.1-.285 0-.545a.6.6 0 0 0-.156-.7c.207 0 .311-.051.311-.156s.1-.156.309-.156a2.145 2.145 0 0 1-.156-2.1 3.386 3.386 0 0 0 .156-2.245.4.4 0 0 1 .544.152c.154.217.232.114.232-.301zm.931 11.324a.7.7 0 0 1 .078-.7c.156-.256.078-.387-.233-.387 0 .207-.18.283-.543.232a1.439 1.439 0 0 0-.853.079 1.814 1.814 0 0 1-.311.463 1.848 1.848 0 0 0-.309.465c.207.311.516.364.931.155a2.79 2.79 0 0 1 1.239-.306zm-1.707-16.134c-.207.209-.309.1-.309-.311a1.238 1.238 0 0 1 .153-.776h.622c0 .207-.131.362-.389.467s-.285.311-.078.622zm.156-3.57c.207-.2.311-.129.311.236s-.156.491-.467.388q-.157-.313 0-.313c.102.001.152-.099.152-.309zm.156-1.24c.207-.1.336 0 .387.313s-.18.462-.7.462c-.1-.207-.053-.336.156-.387s.258-.178.155-.386zm1.7 18.306a1.051 1.051 0 0 1 .08-.469c.049-.1-.029-.255-.233-.462-.416 0-.649.076-.7.231s-.338.231-.853.231c0 .213-.053.34-.156.389s-.156.182-.156.387a8.813 8.813 0 0 1 2.021-.306zm-1.7-8.686c-.209-.1-.26-.233-.156-.389a.766.766 0 0 0 .156-.386q.31 0 .233.307a1.014 1.014 0 0 1-.235.469zm.465 40.172a.513.513 0 0 1-.078-.694.52.52 0 0 0-.078-.7c.1.207.027.463-.231.776s-.133.521.385.619zm-.156-43.586c.311.1.467.08.467-.077s.1-.232.309-.232a1.157 1.157 0 0 0-.154 1.008 1.6 1.6 0 0 1-.156 1.164c-.209.1-.338.076-.389-.079a.359.359 0 0 0-.387-.234 1.255 1.255 0 0 1 .233-.774.81.81 0 0 0 .075-.775zm-.309 2.018c.516-.1.776.1.776.62a.856.856 0 0 0-.542-.313c-.158.001-.236-.099-.236-.306zm.309-9.462c0-.209.078-.053.233.462s.025.724-.387.62a.3.3 0 0 1 .153-.462c.206-.103.206-.312-.001-.618zm-.153 47.464c.2.1.309.025.309-.235s-.1-.285-.309-.076zm1.085-49.639a1.377 1.377 0 0 1-.931.776 1.258 1.258 0 0 1 .156-.7 5.457 5.457 0 0 0 .311-.542.411.411 0 0 0 .463.467zm-.931 6.361c0-.309.258-.465.776-.465v.465h.311c.309 0 .309.055 0 .156s-.416.051-.311-.156c-.1 0-.154.1-.154.311s-.053.156-.156-.155c-.002-.1-.158-.152-.469-.152zm1.242.776a.837.837 0 0 1-.233.932c-.258.207-.287.416-.078.62 0 .1-.027.156-.078.156s-.078-.053-.078-.156c-.413-.1-.569-.024-.465.236s0 .336-.311.231a1.412 1.412 0 0 0 .233-1.011 7.978 7.978 0 0 1-.078-1.162c.311-.2.489-.176.544.08s.232.282.542.075zm-.931 52.9v-.622c-.209 0-.311.051-.311.156v.467zm0-15.825c-.1-.2-.053-.28.156-.231s.256-.025.156-.233a.31.31 0 0 0-.467.157c-.107.204-.056.304.152.304zm.311-79.572a.457.457 0 0 0-.078.464c.049.207-.078.311-.389.311-.106-.314.049-.569.465-.778zm0 78.021v-.307h-.467v.307zm.154-46.066c.311.1.413.389.311.851a1.557 1.557 0 0 1-.62 1.009.817.817 0 0 0 .156-.851 1.158 1.158 0 0 1 .15-1.013zm.467 2.327c-.209.1-.311.209-.311.307s-.156.157-.465.157v-.62c.2-.1.309-.08.309.075s.154.182.464.077zm-.776 5.585q.464 0 .387-.313c-.053-.207.129-.311.542-.311a2.123 2.123 0 0 0-.465.7c-.1.26 0 .491.311.7-.416.1-.467.178-.156.232s.411.18.309.387c-.413-.1-.645-.311-.7-.618a2.882 2.882 0 0 0-.231-.781zm1.4-5.74q.31.157-.156.7c-.311.362-.156.5.465.387a1.388 1.388 0 0 0-.231.313c-.053.1-.182.1-.389 0 .1.618.156.958.156 1.007v.856a.457.457 0 0 1-.311.156c.311.1.258.256-.153.462h.62c.1.418-.027.649-.387.7s-.544.233-.544.54a.515.515 0 0 1-.078-.7.755.755 0 0 0-.078-.856 2.231 2.231 0 0 0 .467-1.162c.1-.569.051-.955-.156-1.164.411-.1.542-.283.389-.543s-.037-.498.379-.698zm-.931 49.946c0 .621.025 1.267.078 1.938a5.958 5.958 0 0 1-.233 2.1 2.335 2.335 0 0 0 .776-.931.615.615 0 0 0-.309-.931 1.392 1.392 0 0 0 .309-1.007 2.067 2.067 0 0 0-.309-1.165zm-.156 23.113c.207-.206.336-.156.389.152s-.027.469-.233.469a.9.9 0 0 0-.163-.625zm.776-76.162c-.207.309-.387.44-.542.388s-.182-.284-.078-.7c.207.1.311.184.311.231s.095.082.302.082zm-.62 58.166c-.1.209-.027.336.233.389s.387-.025.387-.234a.244.244 0 0 1-.231-.156c-.061-.107-.19-.107-.395-.003zm.311 4.034c.1-.209.233-.464.387-.775s.025-.567-.387-.776a.274.274 0 0 0 .309-.307.776.776 0 0 0-.62.851 1.381 1.381 0 0 0 .304 1.008zm-.156-10.393q.153.157 0 .467c-.1.208-.053.26.156.155a1.368 1.368 0 0 1 .309-.235q.154-.071 0-.387zm0-15.974a.516.516 0 0 1 .078.7c-.156.26-.131.444.078.545a1.394 1.394 0 0 1 .233-.7c.15-.264.015-.445-.396-.549zm2.327-43.588a.137.137 0 0 1 .156.152c0 .1.1.1.309 0-.209.624-.156 1.036.156 1.244-.1.307-.287.462-.542.462s-.338.208-.233.62c.207 0 .311-.047.311-.151a.136.136 0 0 1 .153-.156c0 .62-.1.982-.309 1.082-.1 0-.131-.047-.078-.151s-.027-.155-.233-.155c.207.206.207.306 0 .306s-.258.1-.156.311a.615.615 0 0 0 .389-.076c.051-.051.18-.023.387.076a.9.9 0 0 0-.309.62 1.378 1.378 0 0 1-.156.62c-.209.108-.284.029-.233-.231s-.027-.334-.231-.234a3.533 3.533 0 0 0 .231 1.241 3.576 3.576 0 0 1 .078 1.707c-.209 0-.338-.025-.387-.076a.314.314 0 0 0-.233-.076c-.1.207-.053.307.156.307s.256.1.156.311a1.2 1.2 0 0 0-.465.155c-.209.1-.311.053-.311-.155.311-.311.282-.567-.078-.776s-.442-.412-.233-.619c.207-.1.311-.029.311.231s.1.336.311.231a3.125 3.125 0 0 1 .076-1.551 1.05 1.05 0 0 0-.387-1.243 2.2 2.2 0 0 1 .154.932.61.61 0 0 1-.465-.156 5.086 5.086 0 0 0-.156 1.243 1.045 1.045 0 0 1-.465.931 13.347 13.347 0 0 0 .309-2.483 4.976 4.976 0 0 1 .622-2.169.665.665 0 0 1 0 .62.5.5 0 0 0 .154.618h.622a1.146 1.146 0 0 1 .078-1.238c.256-.311.178-.567-.233-.776a5.868 5.868 0 0 0 .542-.625c.156-.2.078-.411-.233-.618.094 0 .249-.1.458-.309zm-.776 49.949a4.544 4.544 0 0 1-.156-2.02c.1-.62.207-1.187.311-1.707a16.015 16.015 0 0 0 .231-1.627 3.312 3.312 0 0 0-.387-1.783 17.227 17.227 0 0 0 .465-2.094 4.1 4.1 0 0 0-.156-1.94 65.4 65.4 0 0 0-1.162 9.851q-.233 5.2-.7 10.782a1.3 1.3 0 0 0 .776-1.707 1.668 1.668 0 0 1 .467-1.864 4.8 4.8 0 0 1-.233-3.1 2.935 2.935 0 0 0-.233-2.483c.309.1.467.079.467-.076s.098-.236.304-.236zm-.309-40.336q.307-.3.231.313a7.9 7.9 0 0 0-.078.932.622.622 0 0 1-.465-.156c-.1-.1-.311-.1-.622 0-.1-.209-.076-.335.08-.389a.71.71 0 0 0 .387-.387h.309c.096-.004.155-.104.155-.317zm-.778 77.563c.207 0 .285.127.233.387s-.182.28-.389.078a.639.639 0 0 0 .15-.469zm.311 2.634c.1-.207.078-.336-.078-.387a.7.7 0 0 1-.389-.389.73.73 0 0 1 .08.544c-.061.152.07.228.381.228zm.156-12.1v-.307h-.311v.307zm-.156-69.646q.774.309.62.466c-.1.1-.053.26.156.465-.209.1-.338.1-.389 0s-.18-.1-.387 0zm.156 2.482a.456.456 0 0 1 .311-.158v-.307h-.467c-.006.304.045.462.149.462zm.154 76.781c-.207.209-.309.18-.309-.076s.1-.336.309-.231zm.158-86.551c.2 0 .256.1.154.309a.307.307 0 0 1-.465.156c-.1-.209-.053-.285.154-.234s.253-.027.153-.235zm.154-2.794a.562.562 0 0 1 .311.545c0 .258-.156.387-.465.387-.209-.311-.233-.491-.08-.544a.357.357 0 0 0 .226-.392zm0 1.707c-.209-.1-.26-.18-.154-.231s.049-.181-.158-.389c.413.208.622.364.622.465a.442.442 0 0 0-.318.151zm0 29.627c.207.209.233.389.078.54s-.131.34.078.545a.553.553 0 0 1 .078-.62c.147-.213.069-.364-.242-.469zm0 26.06c.207.1.311.024.311-.235s-.1-.28-.311-.076zm.156-49.484v.311a.442.442 0 0 0 .309-.155v-.156zm.62 44.056v-.313c-.209 0-.311.053-.311.156v.157zm0-2.952c.207.1.284.029.233-.231s-.182-.284-.389-.076c0 .1.025.151.078.151s.07.054.07.153zm0-11.168c.411 0 .62-.1.62-.307a.9.9 0 0 1 .311-.624 2.1 2.1 0 0 1-.931.156.614.614 0 0 1-.078.389c-.061.052-.035.178.07.383zm.156-64.218a1.737 1.737 0 0 1-.078.544c-.053.156.129.231.542.231a13.815 13.815 0 0 1 1.4-2.248 6.137 6.137 0 0 0 1.085-2.249 1.22 1.22 0 0 0 .853-1.007 1.2 1.2 0 0 1 .854-1.009 1.183 1.183 0 0 1 0-.855.6.6 0 0 0-.156-.694 1.046 1.046 0 0 0-.465.076 1.106 1.106 0 0 1-.467.076c.1.207.078.34-.078.387s-.131.08.078.08c-.1-.1 0-.18.309-.231s.413.025.311.231q-.62-.153-.311.465a1.972 1.972 0 0 0-1.549 1.476 7.615 7.615 0 0 1-.776 1.938l.311.307a1.531 1.531 0 0 1-.467.544.429.429 0 0 1-.62-.075c.1.307.023.52-.233.618a.606.606 0 0 0-.387.62c.411-.1.516-.076.309.08s-.209.336 0 .545a.639.639 0 0 0-.474.147zm.156 60.96a.637.637 0 0 1-.156.469h.62v-.469zm.62-38a1.649 1.649 0 0 1 .078-1.472 4.3 4.3 0 0 0 .387-1.787h-.62a1.486 1.486 0 0 1-.078 1.4c-.258.412-.182.723.233.931-.52 0-.751.231-.7.7s.275.534.691.223zm2.792 14.582a6.9 6.9 0 0 1 .854-3.721 4.815 4.815 0 0 0 .233-4.034c0 .207-.156.307-.467.307a21.967 21.967 0 0 1-.543 4.658q-.546 2.481-1.162 4.652-.16 2.171-.467 5.117a30.82 30.82 0 0 1-.929 5.121c-.106.209-.055.284.154.231s.258.029.156.233c-.309 1.451-.6 3-.853 4.653a15.645 15.645 0 0 0-.078 4.652c0-.2.025-.232.078-.076s.18.181.387.076v-1.47a2.888 2.888 0 0 1 .311-1.32c.411-.1.622.029.622.389s.2.542.62.542c0-.207.049-.336.153-.386s.156-.18.156-.389c-.309-.206-.415-.362-.309-.466a1.83 1.83 0 0 1 .465-.309c-.52 0-.7-.051-.542-.155a2.58 2.58 0 0 0 .387-.311q-.464-.308-.7 0a4.148 4.148 0 0 0-.389.62 1.387 1.387 0 0 0-.231-.7c-.156-.256-.078-.491.231-.7 0 .415.078.571.233.469a1.185 1.185 0 0 0 .389-.469c0 .311.1.415.309.311a2.461 2.461 0 0 1 .078-.618.657.657 0 0 0-.231-.624c-.209.211-.26.311-.156.311s.1.053 0 .155c-.311.1-.364.053-.156-.155a.388.388 0 0 0 0-.619c.2 0 .311-.053.311-.157s.1-.1.309 0a3.5 3.5 0 0 1 .078-.7.444.444 0 0 0-.233-.54c.207.62.18.9-.078.851s-.44.076-.542.387a3.942 3.942 0 0 1 .078-3.177 4.021 4.021 0 0 0 .233-3.027c.516-.207.643-.62.387-1.242s.025-.981.853-1.085a2.189 2.189 0 0 1-.62-1.629 8.9 8.9 0 0 1 .233-2.016q.23-1.007.387-1.938a4.776 4.776 0 0 0-.009-1.707zm-3.1-9l.156-.152zm1.087 45.295q.15-.3 0-.387a1.234 1.234 0 0 1-.311-.231.624.624 0 0 1 .465.155.321.321 0 0 0-.076-.234.3.3 0 0 1-.078-.235h-.622a.535.535 0 0 1-.231.7c-.26.155-.233.387.078.7.311.1.438.051.387-.155s.064-.317.376-.317zm-.931-68.251c.207.207.233.362.078.467s-.131.155.078.155c0-.1.1-.155.311-.155s.2-.1 0-.311c-.106 0-.158-.025-.158-.076s-.115-.084-.323-.084zm0 69.8a1.782 1.782 0 0 1 .776-.155c0-.516-.26-.671-.776-.464zm2.016-72.9l.311-.156v-.152c.2 0 .489-.26.853-.776s.282-.88-.233-1.089a41.7 41.7 0 0 0-2.638 4.5.141.141 0 0 1 .158.156c0 .1.1.155.309.155a1.353 1.353 0 0 0 .387-.62 1.38 1.38 0 0 1 .389-.622c0 .211.1.26.311.155a1.886 1.886 0 0 1 .153-.7c.1-.26.207-.491.311-.7h-.311zm-1.549 69.339c.2.1.282.051.231-.156s-.182-.256-.389-.156a.444.444 0 0 0 .145.305zm.618-55.843c0 .1-.076.156-.231.156s-.131.051.078.155a.276.276 0 0 0 .311-.311c-.013-.212-.069-.212-.171-.007zm-.309-18.306a.622.622 0 0 0 .156-.463c-.118-.006-.169.15-.169.457zm.62 15.823a1.344 1.344 0 0 1-.311.856c-.207.26-.154.542.158.851a2.362 2.362 0 0 1 .309-.931c.191-.418.142-.678-.166-.783zm.156 10.086a.307.307 0 0 1 .156.462.5.5 0 0 1-.464.313c-.107-.209-.029-.338.231-.389s.268-.185.064-.393zm.465-12.72l.156-.156v-.469h-.156v-.151h-.153v.151l-.156.156v.469zm.311 46.533c-.209 0-.364.133-.465.389s-.055.438.153.542a.883.883 0 0 1 .298-.938zm-.311-62.2v-.309h.311c.1 0 .154.1.154.309zm.311 62.978v-.156h-.311v.156zm.154-39.709a.452.452 0 0 1 .158.311h-.311v-.311zm.776-18.768c.207.1.311.022.311-.234s-.1-.282-.311-.08zm.622 29.781a5.338 5.338 0 0 0 .774-1.627 2.616 2.616 0 0 0 0-1.787h-.465c-.1.311-.1.5 0 .543a2.517 2.517 0 0 1 .465.388 1.051 1.051 0 0 0-.774 1.011zm1.085-4.343a1.044 1.044 0 0 1 .233-.622q.233-.306-.233-.62c.1.209.024.469-.231.775s-.197.458.217.458zm-.154 87.327c-.106.208-.055.335.154.389s.311.028.311-.076c-.209 0-.287-.053-.233-.155s-.041-.167-.246-.167zm.154 1.089c.207.1.336.051.389-.158s-.027-.307-.233-.307c0 .1-.078.152-.233.152s-.146.095.063.306zm-.154-89.814a1.88 1.88 0 0 0 .851-1.4 2.117 2.117 0 0 0-.076-1.551 5.6 5.6 0 0 0-.389 1.475 5.8 5.8 0 0 1-.4 1.467zm.929-4.81v.156h.311v-.156zm.62-2.789c0-.1.078-.156.233-.156s.18-.053.078-.156h-.465c-.013.202.038.303.14.303zm.622-2.014c-.209-.1-.338-.053-.389.152s.025.311.233.311c-.209-.207-.182-.284.078-.231s.269-.035.064-.241zm3.723 47c-.311.1-.493.082-.544-.076s-.18-.18-.387-.079a2.261 2.261 0 0 1-1.4.469 4.217 4.217 0 0 0-1.551.307v.625c.825-.209 1.551-.389 2.171-.545a6.2 6.2 0 0 0 1.697-.715zm-2.018-2.17q-1.243 0-1.4.311a.275.275 0 0 1 .311.309.553.553 0 0 1 .542-.309.557.557 0 0 0 .533-.321zm-.776 57.7c0 .208-.078.284-.231.233s-.182.022-.078.235a.36.36 0 0 0 .387-.235c.038-.165.011-.243-.091-.243zm1.4-57.857a.638.638 0 0 0-.465.155v.156h.465zm5.119-43.9c0 .209-.051.309-.153.309 0-.1.023-.155.076-.155s.059-.058.059-.163zM141.419 120.665c.1.1.053.158-.154.158q-4.5 4.965-8.533 5.895t-9.926-1.394a3.093 3.093 0 0 0-1.7-.931c-.622-.1-.933-.624-.933-1.551-.207.2-.338.024-.387-.545s-.287-.8-.7-.7a9.62 9.62 0 0 1-1.163-2.716 7.812 7.812 0 0 0-1.165-2.558q-.313-3.254-.311-4.576c0-.876.025-1.627.078-2.251s.1-1.368.156-2.245.078-2.407.078-4.578c-.518.208-.675.62-.465 1.244q-3.107 4.034-5.819 8.062a51.173 51.173 0 0 1-6.281 7.6q-4.037 4.031-8.686 4.034a10.017 10.017 0 0 1-7.6-3.1 7.455 7.455 0 0 1-1.938-3.494 97.77 97.77 0 0 1-1.009-4.265c.309.1.438 0 .387-.307s-.182-.468-.387-.468c.1-.1.256-.283.465-.539s.1-.44-.309-.544l.465-1.087c0-.1-.1-.155-.311-.155s-.258.1-.154.311c-.311-.1-.258-.256.154-.469a.341.341 0 0 1-.076-.387.358.358 0 0 0-.078-.386c.309.211.542.131.7-.233a1.336 1.336 0 0 0-.078-1.163h.465a2.289 2.289 0 0 1-.311-2.558 2.155 2.155 0 0 0 0-2.251.273.273 0 0 1 .311-.307.276.276 0 0 0 .311-.311q-.313-.307.465-3.647t1.938-7.366q1.164-4.031 2.251-7.524a42.192 42.192 0 0 1 1.4-4.11.275.275 0 0 1-.311-.311.634.634 0 0 0-.156-.464l.62-.311a1.4 1.4 0 0 1 .156-1.165c.207-.255.411-.542.62-.851.1-.207.078-.282-.078-.235s-.231-.025-.231-.231c.516.1.62-.1.309-.62.311.209.44.209.389 0s.078-.311.387-.311q-.463-.307-.078-.62c.258-.2.18-.411-.231-.62q.463 0 .309-.467c.518 0 .749-.2.7-.62a.9.9 0 0 1 .387-.932c-.1-.2-.209-.256-.311-.151a.621.621 0 0 0-.156.462c-.209-.311-.131-.516.233-.618a1.038 1.038 0 0 0 .7-.469 9.4 9.4 0 0 1 1.629-4.341 8.486 8.486 0 0 0 1.474-4.5 18.9 18.9 0 0 0 3.412-.313 2.875 2.875 0 0 1 2.947 1.4 1.318 1.318 0 0 1 1.087.156 5.435 5.435 0 0 1 .776.62c.207.209.411.444.62.7a1.629 1.629 0 0 0 .776.543c.1.413.18.8.233 1.164a.774.774 0 0 0 .542.7l.311 2.483a160.564 160.564 0 0 0-8.068 17.915 100.382 100.382 0 0 0-5.272 20.554 44.019 44.019 0 0 0-1.087 7.6 7.177 7.177 0 0 0 3.258-2.094 15.846 15.846 0 0 0 2.481-3.333c.311-.209.6-.389.854-.545s.336-.487.233-1.007a.7.7 0 0 0 .929-.62 1.449 1.449 0 0 1 .776-1.087 2.143 2.143 0 0 1-.154-.931c.62 0 .929-.1.929-.307 0-.1-.051-.133-.154-.08s-.156.027-.156-.078c-.1-.206-.078-.335.078-.387a.356.356 0 0 0 .231-.387c.209-.1.285-.08.233.076a.345.345 0 0 0 .08.387c.2-.1.231-.232.076-.387a.43.43 0 0 1-.076-.545.737.737 0 0 0 .54-.62 1.156 1.156 0 0 1 .544-.775.634.634 0 0 1-.156.464.642.642 0 0 0-.156.469 26.248 26.248 0 0 0 3.723-5.586 35.818 35.818 0 0 1 3.567-5.74c.1 0 .129.08.078.233a.98.98 0 0 1-.231.387c.411 0 .7-.256.853-.776s.334-1.032.54-1.552c-.207 0-.284.08-.231.238s-.029.231-.233.231a.629.629 0 0 1 .156-.7 3.957 3.957 0 0 0 .467-.7c.2.1.256.209.153.309s-.1.26 0 .467a6.064 6.064 0 0 1 .7-1.318q.384-.546.851-1.165a4.534 4.534 0 0 1 1.087-2.794q1.081-1.4 2.016-2.634c.207.1.311.076.311-.079a.525.525 0 0 1 .153-.389l-.153-.155a.461.461 0 0 1-.158.313l.158-.313c-.1 0-.158-.1-.158-.307a4.827 4.827 0 0 1 .622-.776 1.265 1.265 0 0 0 .309-.931c.207-.209.389-.256.544-.156s.282.051.389-.157c0-.2-.029-.2-.08 0s-.18.26-.387.157a10.125 10.125 0 0 1 .62-1.089 2.853 2.853 0 0 1 .776-.776.139.139 0 0 1-.156.158c-.1 0-.1.1 0 .311.1 0 .207-.129.311-.387s.049-.389-.156-.389c.1-.207.233-.44.387-.7a.535.535 0 0 1 .7-.231c-.309.311-.413.464-.309.464.2.1.336.027.387-.233a2.747 2.747 0 0 1 .233-.7c-.209-.1-.285-.051-.233.154s-.027.26-.231.156a.96.96 0 0 1 .618-1.007.966.966 0 0 0 .622-1.009c.207 0 .311-.023.311-.08s.1-.023.309.08a2.73 2.73 0 0 1 .776-2.094c.622-.776.567-1.418-.154-1.938a3.5 3.5 0 0 1 1.472 0 .82.82 0 0 0 1.009-.469c0 .1.516.34 1.549.7a28.619 28.619 0 0 1 3.258 1.4 7.705 7.705 0 0 1 2.714 2.169 2.455 2.455 0 0 1-.076 3.027c0 .207.051.287.153.231s.158.029.158.235q-1.4 4.5-3.414 9.382t-3.645 10.086a66.14 66.14 0 0 0-2.4 10.777 34.64 34.64 0 0 0 .309 11.324.891.891 0 0 0 1.085.156 3.337 3.337 0 0 1 1.085-.464v-.467a7.318 7.318 0 0 0 3.258-1.552q1.55-1.24 2.792-2.327c.207 0 .284.075.235.233s.023.231.231.231a1.072 1.072 0 0 1 .309-1.083 6.076 6.076 0 0 1 1.087-.855c.413-.26.827-.54 1.24-.851a2.008 2.008 0 0 0 .776-1.24.373.373 0 1 1 .467.464 8.344 8.344 0 0 0 2.016-2.252q1.4-1.937 3.1-4.652t3.567-5.585q1.86-2.865 3.256-5.041c-.1-.1-.309.1-.618.62a3.888 3.888 0 0 1 .851-1.938 5.39 5.39 0 0 0 1.009-1.94c0-.2-.027-.232-.078-.076s-.182.18-.389.076a.534.534 0 0 0-.156.389c0 .156-.1.184-.309.08a2.8 2.8 0 0 0 .156-2.407c-.309-.876-.622-1.729-.931-2.558-.1-1.343-.231-2.61-.389-3.8s-.284-2.4-.387-3.645a3.1 3.1 0 0 0 .622-2.4 2.4 2.4 0 0 1 .776-2.251c0-.2-.055-.336-.158-.387s-.156-.181-.156-.389c.313.1.389.029.235-.231s-.08-.336.231-.231a7.541 7.541 0 0 1 .542-4.034 19.388 19.388 0 0 0 1.165-4.345 3.3 3.3 0 0 0 1.163-1.938 3.706 3.706 0 0 1 1.007-1.94 12.81 12.81 0 0 1 .778-1.627 8.735 8.735 0 0 1 1.551-2.094 5.9 5.9 0 0 1 2.249-1.4 3.2 3.2 0 0 1 2.714.309c.1 0 .127-.076.078-.233s-.027-.232.078-.232a3.612 3.612 0 0 1 2.094 2.789 6.735 6.735 0 0 0 1.474 3.258 6.514 6.514 0 0 1-.078 2.251 2.158 2.158 0 0 0 .542 1.938 35.6 35.6 0 0 0-.389 4.11 7.728 7.728 0 0 1-.851 3.49l.311.931a58 58 0 0 1-1.86 6.672 63.618 63.618 0 0 0-1.865 6.359c0 .209.025.284.078.233s.129.027.233.231a2.32 2.32 0 0 1-.153.852c-.1.26-.209.495-.311.7.207.207.154.52-.156.931a2.074 2.074 0 0 0-.467 1.238 15.275 15.275 0 0 0 5.663-1.471 12.157 12.157 0 0 0 3.8-3.026c.207-.1.338-.1.389 0s.18.156.387.156l-.929.931c.207.209.36.209.467 0s.154-.155.154.152a2.028 2.028 0 0 1 .776-.694 1.022 1.022 0 0 0 .465-1.009c-.1 0-.156.153-.156.464h-.776c.207-.515.1-.62-.309-.311a.607.607 0 0 1 .622-.464.617.617 0 0 0 .618-.311c0-.1-.156-.153-.465-.153v-.311a1.657 1.657 0 0 1 .233-.387.621.621 0 0 0 .076-.389q.777-.15.776-1.087a.623.623 0 0 0 .389-.076c.051-.053.18-.025.387.076a6.269 6.269 0 0 0-.542 1.011 1.7 1.7 0 0 1-.853.851 6.632 6.632 0 0 0 3.336-3.178 8.724 8.724 0 0 1 3.18-3.494 1.5 1.5 0 0 1 .465-.538 6.524 6.524 0 0 0 .931-1.011 8.014 8.014 0 0 0 1.24-.776 6.051 6.051 0 0 1 1.4-.776 2.441 2.441 0 0 1-.62.856 5.683 5.683 0 0 0-.62.542l2.327-2.174 1.7-.62a12.427 12.427 0 0 1-1.861 1.782c-.727.573-1.085.96-1.085 1.164-.1.1-.158.1-.158 0a.155.155 0 0 0-.309 0 .139.139 0 0 1-.156.156c.2.207.156.52-.154.931s-.622.52-.931.311a3.941 3.941 0 0 1-.7 1.007 5.691 5.691 0 0 0-.7.851c.1.209.256.1.464-.307a1.337 1.337 0 0 1-.464.927c-.311.311-.569.364-.776.156.207.52.154.855-.156 1.011s-.413.493-.309 1.009a.657.657 0 0 0-.622 0l.311.307c.207-.2.334-.256.389-.152s.178.152.387.152a11.051 11.051 0 0 1 1.24-1.083 5.869 5.869 0 0 1 1.4-.776 1.526 1.526 0 0 1 .931-1.938 2.561 2.561 0 0 0 1.551-1.789q.774-.771 1.783-1.783a2.436 2.436 0 0 0 .854-2.094.739.739 0 0 1 .544.467 1.322 1.322 0 0 0 .387.62 1.061 1.061 0 0 1 .076.7 4.363 4.363 0 0 0-.076.851 5 5 0 0 0-.7 1.783 2.59 2.59 0 0 1-.851 1.476v.776a4.573 4.573 0 0 0-1.009 1.007 8.824 8.824 0 0 0-.7 1.162l.62.313a1 1 0 0 1-.464.463c-.209.1-.258.313-.156.62a3.479 3.479 0 0 1 .776-.62l-1.549 2.327c0 .1.049.1.153 0v.311c-.209-.206-.44-.18-.7.075a.8.8 0 0 0-.078 1.009c-.311-.1-.465-.049-.465.156.1.206.129.206.076 0s.027-.256.235-.156c.1.211.022.311-.235.311s-.285.156-.076.463a.6.6 0 0 0-.387.079.61.61 0 0 1-.389.078v.776a9.231 9.231 0 0 0-1.551 1.629 13.844 13.844 0 0 1-1.4 1.628q-1.553 3.42-6.361 4.189.62.623 0 .313c-.413-.209-.569-.053-.465.462q-2.484.313-4.343.465t-4.034.156a5.8 5.8 0 0 0-2.092-.851 7.446 7.446 0 0 1-2.251-.856q-1.71 2.637-3.567 5.276t-3.567 5.428a3.735 3.735 0 0 0-1.087 1.551c-.309.725-.618 1.471-.931 2.251a14.186 14.186 0 0 1-1.085 2.17 3.1 3.1 0 0 1-1.4 1.32l.311.307-3.258 3.258a31.656 31.656 0 0 1-3.412 2.945v.158zm-45.759-4.959v-.313l-.309.313zm1.707-.776a2.007 2.007 0 0 0 1.087-.931 3.076 3.076 0 0 1 .929-1.089 2.534 2.534 0 0 0-1.163.856c-.258.361-.54.749-.851 1.165zm6.826-52.274v.307h.465v-.307zm1.24 41.568c.1.1.207.053.311-.156a.306.306 0 0 0-.156-.463c.1.207.051.311-.156.311s-.204.106.002.309zm4.81-1.707a.341.341 0 0 1-.078-.387c.051-.156-.027-.18-.231-.076a.317.317 0 0 1-.08.232.31.31 0 0 0-.078.231zm.309-.932c.1 0 .207-.1.311-.307a.312.312 0 0 0-.156-.469.737.737 0 0 1-.233.545c-.155.157-.128.234.079.234zm7.6-13.958v-.155l.309-.156a.6.6 0 0 1 .08-.389q.074-.071-.08-.387a.275.275 0 0 0-.309.311c0-.1-.1-.255-.309-.464a.274.274 0 0 0 .309-.311c0-.209.156-.311.467-.311.1.21.1.311 0 .311s-.1.1 0 .311a1.064 1.064 0 0 1 .465.078 1.078 1.078 0 0 0 .465.075.244.244 0 0 1-.076-.309c.049-.1.022-.155-.078-.155 0 .1-.1.155-.311.155a.9.9 0 0 1-.156-.62c.309.1.44.053.387-.156a.375.375 0 0 1 .233-.466.9.9 0 0 1-.62-.152 1.3 1.3 0 0 1 .545-.855 2.323 2.323 0 0 0 .7-.7 1.59 1.59 0 0 0-1.549 1.083q-.467 1.087-.931 2.018a20.678 20.678 0 0 0-2.638 4.034q-1.087 2.17-2.325 4.341c-.1 0-.156.029-.156.076s-.055.08-.158.08a2.6 2.6 0 0 1-.463 1.009 2.553 2.553 0 0 0-.467 1.006 1.246 1.246 0 0 0 .854-1.084 1.268 1.268 0 0 1 .7-1.087c.207.52.18.88-.078 1.087a1.788 1.788 0 0 0-.544 1.084.922.922 0 0 0 .622-.62 1.331 1.331 0 0 1-.542 1.162c-.364.26-.44.7-.233 1.32a1.471 1.471 0 0 0 .542-.465 1.558 1.558 0 0 1 .542-.466v-1.072a.529.529 0 0 0 .467-.238 3.853 3.853 0 0 1 .467-.542.139.139 0 0 0-.158-.154c-.1 0-.1-.1 0-.311.725-.412 1.011-.643.854-.7a4.278 4.278 0 0 0-1.007-.076 3.132 3.132 0 0 1 .776-1.476 1.13 1.13 0 0 0 .309-1.313c-.207.411-.416.8-.62 1.162a2.139 2.139 0 0 1-.929.851 4.517 4.517 0 0 1 .7-1.238 5.674 5.674 0 0 0 .7-1.087h.622a.273.273 0 0 0 .309-.313c.207.625.467.931.776.931q.617-.927 1.242-1.858a7 7 0 0 0 .929-2.174c0-.1.156-.157.465-.157-.1-.2-.078-.307.078-.307s.18-.1.08-.311c-.52-.516-.854-.516-1.011 0a1.2 1.2 0 0 1-.851.931c0-.2.051-.284.156-.233s.1-.022 0-.231c-.209-.1-.311-.08-.311.076s-.1.184-.309.076a4.976 4.976 0 0 0 .62.544 3.642 3.642 0 0 0 .62.389c-.209-.1-.26-.049-.156.156s.051.311-.156.311c-.1 0-.153-.08-.153-.231s-.1-.18-.311-.08c.1.207.025.336-.233.387s-.387.028-.387-.076c.309-.311.309-.567 0-.776.1.309.051.465-.156.465a.621.621 0 0 0-.465.156 5.7 5.7 0 0 1 1.551-2.483.139.139 0 0 1-.156.156c-.1 0-.1.1 0 .309h.156a.462.462 0 0 1 .153.311zm-6.2 11.324c0-.207.049-.285.154-.231s.1-.024 0-.235a.356.356 0 0 0-.387.235c-.054.153.021.232.232.232zm.463-1.551a.136.136 0 0 1-.153.155c.207.1.284.053.233-.155s-.081-.205-.081.001zm1.089-1.243c-.211 0-.286.056-.235.156s-.025.1-.231 0a2.968 2.968 0 0 0 .231-.62 1.367 1.367 0 0 1 .389-.619 1.75 1.75 0 0 1-.076.538 1.644 1.644 0 0 0-.08.547zm1.24-1.858a1.045 1.045 0 0 0 .929-.469c-.413.1-.569.08-.465-.076a.982.982 0 0 0 .156-.544h-.467a.963.963 0 0 1-.154.544.5.5 0 0 0 0 .547zm.465-2.483a.271.271 0 0 0 .311.307v-.307zm.156 1.238a.534.534 0 0 1 .387-.155c.156 0 .285-.1.389-.307-.209-.1-.311-.209-.311-.313s-.1-.1-.309 0c.1.208.049.336-.156.389s-.211.185-.002.388zm1.551-6.979l-.544.544a.95.95 0 0 0-.231.7c.307-.102.564-.517.778-1.242zm.776 1.4c0 .1-.027.155-.08.155s-.076.051-.076.156c.1 0 .156.028.156.075s.1.029.309-.075a.274.274 0 0 0-.311-.313zm.465-.156v.156l-.156-.156zm1.551-3.254c.1.307.078.491-.078.538a.367.367 0 0 0-.231.389.73.73 0 0 0 .618-.776c-.209-.001-.311-.051-.311-.153zm0 1.549a.449.449 0 0 1 .309-.156c.1 0 .156-.1.156-.311a.412.412 0 0 0-.467.466zm.931-3.725a.678.678 0 0 0-.387.469 1.407 1.407 0 0 1-.389.618 4.538 4.538 0 0 0 1.163-1.318c.256-.465.542-.956.854-1.476h-.465a.767.767 0 0 1-.389.7c-.262.154-.389.49-.389 1.006zm-.467-1.238a.138.138 0 0 1-.156.156c-.1 0-.1.051 0 .151h.313c-.001-.206-.056-.309-.158-.309zm0 2.79c-.207.311-.207.491 0 .544s.311-.129.311-.544zm0 1.551a.426.426 0 0 0 .62.079 1.022 1.022 0 0 1 .622-.231c-.1-.208-.182-.284-.233-.237a3.184 3.184 0 0 0 .233-.232c-.415 0-.491-.051-.233-.155s.282-.256.078-.464a.745.745 0 0 0-.311.076.624.624 0 0 1-.309.082c.1.307.025.491-.233.542s-.338.229-.235.536zm.62-2.172c.518-.1.8-.336.854-.7a.822.822 0 0 1 .7-.7v-.62c0-.208-.1-.26-.309-.156a.491.491 0 0 1-.311.463c-.207.1-.207.313 0 .62a1.467 1.467 0 0 0-.935 1.092zm1.4-.155a.411.411 0 0 0-.467-.463v.463zm.465-3.565v-.156h-.311l.156.156zm.465 0c-.309-.412-.231-.725.233-.932s.489-.465.078-.776a3.235 3.235 0 0 0-.62 1.087c-.213.514-.109.723.306.619zm0 .462v-.156h-.309v.156zm.778-2.014a.32.32 0 0 0-.078-.231.313.313 0 0 1-.078-.235h-.158v.467zm12.253 36.609l.153-.156-.309-.157c-.004.207.045.311.152.311zm10.391-12.876c0 .52-.154.827-.463.931s-.467.411-.467.927a3.807 3.807 0 0 0 1.007-.7 1.572 1.572 0 0 0 .389-1.163zm.156 3.566a.364.364 0 0 1 .233-.387.356.356 0 0 0 .233-.389c-.415-.1-.647-.076-.7.08s-.182.129-.387-.08a.332.332 0 0 1-.078.235.305.305 0 0 0-.078.233q.307-.313.387 0a.362.362 0 0 0 .385.306zm.776-1.707a.412.412 0 0 0-.465-.464c.1.313.025.464-.231.464s-.389.109-.389.311c.309.1.489.029.542-.231s.229-.287.538-.082zm-.618.78h.154v-.155h-.154zm.774-3.57c.722-.1 1.032-.62.931-1.551a1.509 1.509 0 0 0 1.474-1.087 2.169 2.169 0 0 1 1.007-1.4q-.31-.93.389-1.162a.78.78 0 0 0 .544-1.009h-.467a9.56 9.56 0 0 1-2.016 3.1 7.753 7.753 0 0 0-1.868 3.107zm3.412-.931a.746.746 0 0 1 .158-.389c.1-.156.049-.283-.158-.387a.527.527 0 0 1-.231.467q-.233.157-.387 0c.2 0 .309-.206.309-.622a1.879 1.879 0 0 0-1.085 1.162 2.48 2.48 0 0 1-1.087 1.318v-.463a.369.369 0 0 0-.389.307 2.977 2.977 0 0 1-.231.624c.2-.1.309-.051.309.152a.636.636 0 0 0 .156.469.889.889 0 0 1 .62-.313.89.89 0 0 0 .622-.307.307.307 0 0 0-.467-.156c-.209.1-.309.051-.309-.156a3.948 3.948 0 0 1 2.164-1.708zm-2.169.156c.1.207.076.335-.078.386s-.182.18-.078.389c.2.1.334.027.387-.233a.446.446 0 0 0-.237-.544zm.776 1.238c.309 0 .463-.1.463-.307-.207 0-.309.051-.309.156a.134.134 0 0 1-.161.149zm.929-3.1a2.38 2.38 0 0 0-.62.467.385.385 0 0 0 0 .62.492.492 0 0 0 .311-.465.889.889 0 0 1 .303-.625zm.465-.776c.1.207.024.34-.231.387s-.284.184-.078.389q.154-.62.231-.153c.053.309.18.413.389.309a.888.888 0 0 0-.318-.935zm.158-4.033c.1.213.1.311 0 .311s-.106.1 0 .313c.411 0 .516-.208.309-.624zm0 5.74c.2 0 .309-.053.309-.156-.216 0-.316.053-.316.153zm.462-3.1c.1.209.1.311 0 .311a.136.136 0 0 0-.153.154c.309.211.467.055.467-.465zm1.862-3.876a8.952 8.952 0 0 0-1.549 2.325c.411-.1.594-.311.54-.618s.131-.468.544-.468a.559.559 0 0 1 .156-.7.669.669 0 0 0 .301-.544zm-.931 3.413a3.932 3.932 0 0 1-.387.619 1.253 1.253 0 0 0-.231.776c1.134 0 1.86-.36 2.169-1.087s.622-1.5.931-2.328a2.692 2.692 0 0 1-.776-.775 4.974 4.974 0 0 0-.542 1.164 2.9 2.9 0 0 1-.7 1.162c-.1 0-.156-.1-.156-.307-.209 0-.336.051-.389.151s-.182.156-.387.156c.2.208.233.364.078.468s-.131.152.078.152a.44.44 0 0 1 .156-.309c.096-.107.15-.056.15.153zm7.912-13.964a1.885 1.885 0 0 1 .309-1.083 1.034 1.034 0 0 0 0-1.087 2.344 2.344 0 0 0 .776-1.24 1.626 1.626 0 0 0 0-1.4c.311 0 .387-.076.233-.233s-.131-.283.078-.387c0 .1.1.155.311.155a2.141 2.141 0 0 1-.08-.931 1.506 1.506 0 0 0-.078-.775c.311.208.413.156.311-.156s0-.465.311-.465c-.209-.207-.26-.387-.156-.542s.051-.335-.156-.544q-1.087 2.176-2.094 4.5a18.094 18.094 0 0 0-1.318 5.43c.2.1.309.411.309.931a6.769 6.769 0 0 1 .544-.855c.256-.36.282-.645.078-.851.2.1.282.024.231-.236s.074-.336.385-.236zm.465-10.544a2.141 2.141 0 0 0 0 1.163q.153.384-.309.851a1.157 1.157 0 0 1 .078 1.089.7.7 0 0 0 .231.927q.153-.463.467-1.471a1.41 1.41 0 0 0-.158-1.476c-.1 0 0-.156.311-.463l-.311-.62zm.931.927c0 .213.051.311.154.311s.158.1.158.313c-.209 0-.26.051-.158.151.413 0 .518-.256.311-.776zm6.514 18.461c.2.1.309.027.309-.233s-.1-.336-.309-.231zm.465-.464a.137.137 0 0 1 .156-.156c.1 0 .1-.1 0-.311a.355.355 0 0 0-.387.236c-.059.145.018.222.225.222zm8.377-7.134c-.622 0-.931.26-.931.775.405-.006.718-.266.925-.781zm.154 2.482v-.624q0-.307.467-.307a1.67 1.67 0 0 0-.076-.62c-.055-.1-.029-.26.076-.469q-.313 0-.467.469c.313.1.336.283.078.538s-.438.288-.54.082c0 .1-.1.155-.313.155a1.1 1.1 0 0 1-.153.927 2.2 2.2 0 0 1 .922-.157zm.313-3.882a1.708 1.708 0 0 0 .154.776 2.712 2.712 0 0 1 .387-.307.522.522 0 0 0 .235-.468.344.344 0 0 1-.389.08 1.32 1.32 0 0 0-.395-.088zm.465 3.414a.357.357 0 0 1 .231-.386c.158-.054.18-.181.08-.389a.255.255 0 0 0-.235.156c-.051.1-.182.158-.387.158-.007.403.096.559.304.454zm.62-4.652c0 .207-.027.311-.078.311s-.027.1.078.307c.309.1.465-.047.465-.462-.207.1-.309.1-.309 0a.138.138 0 0 0-.163-.163zm2.016-1.089c-.1-.2.1-.671.62-1.394a1.108 1.108 0 0 0-1.085.618 2.017 2.017 0 0 1-.931.933c0 .416.156.618.465.618.2-.523.511-.782.922-.782zm2.483 6.983a.365.365 0 0 1 .311-.387c.2-.051.2-.131 0-.235-.318.304-.424.513-.318.616zm.62.153a.139.139 0 0 1-.156.156z"/><path d="M184.698 75.839l1.394-1.242a.366.366 0 0 0-.231-.389c-.156-.047-.027-.076.389-.076 0-.2-.1-.285-.311-.232s-.26-.024-.156-.231c.309-.313.467-.414.467-.313.2-.1.309-.076.309.076s.1.184.309.08a.782.782 0 0 1 .7-.542.792.792 0 0 0 .7-.544c-.1-.2-.309-.231-.622-.076s-.309.232 0 .232c0 .208-.076.288-.231.233s-.182-.18-.078-.389c-.209-.1-.309-.076-.309.08s-.1.18-.311.076c0-.1-.1-.156-.311-.156l.465-.62c.207 0 .235.053.078.157s-.129.26.08.463a1.161 1.161 0 0 0 .464-.387.518.518 0 0 1 .467-.233 1.675 1.675 0 0 1 1.316-1.55 3 3 0 0 0 1.785-1.24c0-.1-.053-.131-.156-.08a.25.25 0 0 1-.309-.076 1.762 1.762 0 0 1-.311.464 1.758 1.758 0 0 0-.311.467.7.7 0 0 0-.542-.08c-.156.056-.233-.025-.233-.231.209-.209.336-.209.389 0s.178.26.387.155c-.209-.209-.131-.411.233-.62a4.03 4.03 0 0 0 .854-.625c-.209-.2-.309-.358-.309-.462l1.085-1.245h.7c.258 0 .284-.1.078-.307.1-.209.231-.285.387-.231a1.294 1.294 0 0 0 .389.075c0 .1-.053.131-.156.076s-.153.028-.153.235a.5.5 0 0 0 .618-.155 1.059 1.059 0 0 0 .311-.776c-.209.209-.311.365-.311.464-.207-.1-.207-.309 0-.62a1.342 1.342 0 0 0 1.087-.62c.1 0 .1.025 0 .076s-.053.08.156.08c.309 0 .387-.051.231-.156s-.129-.206.078-.311c.1 0 .258.1.467.311a3.719 3.719 0 0 1 1.24-.467c0-.2-.053-.284-.156-.234s-.153.029-.153-.076a.61.61 0 0 0-.622.465c-.209-.2-.153-.36.156-.465s.467-.256.467-.466c.2 0 .334.055.387.155s.178.055.389-.155c-.211-.1-.133-.285.231-.541a1.759 1.759 0 0 1 1.009-.387v.463c.1 0 .256-.1.465-.311 0-.2-.1-.256-.311-.152s-.26.051-.154-.156c.207 0 .309-.024.309-.082s.1-.076.311-.076v.313a.36.36 0 0 0 .387-.238c.051-.151.18-.178.389-.076a1.156 1.156 0 0 1 .618-1.007 1.846 1.846 0 0 1 1.4-.232c.1-.1.049-.156-.156-.156a2.915 2.915 0 0 1 1.629-.931 17.939 17.939 0 0 0 1.938-.62v.151a3 3 0 0 1 2.016-.231c.725.156 1.447.339 2.174.542a7.791 7.791 0 0 0 1.938.078 7.114 7.114 0 0 1 2.249.235 8.072 8.072 0 0 1 3.8 1.938 14.326 14.326 0 0 0 3.181 2.247v.467a4.249 4.249 0 0 1 2.249.852 7.2 7.2 0 0 0 2.094 1.164 3.25 3.25 0 0 0 .465 1.707c.311.52.62 1.034.931 1.55a20.637 20.637 0 0 1-2.172 5.12q-1.4 2.328-2.638 4.654a1.719 1.719 0 0 1-.387 1.707 2.145 2.145 0 0 0-.542 1.707c.207-.209.309-.364.309-.469.207.1.256.209.156.313a.626.626 0 0 0-.156.463.741.741 0 0 0-.7.469 5.239 5.239 0 0 0-.389 1.007 2.5 2.5 0 0 0-.078 1.083c.049.364.127.545.231.545a6.161 6.161 0 0 1-.618.542c-.211.157-.311.493-.311 1.009.207.1.282.1.231 0a.251.251 0 0 1 .08-.309c.2.1.231.26.078.465a.947.947 0 0 0-.235.463h-.472c.1.213.078.34-.078.393a.358.358 0 0 0-.233.387l.622.465a30.856 30.856 0 0 0-1.553 7.986 20.9 20.9 0 0 0 .931 8.148 9.15 9.15 0 0 0 5.43-3.107 1.536 1.536 0 0 0 1.24-1.238c.622.1.956-.1 1.009-.62s.389-.776 1.009-.776l-.776.463c0 .209.156.313.464.313-.1.207-.231.26-.387.156s-.182 0-.078.307c-.413 0-.62.26-.62.776-.211.1-.287.08-.233-.076s-.027-.18-.233-.08a2.169 2.169 0 0 1-.853 1.32 15.307 15.307 0 0 1-1.471 1.011c-.1.1.049.152.464.152.1 0 .154-.152.154-.465h.622c.207 0 .256-.156.154-.463a4.3 4.3 0 0 0 2.482-1.555 7.051 7.051 0 0 1 2.018-1.859q3.564-4.964 7.288-9.541a78.862 78.862 0 0 0 6.826-9.851q0-.3-.153-.387c-.106-.049-.156-.18-.156-.389a.855.855 0 0 0 1.085.158c-.309.518-.209.618.311.311-.1.307-.26.364-.465.151v.776q-.933-.617-.931.931.307-.617.231 0c-.051.415-.182.624-.387.624a.244.244 0 0 0 .156.231c.1.051.049.076-.156.076 0 .208.1.26.311.156s.256-.051.153.158a2.684 2.684 0 0 0-1.316 1.318c-.364.672-.7 1.316-1.011 1.939a2.427 2.427 0 0 0-1.549 1.94 2.475 2.475 0 0 1-1.863 1.938 27.348 27.348 0 0 1-2.947 4.886q-1.71 2.247-3.412 4.576.774.157 1.24-.855c.311-.671.723-.9 1.242-.7.1 0 .1-.1 0-.311a.642.642 0 0 1 0-.62h.62c.2-.1.231-.208.078-.311s-.133-.2.078-.309c.2 0 .309.053.309.156a9.108 9.108 0 0 0 2.714-2.562 32.473 32.473 0 0 0 2.1-3.332 4.025 4.025 0 0 0 1.7-2.016 25.862 25.862 0 0 1 1.087-2.482 9.909 9.909 0 0 0 2.327-2.563 26.445 26.445 0 0 0 1.705-3.177 2.975 2.975 0 0 1-.465 2.79 4.777 4.777 0 0 0-.931 2.95c0 .1.049.1.156 0q-.931 2.17-2.172 4.654a41.379 41.379 0 0 0-2.018 4.652 1.7 1.7 0 0 0-.854.931c-.153.411-.336.88-.54 1.4-.211 0-.313.029-.313.076s-.1.08-.309.08a2.623 2.623 0 0 1-1.085 1.707.563.563 0 0 1 0 .775c.1.209.2.209.309 0s.207-.208.309 0a9.4 9.4 0 0 1-3.412 3.877 5.8 5.8 0 0 1-3.1 4.343q-2.484 1.247-4.965 2.639-7.755.927-12.642-2.407a15 15 0 0 1-6.281-9.382c.1-.209.1-.336 0-.389s-.053-.127.156-.231c0-.1-.1-.156-.311-.156a27.707 27.707 0 0 1-.231-4.81 48.656 48.656 0 0 0-.08-4.807.276.276 0 0 0 .311-.313 1.369 1.369 0 0 1 .156-.618q-2.327 2.793-4.81 5.272a47.677 47.677 0 0 0-4.652 5.432l-3.878 4.034a40.436 40.436 0 0 0-4.188 2.479 16.2 16.2 0 0 1-3.025 1.707 9.39 9.39 0 0 1-3.258.7 19.889 19.889 0 0 1-4.73-.544 3.073 3.073 0 0 1-1.94-1.476 10.1 10.1 0 0 0-1.471-1.938 17.442 17.442 0 0 1-2.174-5.5 10.533 10.533 0 0 1 .156-5.972l-.309-.313a.628.628 0 0 0-.156.469c-.209.1-.26.076-.156-.08s.051-.233-.156-.233c.207-.1.284-.359.233-.776s.127-.567.542-.463c0 .207-.027.307-.078.307s-.129.1-.231.313c.516.1.72-.1.62-.62a.7.7 0 0 1 .618-.932c-.207-.208-.231-.364-.076-.469s.178-.256.076-.462c-.1 0-.129.051-.076.156s.025.156-.078.156c-.207 0-.309-.207-.309-.624a1.045 1.045 0 0 1 .776 0c0-.2-.078-.307-.235-.307s-.129-.1.08-.311c.309 0 .387.051.231.156s-.131.207.078.311c.207 0 .309-.26.309-.78 0-.1-.129-.127-.387-.076s-.389-.022-.389-.231c.313-.209.569-.209.776 0 .209-.1.209-.18 0-.231s-.258-.18-.153-.389a1.165 1.165 0 0 0 1.4-1.011 3.647 3.647 0 0 1 .62-1.472c0-.207.08-.256.233-.155a.507.507 0 0 0 .542 0v-.311q0-.307-.233-.152c-.154.1-.287.1-.387 0a.491.491 0 0 0-.311.463c0 .208-.1.26-.309.155.1 0 .18-.079.231-.231s-.025-.235-.231-.235a1.95 1.95 0 0 1 .853-.465.978.978 0 0 0 .7-.776c-.311-.1-.414-.463-.311-1.087a.623.623 0 0 1 .156-.463.194.194 0 0 1 .311 0v-.62a3.116 3.116 0 0 1 .62-.235c.2-.049.309-.281.309-.7.207-.1.311-.08.311.076s.1.184.311.08c.2 0 .231-.053.078-.156s-.182-.209-.078-.313c-.211-.1-.311-.075-.311.08s-.1.18-.311.078l.467-.62v.155h.156v-.311l1.394-1.24c.1.516.362.6.776.231a1.078 1.078 0 0 0 .311-1.318.387.387 0 0 0 .62 0c.207-.209.414-.411.62-.62 0-.207-.1-.26-.309-.156s-.26.051-.154-.156a1.345 1.345 0 0 0 .929-.465v.155h.309v-.311zm-10.7 20.786c.207.1.311.053.311-.156s-.1-.256-.311-.156zm.467-.931a.549.549 0 0 1 .076-.618.435.435 0 0 0-.076-.624 1.426 1.426 0 0 1-.156.624.5.5 0 0 0 .151.618zm.309-1.707c-.1-.1-.078-.283.078-.542s.129-.284-.078-.076c0 .207-.1.26-.309.156-.005.411.098.566.304.462zm.154-1.394a566.63 566.63 0 0 1 2.329-3.958 15.785 15.785 0 0 0 1.7-3.8q-1.084 2.171-2.169 3.952a23.487 23.487 0 0 0-1.865 3.806zm2.174.931c.207.1.334.076.387-.08a.356.356 0 0 0-.078-.389.626.626 0 0 1-.465.156.448.448 0 0 0 .156.313.443.443 0 0 1-.309.151c-.1 0-.158.1-.158.311h-.158a1.391 1.391 0 0 1-.233.7c-.153.26-.078.44.233.541a1.666 1.666 0 0 0 .465-1.24h-.154l.154-.156a.137.137 0 0 0 .156.156zm1.551-2.176a1.383 1.383 0 0 1 .156-.62.509.509 0 0 0-.156-.618.657.657 0 0 1-.389.542c-.26.158-.284.285-.078.389a3.657 3.657 0 0 0-.62.932 1.018 1.018 0 0 0 0 1.082c-.1-.411.1-.718.62-.931v-.62c-.009-.202.151-.255.462-.155zm.618-8.838q-.31-.313-.387-.079a.689.689 0 0 1-.387.386c.311.313.413.469.311.469zm-.463 7.6c.207 0 .387-.156.542-.465a.618.618 0 0 0-.08-.78 1.135 1.135 0 0 1-.387.469c-.157.105-.184.365-.08.777zm.62-7.911c0-.1.022-.157.078-.157s.078-.051.078-.155h-.313v.313zm1.86-.776a10.676 10.676 0 0 0-1.165 1.394 2.7 2.7 0 0 0-.54 1.552 7.824 7.824 0 0 1 .776-1.472c.305-.465.618-.953.925-1.473zm-1.4 6.667h-.156v.157h.156zm0-.152a9.237 9.237 0 0 0 2.249-3.1 8.363 8.363 0 0 1 2.4-3.107 3.483 3.483 0 0 1 1.549-1.858 2.75 2.75 0 0 0 1.242-2.327h-.309q-2.64 3.568-5.276 6.668a4.513 4.513 0 0 1-.929 1.938 4.524 4.524 0 0 0-.926 1.787zm.467-6.672c.1-.1.078-.2-.078-.311s-.233-.047-.233.156a.141.141 0 0 1 .156.155c-.001.105.05.105.155.001zm35.366-12.406v-.469a.914.914 0 0 0-.622-.076 2.473 2.473 0 0 1-.618.076 1.219 1.219 0 0 1 .154-.773h-1.551c0 .518-.154.773-.467.773.207-.2.235-.282.078-.231s-.231-.025-.231-.231a4.352 4.352 0 0 0-2.094.462 8.585 8.585 0 0 1-2.1.776c-.207.1-.231.185-.078.238s.131.127-.076.231c-.1-.311-.233-.336-.387-.08s-.389.287-.7.08a14.11 14.11 0 0 1-2.636 2.094q-1.4.853-2.871 1.782a21.8 21.8 0 0 0-2.792 2.1 8.912 8.912 0 0 0-2.091 2.714 1.417 1.417 0 0 0-1.089.156 2.075 2.075 0 0 0 .08.465c.051.207.022.311-.08.311-.207 0-.284-.051-.231-.155s-.025-.156-.231-.156a4.173 4.173 0 0 1-1.163 2.325 9.178 9.178 0 0 1-2.1 1.4q-3.107 4.347-5.741 8.842a65.734 65.734 0 0 0-4.652 9.775c0 .307.049.491.156.542s.051.18-.156.389c.207-.1.284-.054.231.151s-.025.26.078.156a8.541 8.541 0 0 0 2.173-1.163 4.486 4.486 0 0 1 2.169-.852 2.539 2.539 0 0 1 .854-1.162 6.367 6.367 0 0 1 1.32-.7 4.131 4.131 0 0 0 .231-.545c.053-.151.235-.18.544-.076a1.843 1.843 0 0 1 .929-1.087.958.958 0 0 1-.465 1.318c-.518.26-.774.544-.774.855a5.308 5.308 0 0 0-1.865 1.165 2.011 2.011 0 0 1-1.7.694c-.1.418-.311.649-.62.7a1.377 1.377 0 0 0-.776.389 1.061 1.061 0 0 0 1.24-.155 6.129 6.129 0 0 0 .776-.933q0 .313.62.313a4.895 4.895 0 0 1 1.862-1.4 8.125 8.125 0 0 0 2.016-1.242 36.239 36.239 0 0 1 5.739-6.205 1.66 1.66 0 0 1 .387-1.087.751.751 0 0 1 .853-.307 4.93 4.93 0 0 1 1.4-1.862 6.485 6.485 0 0 1 2.636-2.638 8.749 8.749 0 0 1 1.32-2.327 5.44 5.44 0 0 1 1.783-1.551c.1 0 .051-.256-.156-.775a.669.669 0 0 0 .542-.307.563.563 0 0 0 .078-.625 2.115 2.115 0 0 0 .931-.851 4.133 4.133 0 0 1 .62-.851h-.156a.135.135 0 0 1-.154-.155l.309-.311.311.156a7.325 7.325 0 0 1 1.085-1.627 4.574 4.574 0 0 0 .931-1.938c.1 0 .258-.1.465-.313 0 .209.051.313.158.313a4.37 4.37 0 0 1 1.471-2.251 2.492 2.492 0 0 0 1.007-2.252.656.656 0 0 0 .622 0c.1-.2.1-.282 0-.231s-.156-.025-.156-.231c.207.1.285.076.233-.08s.025-.233.233-.233c0 .313.049.417.156.313l.309-.931.153.155a.247.247 0 0 1 .156-.231c.1-.053.051-.133-.156-.238 0 .1-.024.158-.076.158s-.078-.053-.078-.158c.207-.2.36-.256.467-.151s.309.053.618-.156c-.1.208-.1.336 0 .387s.1.18 0 .389c-.1 0-.156.025-.156.076s-.051.08-.154.08c0-.209-.053-.311-.156-.311a.847.847 0 0 1-.311.386c-.1.053-.156.18-.156.389h-.153a.659.659 0 0 1-.387.542c-.26.156-.286.336-.078.544.2 0 .282-.08.231-.236s.024-.284.233-.389a1.463 1.463 0 0 1-.387.931c-.26.313-.235.573.078.776a1.074 1.074 0 0 0-.235.544c-.053.26-.18.286-.387.076.207.108.309.029.309-.231s-.051-.389-.154-.389c-.209.209-.442.469-.7.776a3.9 3.9 0 0 1-.852.776v-.156l-.464.467a.242.242 0 0 0 .309.075c.1-.047.156.029.156.233-.209.211-.387.391-.542.542a1.753 1.753 0 0 0-.389.7c.207.209.333.209.389 0s.078-.207.078 0a15.384 15.384 0 0 1-1.009 1.476c-.365.462-.751.955-1.165 1.471a.632.632 0 0 1 .158-.464.645.645 0 0 0 .156-.469 9.331 9.331 0 0 0-.622.7c-.209.26-.156.494.156.7-.209 0-.338.051-.387.152s-.182.057-.389-.152c.1.516-.078.751-.542.7s-.7.131-.7.544c.2.1.334.076.387-.078s.18-.178.389-.08a1.753 1.753 0 0 1-.931.62.252.252 0 0 1 .156-.231c.1-.049.049-.076-.156-.076-.209.207-.26.618-.156 1.238.207.1.336.08.389-.076s.076-.127.076.076a1.68 1.68 0 0 0-.62.775c0-.306-.053-.463-.156-.463a4.084 4.084 0 0 0-.62.852c-.207.362-.207.542 0 .542q-.78 1.246-1.785 2.558a21.056 21.056 0 0 1-1.783 2.1c-.207 0-.338-.049-.387-.157s-.182-.1-.389 0a.137.137 0 0 1-.156.157c-.1.207-.078.339.078.387s.129.08-.078.08c-.207.1-.287.076-.231-.08s.025-.232-.078-.232a2.67 2.67 0 0 1-.156.776c.207-.1.311-.053.311.156a.622.622 0 0 1-.156.463q-.313-.617-.7 0c-.26.417-.491.417-.7 0a.644.644 0 0 1-.156.469v.156c-.209.209-.364.307-.467.307s-.26.1-.465.313a.614.614 0 0 0 .156.463c.1.1.049.208-.156.313h.156c0 .1.1.156.309.156 0-.209-.053-.311-.154-.311s-.106-.1 0-.313c0 .1.076.133.231.08s.233.025.233.234a.7.7 0 0 0-.389.463.363.363 0 0 1-.387.311 1.05 1.05 0 0 1-.311.776.5.5 0 0 1-.618.157.632.632 0 0 0 .309-.62c0-.313-.1-.468-.309-.468a1.487 1.487 0 0 1-.622 1.244c-.413.307-.829.618-1.24.927a1.425 1.425 0 0 0 .311 1.242c-.211 0-.311.053-.311.156s-.1.153-.311.153v-.153l-.154-.156c-.106.208-.233.26-.387.156s-.182 0-.08.309c.1.1.207.08.311-.076s.2-.129.309.076c-.207.415-.364.467-.465.156a.636.636 0 0 0 .156.469 12.863 12.863 0 0 1 2.169-2.02c.725-.515 1.5-1.087 2.329-1.707 0 .209-.053.313-.156.313s-.156.1-.156.307a2.669 2.669 0 0 0 1.162-1.783q.233-1.163 1.785-1.32 2.791-3.254 5.508-6.59a50.626 50.626 0 0 0 4.885-7.213c-.209 0-.311-.051-.311-.156a25.994 25.994 0 0 1 2.094-3.721 13.152 13.152 0 0 0 1.785-4.034zm-34.282 10.393c.207-.1.309-.051.309.152-.1-.1-.1-.152 0-.152s.1-.1 0-.311h-.309zm.309 1.4h-.154v.156h.154zm0-.156v.156h.157v-.156zm.311 0v-.158h-.154v.158zm.156 22.644a1.4 1.4 0 0 0 1.24-.776 1.275 1.275 0 0 1-.7.235c-.36.05-.54.23-.54.537zm4.343-28.385a97.424 97.424 0 0 1-2.249 2.483 16.263 16.263 0 0 0-1.938 2.483.986.986 0 0 0 .62-.464.99.99 0 0 1 .622-.467 2.26 2.26 0 0 1 .618-1.085q.467-.467.776-.156c-.207-.411.025-.931.7-1.551s.953-1.04.851-1.247zm-3.879 2.483l.156.156a.137.137 0 0 1-.158-.16zm.776 1.707c.1.207.078.311-.078.311s-.182.1-.078.307c.1 0 .258-.2.467-.618zm1.242-3.1l-.156.156a.137.137 0 0 1 .157-.163zm2.169-.462c-.207 0-.414.256-.618.773a1.691 1.691 0 0 0 .619-.777zm.622-1.865c.1.309.025.493-.233.544s-.389.18-.389.387c.313.1.467.025.467-.235s.156-.332.465-.231v-.465zm0 4.189v.152h.154v-.152zm3.721-3.88q-.153.162-.154 0a.136.136 0 0 0-.156-.151 18.545 18.545 0 0 1-1.707 1.782 7.113 7.113 0 0 0-1.551 2.094 14.679 14.679 0 0 0 3.414-3.258v-.156a.437.437 0 0 0 .155-.318zm-3.254-.309c.2-.1.334-.08.387.076s.076.133.076-.076l-.154-.156a.276.276 0 0 1 .309-.311c.207 0 .258-.1.158-.309-.313-.1-.442-.051-.389.158s-.078.26-.387.151zm1.085-2.169c-.209-.208-.416-.156-.622.152s-.207.415 0 .311c.1-.311.18-.358.233-.156s.18.26.389.156zm.153 1.7c.1 0 .258-.1.467-.309h-.467zm.776-2.016c.1.209.051.289-.154.233s-.26.027-.156.232c.2.1.309.1.309 0s.1-.152.311-.152v-.313zm1.24.776a.913.913 0 0 0-.462-.776c0 .417-.211.569-.622.465 0 .213-.027.34-.078.389s-.027.182.078.387a.708.708 0 0 0 .389-.387 1.5 1.5 0 0 1 .387-.54c0 .302.103.457.309.457zm-.618-.932c-.1 0-.1-.051 0-.155a.319.319 0 0 0-.233.08c-.052.048.025.071.234.071zm0-.155a.446.446 0 0 0 .156-.307.446.446 0 0 1-.155.302zm2.483 1.244a1.224 1.224 0 0 0-.7.542.906.906 0 0 1-.851.389c0 .207-.055.336-.156.387s-.055.18.156.389a1.215 1.215 0 0 0 .463-.389.7.7 0 0 1 .622-.235c-.1-.411-.053-.645.153-.7a.366.366 0 0 0 .316-.387zm-1.4-4.81c.1.209.051.307-.153.307s-.211.057 0 .158l.153-.158c.207.213.258.237.156.08s0-.178.309-.08a.313.313 0 0 1 .08-.231.313.313 0 0 0 .078-.231.894.894 0 0 0-.62.151zm-.309 1.238c0 .313.049.469.156.469a.136.136 0 0 1 .153-.156q.154 0 0-.313zm2.481 28.854c-.1-.207-.233-.18-.387.076s-.131.34.076.235c0-.207.1-.207.311 0zm3.723-2.483c.2.1.311.053.311-.156s-.106-.255-.311-.156zm.311-31.488a1.329 1.329 0 0 0 .389.157c.049 0 .127-.157.231-.468zm4.032 24.353c-.1-.311 0-.464.311-.464 0-.411-.106-.567-.311-.467s-.287.231-.231.387-.027.184-.233.08c-.103.101.053.256.466.461zm1.551-2.483c-.1-.1-.1-.155 0-.155a.136.136 0 0 0 .156-.152.3.3 0 0 0-.231.076.333.333 0 0 1-.235.076.135.135 0 0 0-.154-.152.666.666 0 0 1-.311.539c-.209.156-.209.133 0-.076.2.1.311.076.311-.076s.051-.235.154-.235c.002.207.104.257.313.152zm.776-.62c-.1-.207-.076-.335.078-.386s.129-.129-.078-.232c0 .206-.076.283-.233.232s-.182.026-.078.231c.1 0 .156.029.156.08s.053.072.157.072zm-.076-.776c.256.1.334.053.231-.156-.1 0-.156-.024-.156-.076s-.1-.08-.311-.08v.469c-.101-.21-.021-.262.239-.159zm.7-1.087c-.1-.2-.078-.306.078-.306s.233-.054.233-.156c-.209-.1-.364-.078-.467.076s-.052.283.155.384zm4.034-5.117c.207.1.309.051.309-.156s-.1-.256-.309-.156zm.467-1.242a.261.261 0 0 1 .076.311c-.053.1-.027.156.078.156a.137.137 0 0 1 .156-.156.274.274 0 0 0-.312-.313zm1.549 23.888h-.464c0 .207.153.311.464.311zm.465-8.688a.784.784 0 0 0 .311-.932.752.752 0 0 1 .467-.927c-.211 0-.289-.1-.233-.311a.383.383 0 0 0-.233-.469c.1.213.051.26-.156.158s-.26-.049-.156.156c0 .723-.154 1.191-.465 1.394zm1.4-6.515v.155h-.157v.467h.157v-.156h.156v-.466zm.618-.62a.388.388 0 0 1 0-.62.928.928 0 0 0 .156-.931h-.309c.207.313.207.574 0 .776a1.512 1.512 0 0 0-.309 1.087c.2 0 .256-.08.154-.231s-.005-.183.304-.082zm1.4-16.752q-.313.777.465.311a.413.413 0 0 0-.465-.469zm.465 11.635c.1-.207.078-.364-.078-.467s-.284-.053-.387.156c.096-.001.25.103.458.31zm-.156 0h-.309v.307h.309zm.622-11.169a2.828 2.828 0 0 0 .929-1.242c-.309-.1-.491-.076-.542.08s-.18.18-.387.076a.525.525 0 0 1 0 .542.5.5 0 0 0-.006.539zm13.8 34.278a.421.421 0 0 0 .542-.076c.156-.156.129-.285-.076-.387a.542.542 0 0 1-.391.155c-.154 0-.181.102-.076.307zm.776-.62c.207.1.309.058.309-.156s-.053-.307-.156-.307c0 .1-.025.156-.076.156s-.078.103-.078.306zm.776-.931a.463.463 0 0 0-.309-.151c0 .208-.055.307-.158.307h.467z"/><path d="M297.623 57.691a18.619 18.619 0 0 0 .542 1.858c.156.416-.6.675-2.247.78a5.8 5.8 0 0 1-2.638-.624 29.236 29.236 0 0 0-8.764 5.041 63.134 63.134 0 0 0-6.437 6.441 86.964 86.964 0 0 1-5.894 7.055 60.623 60.623 0 0 0-5.741 7.215c.1.209.1.336 0 .389s-.1.18 0 .387a36.992 36.992 0 0 0-4.963 8.606 93.255 93.255 0 0 1-4.187 8.923c0 .1.156.155.464.155a5.581 5.581 0 0 0-1.474 2.4c-.26.878-.491 1.838-.7 2.87a4.551 4.551 0 0 0-1.242 1.551q-.313.157-.233 0a1.09 1.09 0 0 0 .078-.469c-.209 0-.309.057-.309.156a.46.46 0 0 1-.157.313c0 .1.053.131.157.076a.259.259 0 0 1 .309.08 17.349 17.349 0 0 1-1.32 3.565q-.854 1.71-1.627 3.414a25.088 25.088 0 0 0-1.318 3.645 10.47 10.47 0 0 0-.233 4.265 1.636 1.636 0 0 1-1.4.464 4.627 4.627 0 0 0-1.707 0c-.1-.208-.364-.335-.776-.387s-.673-.18-.776-.389c-.207.1-.54.024-1.007-.232s-.958-.544-1.476-.851q-.927-.623-1.86-1.245a3.261 3.261 0 0 1-1.24-3.256 155.976 155.976 0 0 1 3.258-18.612c-.209 0-.311-.053-.311-.156a3.552 3.552 0 0 0 .467-1.24c.1-.52.049-.827-.156-.932q1.547-8.221 3.567-16.054t4.188-15.589c.1-.207.078-.285-.078-.235s-.233-.024-.233-.231a.493.493 0 0 0 .311-.465 1.364 1.364 0 0 1 .156-.62 1.626 1.626 0 0 0-.931-.156.99.99 0 0 1 .078-.855 1.835 1.835 0 0 1 .62-.62c.256-.155.491-.307.7-.463a1.4 1.4 0 0 0 .467-.7 2.4 2.4 0 0 0 .7-.076 1.718 1.718 0 0 1 .542-.08.136.136 0 0 0 .153.155c.1 0 .158.1.158.312a2.217 2.217 0 0 1 2.094-.467 8.537 8.537 0 0 0 2.249.311.36.36 0 0 0 .231.389.357.357 0 0 1 .233.387 1.439 1.439 0 0 1 1.474.545 1.311 1.311 0 0 1 .387 1.162 5.953 5.953 0 0 1 1.009 3.49 18.492 18.492 0 0 1-.542 3.645 73.197 73.197 0 0 1-1.009 3.647 17.092 17.092 0 0 0-.7 3.49 3.751 3.751 0 0 0-.231.542 1.127 1.127 0 0 0 .078.7 38.256 38.256 0 0 1 3.876-5.272 44.369 44.369 0 0 0 3.878-5.121A10.322 10.322 0 0 0 269 67.54a8.5 8.5 0 0 1 3.025-3.025c-.1-.1-.182-.129-.233-.076s-.078-.025-.078-.231a.873.873 0 0 1 .62-.082c.207.057.207-.076 0-.387.1 0 .156.029.156.08s.051.075.153.075.1-.075 0-.231-.1-.285 0-.388c.313.1.467.077.467-.08a1.235 1.235 0 0 1 .156-.538l.311.307a12.237 12.237 0 0 1 3.645-3.645 25.9 25.9 0 0 1 4.574-2.4 3.737 3.737 0 0 1 1.784-1.162 15.605 15.605 0 0 0 2.1-.855h1.238a7.843 7.843 0 0 1 4.345.311 28.849 28.849 0 0 0 4.808 1.238c.2.213.414.444.622.7a1.644 1.644 0 0 0 .93.54zm-54.139 52.279c-.1-.1-.053-.285.158-.544s.2-.336 0-.231c-.211 0-.338.18-.389.544s.025.431.231.231zm2.794-5.272l-.156-.156h-.156v.156zm.156-1.555c0-.411.1-.563.309-.464-.207-.2-.26-.387-.156-.543s.051-.285-.154-.389c-.211.1-.286.389-.233.855s.123.644.234.536zm.154-11.475a.366.366 0 0 0 .389-.313c.051-.2-.027-.256-.233-.152 0 .1-.053.152-.156.152zm.467-2.483l.156-.156v-.157h-.156zm.309 8.377v-.156h-.309v.156zm.156-9.308c.207-.2.311-.36.311-.464-.209 0-.311.131-.311.387zm.467-.776a.431.431 0 0 1 .078-.545c.153-.151.076-.231-.233-.231.1.207.078.364-.08.467s-.078.201.233.301zm-.156-1.085v.153h.156v-.153zm6.05 13.8a3.761 3.761 0 0 0 2.016-2.483q.464-1.7 1.085-3.41a1.307 1.307 0 0 1-1.163.462c-.569 0-.8.26-.7.776h.154c-.207.209-.154.415.156.62-.309-.1-.44-.075-.387.08s-.078.231-.389.231a2.558 2.558 0 0 1-.309 1.862 3.073 3.073 0 0 0-.465 1.861zm1.707-4.81a.459.459 0 0 0-.313.156.459.459 0 0 1 .311-.156zm26.058-33.5a.86.86 0 0 1 .776-.931 1.1 1.1 0 0 0 .929-.931 21.728 21.728 0 0 0-4.032 2.714 37.506 37.506 0 0 0-3.258 3.178q-1.55 1.707-2.947 3.494a21.786 21.786 0 0 1-3.256 3.332c.1.309.1.52 0 .62a12.549 12.549 0 0 0-1.476 1.4 1.63 1.63 0 0 0-.387 1.707 13.661 13.661 0 0 0-3.1 2.794 27.633 27.633 0 0 0-2.247 3.259q-1.01 1.7-1.938 3.41a22.234 22.234 0 0 1-2.174 3.258 11.106 11.106 0 0 1-1.32 2.87q-.854 1.319-1.783 2.558a4.03 4.03 0 0 0 2.327-1.782 12.584 12.584 0 0 1 1.551-2.251c0-.2-.027-.282-.078-.231s-.076-.025-.076-.231c.411 0 .516-.256.309-.776.207 0 .334-.053.389-.156a1.284 1.284 0 0 1 .231-.313.271.271 0 0 1-.311-.307l5.585-8.686h.465q1.4-2.014 2.794-3.958t2.945-3.952a33.543 33.543 0 0 0 4.578-5.279 16.268 16.268 0 0 1 5.502-4.812zm-8.842 6.51a25.684 25.684 0 0 1 5.972-6.59 72.166 72.166 0 0 1 8.142-5.505.6.6 0 0 0-.7-.156.815.815 0 0 1-.7 0h-.156a3.235 3.235 0 0 1-1.783 1.082 18.67 18.67 0 0 0-1.938.624c-.1.412-.467.671-1.085.776 0 .209-.055.307-.156.307s-.055.1.156.313l-3.414 2.325a6.138 6.138 0 0 1-1.551 2.016q-.93.78-2.016 1.552c.1.21.1.311 0 .311s-.055.1.156.311a5.537 5.537 0 0 0-2.174 2.1 4.526 4.526 0 0 1-2.169 1.939v-.311c-.415 0-.6.131-.544.386s-.078.44-.387.544a1.478 1.478 0 0 1 0 .931c-.209 0-.336-.025-.389-.08a.608.608 0 0 0-.387-.076c.2.411.156.647-.156.7s-.416.182-.311.387c-.309 0-.491.08-.542.235s-.233.232-.542.232a.611.611 0 0 0 .156.465.709.709 0 0 0-.622.231 1.151 1.151 0 0 1-.465.389q.307.623 0 .855c-.209.156-.258.44-.154.851a.641.641 0 0 0-.467.156 1.866 1.866 0 0 1-.464.311q-.157-.311 0-.387c.1-.053.049-.025-.158.076a.629.629 0 0 0 .158.466c-.727.209-1.113.541-1.165 1.009s-.442.8-1.163 1.007a.833.833 0 0 1-.622.931c0 .206.051.284.156.231s.156-.025.156.076a2.436 2.436 0 0 1-.931.624.633.633 0 0 1-.309.776c-.309.206-.309.411 0 .62a.627.627 0 0 0-.467.156.627.627 0 0 1-.465.151 1.641 1.641 0 0 1-.231.856 3.762 3.762 0 0 1-.544.7c.207 0 .309.051.309.151q-.777 1.246-1.7 2.869a4.5 4.5 0 0 0-.62 3.183q-.777.313-.62 1.007c.1.465.2.909.309 1.32a1.66 1.66 0 0 0 .854-1.32 1.284 1.284 0 0 1 .853-1.162 19.673 19.673 0 0 1 3.878-6.979 40.041 40.041 0 0 1 2.094-3.414 11.961 11.961 0 0 1 2.869-2.947 27.8 27.8 0 0 1 2.792-4.032q1.548-1.876 3.256-3.581zm-8.686 5.43c.2.21.231.339.078.387a.364.364 0 0 0-.235.389c.207 0 .313-.075.313-.233s.1-.178.309-.075c-.21-.415-.366-.57-.466-.47zm1.549-1.4c-.309.1-.465.231-.465.389a1.269 1.269 0 0 1-.154.543 1.755 1.755 0 0 0 .618-.93zm.622-.776a.457.457 0 0 1-.311.156l.156.158h.156zm1.552-1.551c-.52 0-.674.157-.467.469.207 0 .311-.051.311-.156a.44.44 0 0 1 .155-.311zm4.963-5.89l-.467.307c.308.002.466-.098.466-.305zm13.961-8.068a.621.621 0 0 1 .465-.156.138.138 0 0 1-.156-.155h-.465a.445.445 0 0 0 .154.313zM349.74 88.867a1.989 1.989 0 0 0-.542 1.244 2.723 2.723 0 0 1-.542 1.394c.1.1.178.057.231-.156s.18-.256.389-.152a5.879 5.879 0 0 1-1.32 2.865 9.509 9.509 0 0 0-1.629 2.72 1.414 1.414 0 0 0-.929 1.083 2.383 2.383 0 0 1-.931 1.393c0 .213.156.314.467.314a3.1 3.1 0 0 1-.853 1.238 9.378 9.378 0 0 0-1.164 1.244.348.348 0 0 0 .389.076c.156-.049.18-.129.078-.232.207.1.18.258-.078.463s-.336.416-.231.624c-.1 0-.313-.156-.622-.469q-.313.313-.154.313c0 .1.049.131.154.076a.255.255 0 0 1 .309.08c-.207.722-.518 1.036-.929.931a8.342 8.342 0 0 0-.542.927 1.228 1.228 0 0 1-.853.624 1.434 1.434 0 0 1-.311 1.239c-.309.415-.569.52-.776.311-.207.1-.231.256-.078.464s.131.311-.078.311l.156.154a8.526 8.526 0 0 1-2.483 2.174c-1.031.62-1.965 1.187-2.792 1.707q-1.24.313-2.945.927a7.9 7.9 0 0 1-3.414.469 3.022 3.022 0 0 1-1.94.618 3.7 3.7 0 0 0-2.092.62 13.334 13.334 0 0 1-4.034-.542 14.337 14.337 0 0 1-3.1-1.4 30.267 30.267 0 0 1-2.794-1.938q-1.4-1.087-3.1-2.327l-3.412-5.428a59.792 59.792 0 0 0-4.81 4.421 24.824 24.824 0 0 1-4.265 3.565 15.078 15.078 0 0 1-5.119 2.094 20.9 20.9 0 0 1-7.212 0 21 21 0 0 1-4.343-3.952 13.65 13.65 0 0 1-2.636-6.127c0-.208-.055-.284-.156-.234s-.158.025-.158-.079a5.027 5.027 0 0 1 .078-.776c.053-.307-.078-.462-.387-.462a2.054 2.054 0 0 0 .387-1.245 1.594 1.594 0 0 0-.231-1.238 1.773 1.773 0 0 1 .776-.156 1.33 1.33 0 0 1-.387-.7c-.055-.26-.133-.6-.235-1.011a45.094 45.094 0 0 1 1.554-4.961 2.38 2.38 0 0 1-.387 2.09 2.646 2.646 0 0 0-.389 2.251c-.106 0-.131.051-.078.156s-.029.155-.233.155v.465q.307-.774.622 0c.1 0 .154-.36.154-1.087.2-.2.311-.154.311.155q.467-1.237.929-2.483a19.227 19.227 0 0 0 .776-2.634c.311-.1.467 0 .467.307a2.08 2.08 0 0 0 .542-1.7c-.053-.722.178-1.138.7-1.242a1.24 1.24 0 0 0-.156-.776c.207 0 .311-.053.311-.156s.1-.156.311-.156c0-.2-.029-.309-.078-.309h.231c0-.206-.076-.256-.231-.156s-.182.051-.078-.156a1.189 1.189 0 0 0 .853-.931 11.8 11.8 0 0 0 .078-1.4l.618-.307a.136.136 0 0 0-.154-.156q-.159 0 0-.313l.776-.62a.345.345 0 0 1-.078-.387c.049-.156-.027-.181-.233-.076.1-.1.18-.133.233-.08s.18.026.387-.076c-.1-.209-.1-.364 0-.469s.1-.256 0-.463a.6.6 0 0 0 .389-.08.622.622 0 0 1 .387-.078.7.7 0 0 0-.078-.311.649.649 0 0 1-.078-.307 2.882 2.882 0 0 0 .7-.544c.256-.256.282-.387.076-.387-.1-.2-.027-.256.233-.158s.438.058.542-.155c-.209 0-.309-.2-.309-.618a5.194 5.194 0 0 0 2.016-1.471 12.547 12.547 0 0 0 1.707-2.251q1.861-1.7 3.568-3.569t3.412-3.721a2.718 2.718 0 0 0 1.862-1.089 10.715 10.715 0 0 0-2.716 1.556 15.3 15.3 0 0 0-2.092 2.016c-.211-.516 0-.88.618-1.089s.878-.567.776-1.083a3.7 3.7 0 0 1-.7.544 1.213 1.213 0 0 0-.542.7 7.989 7.989 0 0 0-3.181 2.4 24.057 24.057 0 0 1-2.714 2.867c0 .211-.053.34-.154.391s-.107.129 0 .231c-.211-.206-.313-.231-.313-.079s-.1.237-.309.237a.616.616 0 0 0-.078-.389.322.322 0 0 1-.078-.235 1.218 1.218 0 0 0 .778-.156.494.494 0 0 1 0-.54c.1-.156.049-.18-.156-.08a.7.7 0 0 1 .465-.389c.207-.047.256-.178.153-.387a6.607 6.607 0 0 0 2.56-2.327 19.1 19.1 0 0 1 1.94-2.634 14.716 14.716 0 0 1 2.869-2.482 27.482 27.482 0 0 0 3.023-2.325c.414 0 .673.1.776.307a10.185 10.185 0 0 1 2.794-1.32 34.855 34.855 0 0 1 4.265-1.163q2.247-.46 4.188-.775a21.384 21.384 0 0 1 2.558-.306l.467-.932a.628.628 0 0 1-.154-.469l.463-.463.313-.776a2.971 2.971 0 0 0 .154-.932 1.054 1.054 0 0 1 .309-.775c-.309-.1-.336-.256-.076-.465s.178-.311-.233-.311a2.48 2.48 0 0 1 .465-.62c.207-.207.207-.462 0-.775h.467c0-.311-.053-.463-.156-.463 0 .1.156 0 .465-.313-.206-.411-.156-.7.158-.856s.358-.436.154-.851a.445.445 0 0 0-.154.313c0 .1-.1.152-.313.152-.1-.309-.051-.515.156-.62s.311-.36.311-.776c.1.208.309.156.62-.156 0-.1-.1-.152-.311-.152a.949.949 0 0 1 .233-.7c.158-.156.334-.336.544-.545 0-.2-.053-.256-.156-.156s-.209.057-.311-.151-.1-.285 0-.235.256.026.467-.076c-.106-.1-.053-.285.154-.545s.156-.387-.154-.387a2.346 2.346 0 0 0 1.238-1.4 5.874 5.874 0 0 0 .313-1.862c.62 0 .851-.256.7-.776a.8.8 0 0 1 .387-1.083c0-.208-.078-.284-.233-.237s-.18-.023-.076-.232a.838.838 0 0 0 .387-.307.826.826 0 0 1 .389-.313c0-.206-.08-.282-.235-.231s-.182-.024-.078-.231a.324.324 0 0 0 .233-.08.308.308 0 0 1 .233-.076 15.146 15.146 0 0 0-.153-1.632 1.708 1.708 0 0 1 .773-1.782v.462l.467-.62v.313c.309 0 .411-.155.309-.469h-.317q.464-.15.62 0c.1-.307.078-.462-.078-.462s-.287-.1-.389-.313c.311 0 .467-.2.467-.618a2.7 2.7 0 0 1 .618-.156 1.6 1.6 0 0 0 .158-.929h.156l.153-.311c0-.1-.027-.156-.078-.156s-.076-.1-.076-.309a.433.433 0 0 0 .309.153l.467-1.551v-.151c-.1-.209-.133-.336-.078-.393a.61.61 0 0 0 .078-.387c.2 0 .309-.025.309-.075s.1-.076.309-.076v-.157a1.054 1.054 0 0 1 .08-1.163 1.981 1.981 0 0 0 .387-1.163c0 .1.1.156.309.156l1.551-4.189v-.156h.156l.156-.62a.636.636 0 0 1 .156-.467l.156-.309.154.155a11.428 11.428 0 0 1 1.707-1.4 2.472 2.472 0 0 0 1.085-1.858c.207.1.284.1.235 0s.022-.157.231-.157a2.463 2.463 0 0 1 .078-.618c.049-.209.18-.26.387-.157 0-.207-.078-.283-.231-.231s-.182-.024-.078-.231q.93-1.4 1.7-2.794a15.362 15.362 0 0 1 1.863-2.638 16.886 16.886 0 0 1 2.249-3.41 12.3 12.3 0 0 0 2.094-3.571.635.635 0 0 0 .467-.156 1.779 1.779 0 0 1 .309-.462c.1-.1.1-.313 0-.62-.415 0-.52.156-.309.464l-.622-1.24a5.583 5.583 0 0 0 1.861-1.787 5.676 5.676 0 0 1 1.862-1.783 1.641 1.641 0 0 0 .776.62.307.307 0 0 0-.156-.464 1.414 1.414 0 0 0-.62-.156 11.2 11.2 0 0 1 6.67.467 8.95 8.95 0 0 1 4.654 4.034c0 .1.1.151.309.151a39.627 39.627 0 0 1-.076 7.448q-.39 3.411-1.162 6.979a23.385 23.385 0 0 0-1.242 3.958 8.864 8.864 0 0 1-1.707 3.646 1.853 1.853 0 0 1-.309 1.162 8.927 8.927 0 0 1-.622.7v.776a5.051 5.051 0 0 0-1.4 3.259.6.6 0 0 0-.387.08.624.624 0 0 1-.387.076c-.1.208-.08.311.078.311s.231.1.231.309c-.209 0-.309.08-.309.231s-.1.184-.311.08a1.212 1.212 0 0 1-.387 1.24 1 1 0 0 0-.235 1.242 2.486 2.486 0 0 0-1.163 1.859 8.236 8.236 0 0 1-.544 2.327l-.309-.307c-.518.827-1.036 1.682-1.551 2.558a9.105 9.105 0 0 0-1.085 3.025c.411.1.489.156.231.156s-.284.255-.078.776q-1.24.463-.929 2.171-1.4 2.637-2.638 5.041t-2.327 5.041a1.2 1.2 0 0 0-.851 1.007 1.886 1.886 0 0 1-.542 1.162 4.906 4.906 0 0 0-1.629 1.938 19.079 19.079 0 0 0-.853 2.1 1.765 1.765 0 0 0-.467.311.627.627 0 0 1-.465.156c0 .1.025.154.078.154s.078.106.078.311h-.467a4.59 4.59 0 0 1-1.316 2.638 4.555 4.555 0 0 0-1.32 2.634c-.413 0-.6.156-.542.469s-.131.463-.542.463a1.346 1.346 0 0 0 .154.62 32.563 32.563 0 0 0-2.016 2.563 13.5 13.5 0 0 1-2.172 2.4 7.3 7.3 0 0 1-1.551 2.945q-1.087 1.246-2.094 2.407a31.26 31.26 0 0 0-1.938 2.482 6.055 6.055 0 0 0-1.085 3.021h-.313a5.322 5.322 0 0 0 0 3.107c-.1 0-.153-.025-.153-.08s-.053-.076-.156-.076a17.573 17.573 0 0 1-.389 3.876 17.512 17.512 0 0 0-.387 3.879c-.209-.516-.414-.544-.62-.076s-.053.6.467.387a3.235 3.235 0 0 0 .154.851c.1.364 0 .544-.309.544 0 .1.078.155.231.155s.233.1.233.307a.135.135 0 0 1-.156-.155.135.135 0 0 0-.154-.152c-.211.209-.182.365.076.465s.233.156-.076.156a9.433 9.433 0 0 1 .852 2.946 9.387 9.387 0 0 0 .853 2.947 2.662 2.662 0 0 0 1.473.235 1.562 1.562 0 0 1 1.318.387c.206 0 .258-.1.156-.311s-.053-.255.153-.156a.63.63 0 0 0 .158.467.5.5 0 0 1 .309-.467c.2-.1.362 0 .465.311a29.467 29.467 0 0 0 9-5.9q3.877-3.724 7.91-6.979c-.207-.411-.076-.7.389-.852s.854-.284 1.165-.386l-1.862 2.502h.309a.94.94 0 0 1-.231.694.746.746 0 0 0-.231.544c-.313-.208-.338-.387-.078-.544a.532.532 0 0 0 .231-.694 27.911 27.911 0 0 1-2.947 3.1c.1.411-.053.62-.465.62a1.173 1.173 0 0 1-.156 1.083.925.925 0 0 1 .62.155.6.6 0 0 0 .465-.618 2.579 2.579 0 0 0 1.785-1.475 5.559 5.559 0 0 1 1.474-1.938c.1-.1.156-.049.156.156a1.641 1.641 0 0 1 .931-1.007 1.256 1.256 0 0 0 .776-1.009 1.483 1.483 0 0 1 1.085-.156 3.79 3.79 0 0 1 .389-.618.818.818 0 0 0 .078-.775 2.271 2.271 0 0 0 1.472-.855 10.838 10.838 0 0 0 .931-1.4 7.517 7.517 0 0 1 .931-1.32 2.41 2.41 0 0 1 1.474-.774c.207-.62.776-.98 1.7-1.089-.207 0-.309-.151-.309-.463.309 0 .411.155.309.463zm-70.577 9a.51.51 0 0 0 .156-.62h-.311c.1.209.129.336.078.389s-.028.13.076.23zm1.4-6.668a.71.71 0 0 1 .078-.931 1.462 1.462 0 0 0 .387-.932 1 1 0 0 1 .078 1.007 2.745 2.745 0 0 1-.548.855zm1.087-3.258c.207 0 .285.129.231.389s-.182.335-.387.231c-.1-.208-.078-.311.078-.311s.175-.102.073-.311zm1.24-2.018a2.457 2.457 0 0 1-.776 1.4.951.951 0 0 0 .233-.851c-.06-.367.123-.55.534-.55zm-.156-.156v-.309h.156v.309zm1.551-3.41a2.575 2.575 0 0 1-.387 1.394q-.39.623-.7 1.24a.74.74 0 0 1 .231-.54c.156-.156.129-.44-.078-.855q.933-1.548 1.785-3.259a13.849 13.849 0 0 1 1.938-2.945 1.489 1.489 0 0 0 1.242-1.007 1.111 1.111 0 0 1 1.085-.855 4.794 4.794 0 0 0-.776 1.011 2.09 2.09 0 0 1-1.085.852c.2.415.127.646-.233.7s-.44.336-.233.852a2.7 2.7 0 0 0-1.318 1.318 11.93 11.93 0 0 0-.854 1.94c-.209 0-.311.026-.311.076s-.103.077-.31.077zm28.076-11.789a1.864 1.864 0 0 0-.311-.468.623.623 0 0 1-.156-.463c.313 0 .467-.053.467-.156-.209-.1-.26-.313-.153-.62s0-.365-.313-.156c-.1 0-.1.076 0 .232s.053.231-.153.231a.428.428 0 0 1-.156-.307q-1.243.773-2.636 1.627a34.486 34.486 0 0 0-2.638 1.782.638.638 0 0 0-.465.156.635.635 0 0 1-.465.156c.1.208.023.335-.235.388s-.387.184-.387.387a6.234 6.234 0 0 0-3.49 2.794 31.976 31.976 0 0 1-2.249 3.567 7.218 7.218 0 0 0-2.483 3.1 7.683 7.683 0 0 1-2.325 3.1.861.861 0 0 1-.776.931 3.9 3.9 0 0 0-.389 1.087c-.053.309-.338.569-.853.776a1.68 1.68 0 0 1-.078.544c-.051.151.024.282.233.386a1.425 1.425 0 0 0-.62.152l-.62 1.865c0 .207.049.286.154.231s.156-.025.156.08a9.4 9.4 0 0 0-1.318 1.627 7.047 7.047 0 0 0-.853 2.094c.413-.207.622-.156.622.156-.311 0-.493.024-.544.078a1.724 1.724 0 0 1-.389.231.571.571 0 0 1-.154.7q-.313.234 0 1.007c-.415 0-.569.184-.465.542a.7.7 0 0 1-.311.851h.62a18.213 18.213 0 0 0-.544 4.114 26.166 26.166 0 0 0 .235 4.574 5.081 5.081 0 0 0 3.876-1.7 7.524 7.524 0 0 1 3.258-2.327 18.152 18.152 0 0 1 2.947-3.414l3.414-3.1a.634.634 0 0 1-.158-.467c-.413 0-.618.131-.618.387a.567.567 0 0 1-.467.545 2.04 2.04 0 0 1 .389-.545c.156-.152.127-.387-.08-.7.414 0 .673-.1.776-.311 0 .416.1.52.311.311q1.4-1.707 2.716-3.49t2.714-3.49c-.211.1-.311-.051-.311-.466.207 0 .311-.076.311-.233s.1-.178.309-.08a9.542 9.542 0 0 1 .853-4.028q.85-1.866 1.629-4.034a3.648 3.648 0 0 0-.078-.7c-.053-.256.025-.387.231-.387-.309-.2-.336-.414-.078-.62s.18-.412-.231-.62c.411.1.544 0 .389-.311s-.08-.465.231-.465a.893.893 0 0 1 0-1.011c.207-.36.207-.643 0-.851.413 0 .567-.156.465-.463h-.154l.154-.158a1.986 1.986 0 0 0 .311-1.473 1.075 1.075 0 0 1 .464-1.164 2.5 2.5 0 0 0-.309-1.087.326.326 0 0 0 .233-.076.314.314 0 0 1 .231-.076.31.31 0 0 0-.156-.469q-.31-.15 0-.307l.156.152zm-19.234 2.634h-.465v-.156a.64.64 0 0 1 .465-.151zm1.4-1.551h-.309v-.156h.309zm4.343 27.609c.207-.2.389-.386.544-.538a4.674 4.674 0 0 1 .7-.544c.1.411 0 .671-.311.776s-.632.207-.942.305zm.931 2.951a.247.247 0 0 0-.078.307.565.565 0 0 1-.078.469 12.1 12.1 0 0 0 1.009-.776.822.822 0 0 0 .231-1.087 1.385 1.385 0 0 0-.387.618c-.061.209-.294.364-.705.469zm.311-4.345c.2-.2.333-.18.387.08s-.026.336-.231.231a.445.445 0 0 1-.164-.311zm4.343.467a2.086 2.086 0 0 1 1.009-1.474c.565-.36.7-.956.387-1.782a23.974 23.974 0 0 1-2.249 3.1 18.391 18.391 0 0 0-2.094 2.947q.774-.773 1.4-1.475a7.941 7.941 0 0 1 1.539-1.317zm.774-6.827a.142.142 0 0 1 .158.157.461.461 0 0 1-.311.155v-.313zm1.242-1.394c.207 0 .258.1.156.311a.3.3 0 0 1-.465.151c-.1-.2-.055-.282.154-.231s.249-.025.147-.232zm4.187-15.047a.138.138 0 0 1 .156.155.138.138 0 0 0 .156.158.275.275 0 0 1-.32-.314zm7.448-25.282a.642.642 0 0 1-.467.155.32.32 0 0 1 .078-.235.324.324 0 0 0 .076-.234h.156a.462.462 0 0 1 .149.315zm-.313 2.17c.209 0 .285.075.233.233s-.18.182-.387.08a.137.137 0 0 1 .153-.157c.095-.003.095-.054-.011-.158zm2.483-5.893a.447.447 0 0 1-.309.154v-.309h.156zm14.736 12.564a28.854 28.854 0 0 1 2.1-5.585 41.665 41.665 0 0 0 2.247-5.428 1.663 1.663 0 0 0-.776 1.551 1.646 1.646 0 0 0-1.007.927 90.25 90.25 0 0 1-.542 1.4c-.209 0-.311.051-.311.152s-.1.108-.311 0c-.1.211-.076.365.078.467s.129.209-.078.309c-.1-.2-.131-.231-.076-.076s-.028.184-.233.076a2.563 2.563 0 0 0 0-1.24 1.838 1.838 0 0 1 .156-1.239 1.48 1.48 0 0 0-.622.776 1.432 1.432 0 0 1-.776.775c.207.307.051.7-.463 1.163s-.52.852 0 1.163a1.387 1.387 0 0 0-.933.931 1.962 1.962 0 0 1-.465.929c.309.727.051 1.293-.776 1.707q-.777 1.551-1.551 3.025a11.264 11.264 0 0 1-2.016 2.714q-1.09 1.711-2.172 3.49a17.725 17.725 0 0 1-2.638 3.334c.1.213.1.313 0 .313s-.1.1 0 .311a3.419 3.419 0 0 0-1.085 1.4 2.823 2.823 0 0 1-.931 1.238 2.454 2.454 0 0 0 .078.62 2.618 2.618 0 0 1 .078.622.522.522 0 0 1-.387.153c-.158 0-.236.107-.236.311.313.1.362.232.158.387s-.209.389 0 .7a1.887 1.887 0 0 0 1.085-1.242q.307-.931 1.087-.931c-.415.416-.569.675-.467.775.516 0 .776-.153.776-.464s.207-.516.62-.62c.1-.1.078-.207-.078-.311s-.129-.2.078-.307a.453.453 0 0 1 .309.151c0-.1.209-.256.622-.464a.609.609 0 0 0-.078-.387.6.6 0 0 1-.078-.388 4.525 4.525 0 0 0 1.629-1.474 17.566 17.566 0 0 1 1.318-1.783c0 .311.1.362.311.156a3.935 3.935 0 0 0 .465-.544 3.453 3.453 0 0 1 .467-.543c0-.413-.053-.62-.156-.62a1.615 1.615 0 0 0 1.162-1.087 2.849 2.849 0 0 1 1.163-1.4 4.184 4.184 0 0 1 .158-1.163c.1-.36.411-.545.929-.545.1-.2.051-.256-.154-.151s-.26.051-.157-.156c.311-.313.518-.469.622-.469a3.89 3.89 0 0 1 .7-1.938q.526-.697 1.148-1.472zm-11.633-22.806c.2 0 .282.133.233.389s-.182.34-.389.235c-.1-.207-.078-.311.08-.311s.167-.101.067-.314zm0 1.707c-.1.208.051.313.465.313-.009-.21-.163-.314-.474-.314zm9.926 14.582a.412.412 0 0 0 .467-.467.643.643 0 0 0-.467.156 37.78 37.78 0 0 1 3.956-8.219 26.252 26.252 0 0 0 3.492-8.533q2.168-4.961 4.419-9.771a58.268 58.268 0 0 0 3.645-10.237.274.274 0 0 0-.309-.311.9.9 0 0 0 .387-.931.9.9 0 0 1 .389-.932 6.625 6.625 0 0 1 .231-2.791 6.091 6.091 0 0 0 .233-2.638 2.48 2.48 0 0 1-.62.469.3.3 0 0 0-.154.462 6.412 6.412 0 0 0-2.482 2.8 15.261 15.261 0 0 1-2.018 3.252 25 25 0 0 1-2.636 6.285 39.383 39.383 0 0 0-2.947 6.128 1.866 1.866 0 0 0-.542 1.162.937.937 0 0 1-.853.852.924.924 0 0 1-.387 1.089q-.547.309-.235 1.083c-.413-.1-.569 0-.464.311s-.051.415-.465.311a2.144 2.144 0 0 1-.233 2.171 2.389 2.389 0 0 0-.542 1.863 2.042 2.042 0 0 0 .465-1.011c.1-.465.311-.643.622-.541a2.768 2.768 0 0 0-.776 1.552.834.834 0 0 1-1.085.775q.307.313.153.465a.437.437 0 0 0-.153.311 17.872 17.872 0 0 0-1.165 2.014 7.035 7.035 0 0 0-.7 2.171c0-.307.207-.36.622-.151q-2.64 6.512-5.119 12.8t-4.5 13.262a1.2 1.2 0 0 0 .62-.387 1.148 1.148 0 0 1 .465-.389c-.207-.1-.231-.235-.078-.387a2.067 2.067 0 0 1 .544-.389c.1.1.078.209-.078.309s-.131.156.078.156a1.377 1.377 0 0 0 .387-.62c.053-.207-.027-.256-.231-.155a1.38 1.38 0 0 0 .387-.62.69.69 0 0 1 .389-.467c0 .211.049.311.154.311l1.707-2.482c-.209-.1-.309-.076-.309.08s-.055.129-.158-.08a1.9 1.9 0 0 0 .467-.851c.1-.365.362-.491.776-.387a1.777 1.777 0 0 1 .231-.388c.053-.051-.026-.231-.231-.542a1.01 1.01 0 0 0 .776 0 .359.359 0 0 0-.233-.389c-.156-.051-.18-.18-.078-.387q.774 0 .62-.389c-.1-.256 0-.336.311-.231-.209-.516-.053-.776.465-.776 0 .209.051.307.156.307a.467.467 0 0 1 .311-.155q-.156-.3 0-.387c.1-.049.1-.075 0-.075l-.311.311a1.09 1.09 0 0 0-.078-.467c-.053-.1.078-.205.389-.309 0-.207-.053-.311-.156-.311a.449.449 0 0 1-.311-.156.943.943 0 0 0 .622-.851c0-.364.256-.544.776-.544-.209-.209-.158-.722.154-1.551a3.214 3.214 0 0 1 1.24-1.707zm-8.686-16.6c-.207-.1-.336-.051-.387.156s.022.309.233.309c-.211-.2-.211-.284 0-.233s.248-.02.145-.229zm.156-.931l-.156-.156h.309v.156zm0 .931c0-.209-.053-.311-.156-.311v.311zm1.242 35.057c0 .1-.028.152-.078.152s-.078.055-.078.156h-.157v-.307zm.929 34.745c-.1 0-.153-.156-.153-.467h.309c.207.209.231.311.078.311s-.243.056-.243.159zm1.4-43.586c-.1-.1-.078-.208.08-.313s.127-.156-.08-.156c-.309.312-.362.52-.156.625zm0-34.281h.156a.141.141 0 0 0-.156-.158zm.156 34.281v.307c.207.1.282.1.233 0a.247.247 0 0 1 .078-.307zm2.638-41.418a.751.751 0 0 0-.545.62.742.742 0 0 1-.542.62c.207-.515.413-.776.62-.776-.207-.2-.182-.436.078-.7s.491-.492.7-.7a.859.859 0 0 1-.309.389c-.119.062-.119.239-.015.55zm0 7.137c.2.1.309.026.309-.234s-.1-.282-.309-.08zm.618-9.306c.207-.209.338-.181.389.075s-.027.335-.231.231a.456.456 0 0 0-.171-.304zm.776-.469c-.309 0-.465.057-.465.155a.553.553 0 0 1 .078-.618 1.571 1.571 0 0 1 .544-.469c.2.213.178.34-.08.393s-.297.234-.09.541zm.311 6.052a.506.506 0 0 0-.389.62.837.837 0 0 1-.231.776 1.936 1.936 0 0 0 .607-1.394zm0 0a.275.275 0 0 0 .311-.311c0-.2.154-.311.467-.311a.619.619 0 0 1 .076-.389q.077-.071-.233-.387a.5.5 0 0 0-.542.467 6.8 6.8 0 0 1-.231.931zm-.154 79.885c0 .311.049.462.154.462v-.151c-.013-.206-.064-.308-.164-.308zM333 16.428c0 .207-.026.282-.078.231a.6.6 0 0 1-.078-.386v-.313c.207 0 .311-.047.311-.151.207 0 .256.1.154.307a.307.307 0 0 1-.465.157.138.138 0 0 0 .143.158zm.465 36.3l.311-.311a.644.644 0 0 0-.467.156c-.117.102-.064.153.143.153zm.467-38.315c0 .213.078.313.231.313s.18.1.078.311c-.207 0-.52.209-.931.62a4.828 4.828 0 0 1 1.242-2.018.313.313 0 0 0 .078.236.321.321 0 0 1 .078.231.619.619 0 0 0-.389.075 1.517 1.517 0 0 1-.4.23zm-.622 88.575q.31.31 1.089-.469h-.467zm.622-63.756c-.211-.1-.233-.2-.078-.307s.18-.26.078-.468c.207 0 .256.078.154.233a.957.957 0 0 0-.167.541zm.467-19.234c.309.52.1.88-.622 1.086a.139.139 0 0 1 .156.156c.1 0 .154.024.154.076s.053.082.156.082c-.1-.313-.053-.493.158-.544a3.084 3.084 0 0 0 .618-.232.709.709 0 0 1-.078-.544c.053-.156.025-.232-.078-.232 0 .207-.051.232-.154.076s-.228-.13-.328.075zm0 82.521a3.657 3.657 0 0 0 .463-.543 1.209 1.209 0 0 1 .467-.388.272.272 0 0 1-.311-.307l-.542.542a.633.633 0 0 0-.095.695zm.153-65.457l.156-.155zm.776 61.116h.309v.309h-.309zm.776-86.4c0 .1-.156.156-.467.156a1.245 1.245 0 0 1 .233-.773 1.058 1.058 0 0 0 .233-.625 1.4 1.4 0 0 0 .773-.775c.207 0 .235.055.08.156s-.182.26-.08.468c-.309 0-.464.1-.464.307v.776h-.62a.274.274 0 0 0 .298.309zm0 85.933c-.209-.2-.209-.285 0-.233s.258-.022.156-.231c.2 0 .282.1.231.312s-.196.254-.401.151zm.465-64.838c0 .415-.053.62-.156.62a.617.617 0 0 1-.154-.464.436.436 0 0 1 .296-.157zm.467 15.978c.2.1.333.051.387-.157s-.027-.307-.231-.307c0 .1-.078.151-.233.151s-.146.103.063.312zm0-38.316c.2-.1.309-.025.309.235s-.1.335-.309.232zm.465-1.083c0-.1-.1-.053-.309.152v-.465a.274.274 0 0 0 .294.313zm-.309 38.779a.628.628 0 0 0 .62-.311c.1-.2.1-.361 0-.465-.431.208-.631.464-.631.775zm.309-37.54a.615.615 0 0 1-.156-.462h.309v.462zm0-1.707v-.307h.467v.307zm.929 4.5c-.1-.1-.182-.079-.231.076s-.027.233.078.233a.137.137 0 0 1 .154-.156c.087 0 .087-.053-.016-.153zm0 33.04q.62 0 .467-.389c-.1-.256.1-.283.62-.076a.947.947 0 0 1 .233-.7.953.953 0 0 0 .231-.7c0-.1-.076-.129-.231-.076s-.233.027-.233-.08a.891.891 0 0 0 .311-.62.5.5 0 0 1 .309-.465c.1.209.053.336-.156.389s-.209.18 0 .387c.209 0 .284-.051.233-.156s.024-.155.233-.155a1.281 1.281 0 0 1 .465-.776c-.207-.1-.364-.076-.465.08s-.209.126-.311-.08a3.445 3.445 0 0 0 .467-1.083 1.5 1.5 0 0 1 .62-.931.271.271 0 0 0 .311.307c0-.307-.055-.465-.156-.465s-.156-.1-.156-.311a.45.45 0 0 0 .311-.151.3.3 0 0 0 .154.462c.207.1.309.054.309-.156q-.31-.15-.154-.62c.1-.311.051-.514-.156-.618a20.742 20.742 0 0 1-1.86 3.258 8.435 8.435 0 0 0-1.411 3.724zm1.242-34.591c-.518 0-.88.365-1.087 1.085.207-.2.389-.389.545-.544s.319-.333.528-.542zm4.19 28.694a.272.272 0 0 0 .309-.307.274.274 0 0 1 .309-.313 7.686 7.686 0 0 1-.387-.852c-.055-.156.025-.44.233-.855a.454.454 0 0 1-.311.156q-1.087 2.327-2.327 4.423a21.425 21.425 0 0 0-2.016 4.576.5.5 0 0 0 .309-.469c0-.2.156-.307.467-.307q.617-1.241 1.24-2.407a5.582 5.582 0 0 1 1.707-1.938.924.924 0 0 1 .309-1.007c.297-.256.348-.492.143-.701zm-2.327-31.8c-.311.311-.6.624-.853.931a2.739 2.739 0 0 0-.544 1.242 10.844 10.844 0 0 1 .931-1.163c.396-.465.551-.798.451-1.009zm-.311-3.255c-.416.1-.62-.156-.62-.775.2 0 .309-.051.309-.156.207.1.284.231.233.386a.7.7 0 0 0 .063.546zm.156 87.176c0 .207-.078.307-.233.307s-.233-.1-.233-.307zm.618-84.073v-.469h-.154v.313zm0 30.4c.1 0 .158-.152.158-.463-.225.207-.275.363-.175.463zm.313 53.206c-.106.208-.133.133-.078-.232s.078-.6.078-.7c.825-.2 1.134-.567.929-1.083a.307.307 0 0 0 .233-.081.327.327 0 0 1 .231-.075 4.57 4.57 0 0 1-.7 1.238 11.15 11.15 0 0 0-.708.936zm2.016-56.464a1.374 1.374 0 0 1 .153-1.163 1.105 1.105 0 0 0 .156-1.007 2.783 2.783 0 0 0-.542 1.242c-.153.62-.287 1.084-.389 1.4.296-.315.5-.472.607-.472zm.153 53.674c0 .208-.207.307-.618.307-.015-.203.19-.307.603-.307zm-.309-84.693c.1.208.078.335-.078.389s-.182.18-.078.386a1.338 1.338 0 0 1 .7-.386c.256-.054.334-.238.231-.544-.209 0-.338.051-.389.156s-.194.103-.401-.001zm1.085 28.074a4.034 4.034 0 0 1 1.861-3.259h-.636c0-.2.051-.307.156-.307s.154-.1.154-.313a.315.315 0 0 0-.231.078.317.317 0 0 1-.236.08 4.77 4.77 0 0 1-1.549 2.638c.2.411.18.671-.076.776s-.289.307-.08.618c.207 0 .311-.051.311-.156s.104-.155.311-.155zm6.517-11.169a1.6 1.6 0 0 1 .153-1.241 1.025 1.025 0 0 0 0-1.086q-1.24 3.414-2.636 6.672t-2.949 6.359a14.339 14.339 0 0 0 2.794-5.2 20 20 0 0 1 2.622-5.504zm-4.343 66.856a3.622 3.622 0 0 1-.931 1.087c-.1-.207-.055-.335.156-.386s.256-.18.154-.393c.207 0 .309-.047.309-.151s.086-.157.296-.157zm.618-62.355c.207 0 .258-.051.158-.156a2.34 2.34 0 0 0 .776-1.007 1.309 1.309 0 0 0 .154-1.011q-.777 1.247-1.474 2.325a7.6 7.6 0 0 0-1.007 2.638.312.312 0 0 0 .231-.076.317.317 0 0 1 .231-.08c-.207-.307-.1-.463.313-.463a1.244 1.244 0 0 1 .465-1.007.934.934 0 0 0 .138-1.163zm-.153 61.58a13.292 13.292 0 0 1 2.016-3.569l2.482-3.1q-.93 1.867-1.94 3.647a10.379 10.379 0 0 1-2.572 3.022zm3.412-70.266a.192.192 0 0 1-.309 0c-.1-.1-.156-.051-.156.151s.1.288.309.235.258.025.156.234a3.667 3.667 0 0 0-1.162 1.706 6.379 6.379 0 0 0-.389 2.17c-.309-.1-.492.053-.542.465s.078.675.387.776a1.234 1.234 0 0 1-.153-.389v-.542a1.635 1.635 0 0 0 1.007-1.165 14.842 14.842 0 0 1 .544-1.627.272.272 0 0 1-.311-.311c.414.1.567-.025.465-.387s0-.54.311-.54a1.174 1.174 0 0 1-.078-.7.719.719 0 0 0-.078-.544c.207.1.334.029.389-.231s.022-.282-.078-.08l-.62.311c-.1.209-.078.289.076.233s.216.026.216.235zm-1.4 64.214h.156v.311h-.156zm1.087-6.2a.455.455 0 0 0-.311.155v-.307h.298zm.465 3.57c-.209.206-.26.307-.156.307-.207 0-.284-.047-.233-.152s.168-.159.376-.159zm.464-1.244c.311.1.44.028.387-.232s.024-.386.235-.386c.2.416.154.676-.156.776a1.448 1.448 0 0 0-.776.931c-.209-.209-.182-.389.078-.545s.322-.336.22-.548zm-.153-61.423c.2.1.282.027.231-.234s-.182-.282-.387-.079zm.153-1.552c.207-.1.285-.335.233-.7s-.182-.488-.387-.386c.1.311.1.52 0 .618s-.067.256.142.469zm-.153-1.862v.311h.309v-.311zm.465 65.461c0 .1-.053.151-.156.151a.14.14 0 0 0-.156.157.274.274 0 0 1 .299-.312zm.465-2.018a.274.274 0 0 0 .311-.309.274.274 0 0 1 .311-.311c.2.209.18.415-.078.62a1.943 1.943 0 0 0-.544.62c-.209-.1-.231-.18-.076-.234s.165-.183.063-.39z"/></svg>