<svg xmlns="http://www.w3.org/2000/svg" viewbox="0 0 19 15.411"><path d="M6.017 15.411A10.985 10.985 0 0 0 17.1 4.328V3.8A8.58 8.58 0 0 0 19 1.794a8.762 8.762 0 0 1-2.217.633A4.107 4.107 0 0 0 18.472.316a9.682 9.682 0 0 1-2.428.95A3.77 3.77 0 0 0 13.194 0a3.966 3.966 0 0 0-3.906 3.906 2.058 2.058 0 0 0 .106.844A10.913 10.913 0 0 1 1.372.633a4.042 4.042 0 0 0-.528 2.006 4.194 4.194 0 0 0 1.689 3.272 3.558 3.558 0 0 1-1.794-.528 3.858 3.858 0 0 0 3.167 3.8 3.254 3.254 0 0 1-1.056.106 1.8 1.8 0 0 1-.739-.106 4 4 0 0 0 3.694 2.744 7.97 7.97 0 0 1-4.856 1.689 2.922 2.922 0 0 1-.95-.106 9.963 9.963 0 0 0 6.017 1.9"/></svg>