<svg xmlns="http://www.w3.org/2000/svg" viewBox="0 0 76.2 81.2"><path fill="#67c2e5" d="M6.099999999999998,40.5a29.7,29.3 0 1,0 59.4,0a29.7,29.3 0 1,0 -59.4,0"/><path fill="#67c2e5" d="M40.7 4.4c.2.3.3.6.2.9 0 .4-.2.8-.6 1-.5.2-1 .3-1.5.3l-2.6-.1.3-5.2 2.5.1c.5 0 1 .2 1.4.4.3.2.5.6.4 1 0 .2-.1.5-.2.7-.1.2-.3.3-.5.4.2.1.5.3.6.5zM37.5 2l-.1 1.4 1.4.1c.3 0 .5 0 .8-.1.2-.1.3-.3.3-.5s-.1-.4-.2-.5c-.2-.1-.5-.2-.8-.2L37.5 2zM40 5.1c0-.5-.3-.8-1.1-.8l-1.6-.1-.1 1.5 1.6.1c.8 0 1.1-.2 1.2-.7zM45.9 4.1c.3.4.3.9.2 1.3l-.5 2.3-.9-.2.1-.5-.6.3h-.8l-.6-.3c-.2-.1-.3-.3-.4-.5-.1-.2-.1-.4 0-.6.1-.3.3-.6.6-.7.4-.2.9-.2 1.3 0l1 .2v-.1c.1-.2 0-.5-.1-.7-.2-.2-.4-.3-.7-.4-.2 0-.4-.1-.7 0-.2 0-.4.1-.6.2l-.2-.7c.3-.1.5-.2.8-.2.3 0 .6 0 .9.1.5-.1.9.1 1.2.5zm-1.4 2.5c.2-.1.4-.2.5-.4v-.4l-.9-.2c-.5-.1-.8 0-.9.3 0 .2 0 .3.1.4.1.1.3.2.5.3.2.1.4.1.7 0zM48 8.3c-.2-.3-.4-.6-.5-.9-.1-.4 0-.7.1-1.1.1-.3.3-.6.6-.9.3-.2.6-.4 1-.4s.8 0 1.1.2c.3.1.6.3.9.6.2.2.3.5.4.9l-.8.1c0-.2-.1-.4-.2-.5-.1-.1-.3-.3-.5-.3-.3-.1-.6-.1-.9 0-.3.1-.5.4-.6.7-.1.3-.1.7 0 1 .1.3.4.5.7.6.2.1.4.1.6.1.2 0 .4-.1.5-.2l.5.6c-.3.1-.6.2-.9.2-.4 0-.7 0-1-.1-.4-.1-.8-.4-1-.6zM54 9.3l-.9.2-.5.9-.8-.4 2.7-4.8.8.5-1.6 2.9 2.5-.6 1 .5-2.3.6.5 2.9-1-.5-.4-2.2zM60.4 15.8c-.1 0-.3 0-.4-.1-.2-.1-.3-.2-.4-.3-.3-.2-.5-.6-.5-.9 0-.4.1-.7.4-1l1.2-1.4-.5-.4.5-.6.5.4.6-.7.7.6-.6.7.8.7-.5.6-.8-.7-1.2 1.4c-.1.1-.2.3-.2.4 0 .2.1.3.2.4.1.1.3.2.5.2l-.3.7zM61.8 17.2c-.1-.3-.1-.7 0-1 .1-.3.3-.7.6-.9.3-.2.6-.4 1-.5.3-.1.7 0 1 .1.4.1.7.4.9.6.3.3.4.6.5 1 .1.3.1.7 0 1-.1.3-.3.7-.6.9-.3.2-.6.4-1 .5-.3.1-.7 0-1-.1-.4-.1-.7-.4-.9-.6-.2-.3-.4-.6-.5-1zm2 .9c.3 0 .7-.1.9-.3.3-.2.4-.5.5-.8 0-.3-.1-.6-.3-.9-.2-.2-.5-.4-.8-.4-.3 0-.7.1-.9.3-.3.2-.4.5-.4.8 0 .3.1.6.3.9.1.2.4.4.7.4zM71 24.2c0 .3-.1.7-.3 1-.2.3-.5.6-.8.7-.3.2-.7.3-1.1.3-.3 0-.7-.1-1-.3-.3-.2-.5-.5-.7-.8-.2-.4-.3-.9-.1-1.4l-1.7.9-.4-.8 4.8-2.6.4.8-.5.2c.2 0 .5.1.6.3.2.2.4.4.5.6.2.4.3.8.3 1.1zm-2.5 1c.3.1.7 0 .9-.1.3-.1.5-.4.6-.7.1-.3.1-.6-.1-.9-.1-.2-.2-.3-.4-.5-.2-.1-.4-.2-.6-.2-.2 0-.5.1-.6.2-.2.1-.4.3-.5.4-.1.2-.2.4-.2.6 0 .2 0 .4.2.6.2.3.4.5.7.6zM73 29.7c-.2.4-.6.7-1 .9l-2.2.8-.3-.8.5-.2c-.2-.1-.4-.2-.5-.3-.2-.2-.3-.4-.4-.7-.1-.3-.1-.5-.1-.8 0-.2.1-.4.2-.6.1-.2.3-.3.5-.4.3-.1.7-.1.9.1.4.3.6.6.7 1.1l.3 1h.1c.2-.1.4-.2.5-.4.1-.3.1-.5 0-.8l-.3-.6c-.1-.2-.3-.3-.5-.4l.5-.6.6.6c.2.3.3.5.4.8.3.3.3.8.1 1.3zm-2.9.1c.2.1.4.2.6.2l.4-.2-.3-.8c-.2-.5-.4-.7-.8-.6-.2 0-.3.2-.3.3v.6c.1.2.3.4.4.5zM74.9 36.1l-3.3.6c-1 .3-2-.2-2.4-1.2-.1-.2-.1-.3-.1-.5-.1-.4-.1-.7-.1-1.1 0-.3.1-.6.3-.9l.8.3c-.1.2-.2.5-.2.7v.8c0 .3.2.7.5.9.3.2.6.2.9.1h.2c-.2-.1-.4-.3-.5-.5-.1-.2-.2-.5-.3-.7-.1-.3-.1-.7 0-1 .1-.3.3-.6.5-.8.3-.2.6-.4.9-.4.3-.1.7 0 1 .1.3.1.6.3.8.6.2.3.4.6.4 1 .1.3.1.5 0 .8 0 .2-.2.5-.3.7l.5-.1.4.6zm-2.8-.7c.2.2.6.2.9.2.3 0 .6-.2.7-.5.2-.3.2-.6.1-.9 0-.3-.2-.6-.5-.8-.2-.2-.6-.2-.9-.2-.3 0-.6.2-.7.5-.2.3-.2.6-.1.9 0 .3.2.6.5.8zM73 42.3l-.1-3.1c-.3.1-.5.2-.7.4-.2.3-.2.6-.2.9 0 .4.2.8.5 1.1l-.6.4c-.2-.2-.4-.4-.5-.7-.1-.3-.2-.6-.2-.9 0-.4.1-.8.2-1.2.2-.3.4-.6.7-.8.3-.2.7-.3 1-.3.4 0 .7.1 1.1.2.3.2.6.4.7.7.2.3.3.7.3 1 0 .4-.1.7-.2 1-.2.3-.4.6-.7.7-.3.2-.7.3-1.1.3 0 .3-.1.3-.2.3zm1.2-2.8c-.2-.2-.4-.3-.7-.4l.1 2.2c.6-.1 1-.6.9-1.2 0-.2-.1-.4-.3-.6zM70.8 48.9c-.1-.1-.1-.3-.1-.4V48c0-.4.2-.7.5-.9.3-.2.7-.3 1-.2l1.9.3.1-.6.7.1-.1.6.9.2-.2.9-.9-.2-.2 1-.7-.1.2-1-1.9-.3c-.2 0-.3 0-.5.1-.1.1-.2.2-.2.4s0 .4.1.5l-.6.1zM70.2 50.9c.3-.3.6-.4.9-.5.4-.1.7-.1 1.1.1.4.1.7.3.9.6.2.3.4.6.5.9.1.4 0 .8-.1 1.1-.1.4-.3.7-.6 1-.3.2-.6.4-.9.5-.4.1-.7.1-1.1-.1-.4-.1-.7-.3-.9-.6-.2-.3-.4-.6-.5-.9-.1-.4 0-.8.1-1.1.2-.4.4-.8.6-1zm.3 2.1c.2.3.4.5.8.6.3.1.7.1 1-.1.3-.1.5-.4.6-.7.1-.3.1-.6-.1-.9-.2-.3-.4-.5-.8-.6-.3-.1-.7-.1-1 0-.3.1-.5.4-.6.7-.1.4-.1.7.1 1zM70.5 59.8c-.3.2-.6.3-1 .3s-.7-.1-1.1-.2c-.3-.2-.6-.4-.8-.7-.2-.3-.3-.6-.3-1s.1-.7.2-1c.2-.4.6-.8 1-.9l-1.7-.8.4-.8 4.8 2.4-.4.8-.5-.2c.1.2.1.5.1.7 0 .3-.1.5-.2.7 0 .2-.2.4-.5.7zm-2.3-1.5c.1.3.4.6.7.7.3.2.6.2 1 .1.3-.1.5-.3.7-.6.1-.2.1-.4.1-.6 0-.2-.1-.4-.2-.6-.1-.2-.3-.3-.5-.4-.2-.1-.4-.2-.7-.1-.2 0-.4.1-.6.2-.2.1-.3.3-.4.5-.2.2-.2.5-.1.8zM63.2 67.2c-.3 0-.6-.1-.8-.3-.3-.3-.5-.7-.5-1.1.1-.5.3-1 .7-1.4l1.7-2 4 3.4-1.6 1.9c-.3.4-.7.7-1.2.9-.4.1-.8 0-1.1-.3-.2-.2-.3-.4-.4-.6V67c-.2.2-.5.2-.8.2zm0-1c.4.3.8.2 1.3-.4l1-1.2-1.1-1-1 1.2c-.6.7-.6 1.1-.2 1.4zm3.9-.1l-1.1-1-.9 1c-.2.2-.3.4-.4.7 0 .2.1.4.2.5.2.1.4.2.6.1.3-.1.5-.3.6-.5l1-.8zM60.4 71.6c-.5 0-.9-.3-1.2-.7l-1.5-1.8.7-.6.3.4c0-.2 0-.4.1-.6.1-.2.3-.4.5-.6.2-.2.4-.3.7-.4.2-.1.4-.1.7 0 .2.1.4.2.5.3.2.2.3.6.3.9-.1.4-.4.8-.7 1.1l-.8.7v.1c.1.2.4.3.6.3.3 0 .5-.1.7-.3.2-.1.3-.3.4-.5.1-.2.2-.4.2-.6l.7.3c-.1.3-.2.5-.3.8-.2.3-.4.5-.6.7-.3.3-.8.5-1.3.5zm-1.1-2.7c-.1.2-.1.4 0 .6l.3.3.7-.6c.4-.3.5-.7.3-.9-.1-.1-.3-.2-.4-.2-.2 0-.4.1-.5.2-.2.2-.4.4-.4.6zM55.9 70.7c.4 0 .7 0 1 .2.3.2.6.4.8.7.2.3.3.7.3 1 0 .4-.1.7-.3 1-.2.3-.5.6-.8.8-.3.2-.6.3-1 .3-.3 0-.6-.1-.9-.2l.4-.7c.2.1.4.1.6.1.2 0 .4-.1.5-.2.3-.2.5-.4.5-.7.1-.3 0-.7-.2-.9-.2-.3-.4-.5-.8-.6-.3-.1-.6 0-.9.2-.2.1-.3.2-.4.4-.1.2-.1.4-.1.6h-.8c0-.3 0-.7.2-.9.2-.3.4-.6.7-.7.4-.2.8-.3 1.2-.4zM51.4 74.9l.4-.9-.4-1 .8-.4 2.2 5-.8.4-1.4-3-1 2.4-1 .5.8-2.2-2.6-1.4 1-.5 2 1.1zM42.4 76.2l.3-.3c.1-.1.3-.1.5-.2.4-.1.7-.1 1.1.1.3.2.5.5.6.9l.4 1.9.6-.1.2.7-.6.1.2.9-.9.2-.2-.9-1 .2-.3-.7 1-.2-.4-1.8c0-.2-.1-.3-.2-.4-.1-.1-.3-.1-.4-.1-.2 0-.3.1-.5.3l-.4-.6zM40.3 76.4c.3.1.6.4.8.7.2.3.3.7.4 1 0 .4 0 .7-.2 1.1-.2.3-.4.6-.7.8-.3.2-.7.3-1.1.4-.4 0-.8 0-1.1-.2-.3-.1-.6-.4-.8-.7-.2-.3-.3-.7-.4-1 0-.4 0-.7.2-1.1.2-.3.4-.6.7-.8.3-.2.7-.3 1.1-.3.4-.1.8 0 1.1.1zm-1.8 1.1c-.2.3-.3.6-.3.9 0 .3.2.6.4.9.2.2.6.3.9.3.3 0 .6-.2.8-.4.2-.3.3-.6.3-.9 0-.3-.2-.6-.4-.9-.2-.2-.6-.3-.9-.3-.3 0-.6.1-.8.4zM29.3 79.6c-.3-.2-.5-.5-.6-.8-.1-.3-.2-.7-.1-1.1 0-.4.2-.7.4-1 .2-.3.5-.5.8-.6.3-.1.7-.2 1.1-.1.5 0 .9.3 1.2.7l.3-1.9.9.1-.8 5.3-.9-.1.1-.5c-.2.2-.4.3-.6.3-.2.1-.5.1-.8 0-.4 0-.7-.1-1-.3zM30 77c-.3.2-.4.5-.5.8-.1.3 0 .7.2.9.2.3.5.4.8.5.2 0 .4 0 .6-.1.2-.1.4-.2.5-.4.1-.2.2-.4.2-.6 0-.2 0-.5-.1-.7-.1-.2-.2-.4-.4-.5-.2-.1-.4-.2-.6-.2-.2 0-.5.1-.7.3zM23.7 77.9c-.2-.4-.2-.9-.1-1.3l.7-2.2.8.3-.1.4c.2-.1.4-.2.6-.2.3 0 .5 0 .8.1.3.1.5.2.7.4.2.1.3.3.4.6.1.2.1.4 0 .6-.1.3-.3.6-.6.7-.4.1-.9.1-1.3-.1l-1-.3v.1c-.1.2-.1.5 0 .7.2.2.4.4.6.4.2.1.4.1.7.1.2 0 .4 0 .6-.1l.1.8c-.3.1-.5.1-.8.1-.3 0-.6-.1-.9-.2-.6-.2-1-.5-1.2-.9zm1.6-2.4c-.2 0-.4.2-.5.3l-.1.4.9.3c.5.2.8.1.9-.3.1-.2 0-.3-.1-.4-.1-.2-.3-.3-.5-.3h-.6zM17.4 75.6l1.5-3c.3-1 1.4-1.5 2.4-1.2.2.1.3.1.5.2l.9.6c.2.2.4.5.6.7l-.7.4c-.1-.2-.3-.4-.4-.6-.2-.2-.4-.4-.7-.5-.3-.2-.7-.2-1-.2-.3.1-.6.4-.7.7l-.1.2c.2-.1.5-.1.7-.1.3 0 .5.1.7.2.3.2.6.4.8.7.2.3.3.6.3.9 0 .4 0 .7-.2 1-.1.3-.4.6-.7.8-.3.2-.6.3-.9.3-.4 0-.7-.1-1-.2-.2-.1-.5-.3-.6-.5-.2-.2-.3-.4-.3-.6l-.3.6-.8-.4zm2.3-1.9c-.3.1-.5.3-.7.6-.1.3-.2.6-.1.9.1.3.3.5.6.7.3.2.6.2.9.1.3-.1.5-.3.7-.6.1-.3.2-.6.1-.9-.1-.3-.3-.5-.6-.7-.3-.1-.6-.2-.9-.1zM13.6 70.4l2.5 1.8c.1-.3.1-.5 0-.8-.1-.3-.3-.5-.6-.7-.3-.2-.7-.3-1.1-.3l-.1-.8c.3-.1.6-.1.8 0 .3.1.6.2.8.4.3.2.6.5.8.9.2.3.2.7.2 1 0 .4-.2.7-.4 1-.2.3-.5.5-.8.7-.3.2-.7.2-1 .2-.4 0-.7-.2-1-.4-.3-.2-.5-.5-.7-.8-.2-.3-.2-.7-.2-1 0-.4.2-.7.4-1 .3-.1.3-.2.4-.2zm1.5 2.6c.3 0 .5-.2.7-.4L14 71.4c-.3.5-.1 1.1.4 1.4.2.2.4.2.7.2zM9.7 64.6c.1 0 .3.1.4.2.1.1.3.2.4.3.3.3.4.6.4 1s-.2.7-.5.9L9 68.3l.4.5-.4.4-.5-.5-.7.6-.6-.7.7-.6-.7-.8.5-.5.7.8 1.4-1.3c.1 0 .2-.2.2-.3 0-.2-.1-.3-.2-.4-.1-.1-.3-.2-.5-.3l.4-.6zM8.4 63c0 .4 0 .7-.1 1-.2.3-.4.6-.7.8-.3.2-.6.4-1 .4s-.7 0-1-.2c-.3-.2-.6-.4-.8-.7-.2-.3-.4-.7-.4-1 0-.4 0-.7.1-1 .2-.3.4-.6.7-.8.3-.2.6-.4 1-.4s.7 0 1 .2c.3.2.6.4.8.7.2.2.4.6.4 1zm-1.8-1.1c-.3 0-.7 0-.9.3-.3.2-.5.5-.5.8-.1.3 0 .6.2.9.2.3.5.4.8.5.3 0 .7-.1.9-.3.3-.2.5-.5.5-.8.1-.3 0-.6-.2-.9-.2-.3-.5-.4-.8-.5zM1.2 57.8c0-.3.1-.7.3-1 .2-.3.5-.6.8-.7.3-.1.7-.2 1.1-.2.3 0 .7.1 1 .3.2.2.5.5.6.8.2.4.3.9.1 1.4l1.7-.9.4.8-4.8 2.4L2 60l.5-.2c-.2-.1-.5-.2-.6-.3-.2-.2-.3-.4-.5-.6-.2-.4-.3-.7-.2-1.1zm2.5-.9c-.3-.1-.7-.1-1 .1-.3.1-.5.4-.7.7 0 .3 0 .6.1.9.1.2.2.3.4.5.2.1.4.2.6.2.2 0 .5 0 .7-.2.2-.1.4-.3.5-.4.1-.2.2-.4.2-.6 0-.2 0-.4-.1-.6-.2-.3-.4-.5-.7-.6z"/><path d="M35.1 32.5v13.9h2V32.5l7.4 7.4 1.4-1.4-9.8-9.8-9.8 9.8 1.4 1.4 7.4-7.4zM24.4 50.3v2h23.5v-2H24.4z"/></svg>
