<svg xmlns="http://www.w3.org/2000/svg" viewbox="0 0 113.313 64.353"><path d="M46.249 33.442a.87.87 0 0 0-.5.135 1.079 1.079 0 0 0-.329.349 1.451 1.451 0 0 0-.18.474 2.665 2.665 0 0 0-.051.514 2.528 2.528 0 0 0 .051.5 1.489 1.489 0 0 0 .171.459 1.023 1.023 0 0 0 .318.338.865.865 0 0 0 .49.132.911.911 0 0 0 .69-.252 1.184 1.184 0 0 0 .3-.672h1.2a2.045 2.045 0 0 1-.7 1.377 2.261 2.261 0 0 1-1.482.475 2.47 2.47 0 0 1-.93-.171 2.059 2.059 0 0 1-.723-.479 2.2 2.2 0 0 1-.464-.731 2.522 2.522 0 0 1-.167-.932 3 3 0 0 1 .154-.977 2.2 2.2 0 0 1 .451-.778 2.079 2.079 0 0 1 .725-.511 2.455 2.455 0 0 1 .979-.184 2.87 2.87 0 0 1 .778.1 2.063 2.063 0 0 1 .665.319 1.7 1.7 0 0 1 .477.534 1.7 1.7 0 0 1 .21.757h-1.219a.834.834 0 0 0-.914-.776z"/><path  d="M49.314 33.911a2.14 2.14 0 0 1 .473-.755 2.074 2.074 0 0 1 .735-.481 2.613 2.613 0 0 1 .964-.169 2.631 2.631 0 0 1 .966.169 2.091 2.091 0 0 1 .74.481 2.126 2.126 0 0 1 .475.755 2.777 2.777 0 0 1 .167.986 2.721 2.721 0 0 1-.167.979 2.137 2.137 0 0 1-.475.748 2.07 2.07 0 0 1-.74.479 2.666 2.666 0 0 1-.966.167 2.648 2.648 0 0 1-.964-.167 2.053 2.053 0 0 1-.735-.479 2.151 2.151 0 0 1-.473-.748 2.722 2.722 0 0 1-.167-.979 2.778 2.778 0 0 1 .167-.986zm1.129 1.514a1.369 1.369 0 0 0 .179.464.983.983 0 0 0 .338.329 1.017 1.017 0 0 0 .526.124 1.044 1.044 0 0 0 .528-.124.947.947 0 0 0 .342-.329 1.416 1.416 0 0 0 .18-.464 2.588 2.588 0 0 0 .053-.528 2.675 2.675 0 0 0-.053-.537 1.374 1.374 0 0 0-.18-.464.981.981 0 0 0-.34-.327 1.03 1.03 0 0 0-.53-.126 1 1 0 0 0-.526.126 1.016 1.016 0 0 0-.338.327 1.332 1.332 0 0 0-.179.466 2.819 2.819 0 0 0-.051.535 2.714 2.714 0 0 0 .051.527z"/><path  d="M55.993 32.626v.633h.026a1.423 1.423 0 0 1 .616-.575 1.787 1.787 0 0 1 .769-.177 2.119 2.119 0 0 1 .819.135 1.2 1.2 0 0 1 .5.376 1.464 1.464 0 0 1 .259.588 3.632 3.632 0 0 1 .075.766v2.783h-1.238v-2.558a1.585 1.585 0 0 0-.175-.836.678.678 0 0 0-.62-.276.865.865 0 0 0-.737.3 1.668 1.668 0 0 0-.229.994v2.373h-1.24v-4.526z"/><path  d="M59.705 33.459v-.834h.744v-.351a1.353 1.353 0 0 1 .377-.988 1.523 1.523 0 0 1 1.137-.385c.112 0 .223 0 .334.013s.22.015.325.021v.928a4 4 0 0 0-.458-.025.475.475 0 0 0-.361.118.582.582 0 0 0-.109.4v.27h.859v.834h-.859v3.691H60.45v-3.692z"/><path  d="M64.594 36.068a1.107 1.107 0 0 0 .806.273 1.11 1.11 0 0 0 .65-.19.781.781 0 0 0 .333-.4h1.095a2.087 2.087 0 0 1-.808 1.167 2.366 2.366 0 0 1-1.313.351 2.59 2.59 0 0 1-.964-.171 1.992 1.992 0 0 1-.727-.487 2.212 2.212 0 0 1-.46-.753 2.736 2.736 0 0 1-.162-.962 2.644 2.644 0 0 1 .166-.948 2.214 2.214 0 0 1 .475-.757 2.256 2.256 0 0 1 .731-.5 2.334 2.334 0 0 1 .941-.184 2.158 2.158 0 0 1 1.007.223 1.988 1.988 0 0 1 .705.6 2.45 2.45 0 0 1 .4.857 3.227 3.227 0 0 1 .087 1.007h-3.267a1.261 1.261 0 0 0 .305.874zm1.407-2.382a.88.88 0 0 0-.678-.243 1.081 1.081 0 0 0-.5.1.942.942 0 0 0-.314.248.931.931 0 0 0-.167.314 1.369 1.369 0 0 0-.057.3h2.023a1.418 1.418 0 0 0-.307-.719z"/><path d="M69.646 32.626v.842h.018a1.6 1.6 0 0 1 .238-.39 1.539 1.539 0 0 1 .34-.308 1.6 1.6 0 0 1 .412-.2 1.538 1.538 0 0 1 .456-.068 1.01 1.01 0 0 1 .273.043v1.157a3.002 3.002 0 0 0-.212-.03 2.315 2.315 0 0 0-.237-.013 1.327 1.327 0 0 0-.578.113 1.008 1.008 0 0 0-.38.31 1.241 1.241 0 0 0-.207.46 2.488 2.488 0 0 0-.062.571v2.04h-1.24v-4.527z"/><path d="M73.373 36.068a1.107 1.107 0 0 0 .806.273 1.108 1.108 0 0 0 .65-.19.78.78 0 0 0 .334-.4h1.095a2.092 2.092 0 0 1-.808 1.167 2.369 2.369 0 0 1-1.313.351 2.59 2.59 0 0 1-.964-.171 1.992 1.992 0 0 1-.727-.487 2.205 2.205 0 0 1-.46-.753 2.736 2.736 0 0 1-.162-.962 2.652 2.652 0 0 1 .167-.948 2.215 2.215 0 0 1 .475-.757 2.257 2.257 0 0 1 .731-.5 2.331 2.331 0 0 1 .941-.184 2.157 2.157 0 0 1 1.007.223 1.993 1.993 0 0 1 .706.6 2.456 2.456 0 0 1 .4.857 3.238 3.238 0 0 1 .088 1.007h-3.267a1.262 1.262 0 0 0 .301.874zm1.407-2.382a.879.879 0 0 0-.678-.243 1.08 1.08 0 0 0-.5.1.946.946 0 0 0-.314.248.93.93 0 0 0-.167.314 1.424 1.424 0 0 0-.058.3h2.023a1.411 1.411 0 0 0-.306-.719z"/><path d="M78.424 32.626v.633h.026a1.425 1.425 0 0 1 .616-.575 1.788 1.788 0 0 1 .77-.177 2.119 2.119 0 0 1 .819.135 1.2 1.2 0 0 1 .5.376 1.476 1.476 0 0 1 .258.588 3.629 3.629 0 0 1 .074.766v2.783h-1.244v-2.558a1.584 1.584 0 0 0-.176-.836.677.677 0 0 0-.62-.276.866.866 0 0 0-.738.3 1.672 1.672 0 0 0-.229.994v2.373h-1.24v-4.526z"/><path d="M84.77 33.442a.869.869 0 0 0-.5.135 1.084 1.084 0 0 0-.33.349 1.461 1.461 0 0 0-.179.474 2.631 2.631 0 0 0-.052.514 2.5 2.5 0 0 0 .052.5 1.5 1.5 0 0 0 .171.459 1.028 1.028 0 0 0 .319.338.864.864 0 0 0 .49.132.912.912 0 0 0 .69-.252 1.184 1.184 0 0 0 .3-.672h1.2a2.046 2.046 0 0 1-.7 1.377 2.26 2.26 0 0 1-1.482.475 2.468 2.468 0 0 1-.93-.171 2.055 2.055 0 0 1-.723-.479 2.207 2.207 0 0 1-.464-.731 2.522 2.522 0 0 1-.167-.932 3.014 3.014 0 0 1 .154-.977 2.2 2.2 0 0 1 .451-.778 2.08 2.08 0 0 1 .725-.511 2.455 2.455 0 0 1 .979-.184 2.872 2.872 0 0 1 .778.1 2.062 2.062 0 0 1 .665.319 1.71 1.71 0 0 1 .477.534 1.706 1.706 0 0 1 .21.757h-1.219a.834.834 0 0 0-.915-.776z"/><path d="M89.142 36.068a1.107 1.107 0 0 0 .806.273 1.109 1.109 0 0 0 .65-.19.782.782 0 0 0 .334-.4h1.095a2.092 2.092 0 0 1-.808 1.167 2.369 2.369 0 0 1-1.313.351 2.588 2.588 0 0 1-.964-.171 1.985 1.985 0 0 1-.727-.487 2.207 2.207 0 0 1-.46-.753 2.737 2.737 0 0 1-.162-.962 2.643 2.643 0 0 1 .166-.948 2.214 2.214 0 0 1 .475-.757 2.258 2.258 0 0 1 .731-.5 2.331 2.331 0 0 1 .941-.184 2.157 2.157 0 0 1 1.007.223 1.993 1.993 0 0 1 .706.6 2.456 2.456 0 0 1 .4.857 3.237 3.237 0 0 1 .088 1.007H88.84a1.261 1.261 0 0 0 .302.874zm1.407-2.382a.879.879 0 0 0-.678-.243 1.079 1.079 0 0 0-.5.1.937.937 0 0 0-.314.248.931.931 0 0 0-.167.314 1.423 1.423 0 0 0-.058.3h2.023a1.411 1.411 0 0 0-.313-.719z"/><path d="M30.599.957a.915.915 0 0 0-.576-.574h-3.714q-.421.039-.613.574l-5.033 25.256 4.229.014a.7.7 0 0 0 .651-.536l.459-2.6h4.25l.6 3.138h3.843q.842-.037.842-.8zm-1.463 17.46h-1.975a.229.229 0 0 1-.225-.271l.988-5.3a.229.229 0 0 1 .451 0l.988 5.3a.229.229 0 0 1-.227.271z"/><path d="M39.181 35.434a7.947 7.947 0 0 0-1.89-2.748 8.735 8.735 0 0 0-2.823-1.764 9.34 9.34 0 0 0-3.428-.63h-7.813a1.013 1.013 0 0 0-.706.277.889.889 0 0 0-.3.681V64.157h.85a.707.707 0 0 0 .107.009h4.184a.981.981 0 0 0 .807-.378 1.238 1.238 0 0 0 .3-.781v-7h2.571a8.448 8.448 0 0 0 3.428-.706 9.334 9.334 0 0 0 2.823-1.89 8.473 8.473 0 0 0 1.89-2.8 8.727 8.727 0 0 0 .68-3.428v-8.12a9.257 9.257 0 0 0-.68-3.629zm-5.57 11.745a2.475 2.475 0 0 1-.756 1.815 2.474 2.474 0 0 1-1.815.756h-2.571V36.543h2.571a2.475 2.475 0 0 1 1.815.756 2.475 2.475 0 0 1 .756 1.815z"/><path d="M16.693 30.347h-5.294v25.184a2.475 2.475 0 0 1-.756 1.815 2.476 2.476 0 0 1-1.815.756 2.475 2.475 0 0 1-1.815-.756 2.474 2.474 0 0 1-.756-1.815V31.355a.9.9 0 0 0-.328-.756 1.173 1.173 0 0 0-.731-.252H.009v25.186a8.727 8.727 0 0 0 .68 3.428 8.766 8.766 0 0 0 1.89 2.823 8.767 8.767 0 0 0 2.823 1.89 8.726 8.726 0 0 0 3.428.68 8.729 8.729 0 0 0 3.428-.68 8.772 8.772 0 0 0 2.823-1.89 8.767 8.767 0 0 0 1.89-2.823 8.727 8.727 0 0 0 .68-3.428V31.355q0-1.008-.958-1.008z"/><path d="M17.403.594a.951.951 0 0 0-.555-.211h-3.905a.951.951 0 0 0-.421.115.6.6 0 0 0-.306.421L9.088 12.188a.25.25 0 0 1-.482 0L5.478.919a.607.607 0 0 0-.651-.536H.768a.7.7 0 0 0-.574.23.81.81 0 0 0-.191.536v25.08h3.906q.842 0 .842-.765v-9.557a.25.25 0 0 1 .494-.056l1.532 6.647a.245.245 0 0 0 .008.03 1.313 1.313 0 0 0 .206.387.477.477 0 0 0 .4.172h2.948a.437.437 0 0 0 .364-.172 1.35 1.35 0 0 0 .206-.387.24.24 0 0 0 .008-.03l1.532-6.561a.25.25 0 0 1 .494.057v9.969a.291.291 0 0 0 0 .043v.223h3.901q.842 0 .842-.765V1.149a.657.657 0 0 0-.283-.555z"/><path d="M51.043 18.608a4.837 4.837 0 0 0-.326-1.11 6.246 6.246 0 0 0-.632-1.11 14.193 14.193 0 0 0-1.015-1.264l-5.9-6.854a2.123 2.123 0 0 1-.613-1.57 1.949 1.949 0 0 1 .536-1.378 1.757 1.757 0 0 1 1.34-.574 1.705 1.705 0 0 1 1.57.9 3.264 3.264 0 0 1 .288 1.6v1.4H50.212a.869.869 0 0 0 .574-.23.768.768 0 0 0 .268-.613V6.7a6.632 6.632 0 0 0-.517-2.6 7.006 7.006 0 0 0-1.4-2.144A6.246 6.246 0 0 0 47.041.517a6.63 6.63 0 0 0-2.6-.517 6.614 6.614 0 0 0-2.6.518 6.232 6.232 0 0 0-2.106 1.438 7.017 7.017 0 0 0-1.4 2.148 6.656 6.656 0 0 0-.517 2.609 6.95 6.95 0 0 0 .44 2.569 7.8 7.8 0 0 0 1.359 2.187l5.9 6.827a8.926 8.926 0 0 1 .613.844 1.511 1.511 0 0 1 .268.805 1.867 1.867 0 0 1-.574 1.4 1.911 1.911 0 0 1-1.378.556 1.816 1.816 0 0 1-1.11-.29 1.639 1.639 0 0 1-.555-.754 4.106 4.106 0 0 1-.23-.967q-.058-.5-.115-.966a1.864 1.864 0 0 0-.188-.691.9.9 0 0 0-.7-.353h-3.822l.015 1.673a8.5 8.5 0 0 0 .524 2.959 6.658 6.658 0 0 0 1.436 2.144 6.923 6.923 0 0 0 2.144 1.455 6.427 6.427 0 0 0 2.6.536 6.336 6.336 0 0 0 2.642-.555 6.8 6.8 0 0 0 2.117-1.492 7.134 7.134 0 0 0 1.417-2.145 6.392 6.392 0 0 0 .517-2.546 8.04 8.04 0 0 0-.095-1.301z"/><path d="M77.218.587a.95.95 0 0 0-.55-.214h-3.92l.015 25.847h3.905q.841 0 .842-.765V1.142a.656.656 0 0 0-.292-.555z"/><path d="M95.389.587a.951.951 0 0 0-.555-.214h-3.646a.255.255 0 0 0-.255.255v10.149a.255.255 0 0 1-.5.084L86.982.981l-.047-.077a.951.951 0 0 0-.364-.383.874.874 0 0 0-.44-.153h-3.6a.255.255 0 0 0-.256.255l.007 25.337a.255.255 0 0 0 .255.255h3.649q.842 0 .842-.765v-9.463a.255.255 0 0 1 .5-.084l3.294 9.482a4.727 4.727 0 0 0 .287.613q.134.229.593.229h3.14q.842 0 .842-.765V1.142a.657.657 0 0 0-.295-.555z"/><path d="M109.354 8.652h3.156a.734.734 0 0 0 .593-.249.84.84 0 0 0 .211-.555V6.7a6.632 6.632 0 0 0-.517-2.6 6.666 6.666 0 0 0-1.436-2.144 6.666 6.666 0 0 0-2.144-1.439 6.63 6.63 0 0 0-2.6-.517 6.63 6.63 0 0 0-2.6.517 6.661 6.661 0 0 0-2.144 1.436A6.665 6.665 0 0 0 100.43 4.1a6.624 6.624 0 0 0-.517 2.6v13.21a6.623 6.623 0 0 0 .517 2.6 6.659 6.659 0 0 0 1.435 2.144 6.663 6.663 0 0 0 2.144 1.436 6.637 6.637 0 0 0 2.6.517 6.637 6.637 0 0 0 2.6-.517 6.667 6.667 0 0 0 2.144-1.436 6.66 6.66 0 0 0 1.436-2.144 6.63 6.63 0 0 0 .517-2.6v-7.428a.725.725 0 0 0-.249-.613.947.947 0 0 0-.593-.191h-5.322a.242.242 0 0 0-.242.242v4.265a.242.242 0 0 0 .242.242h.845a.572.572 0 0 1 .571.572v2.911a1.879 1.879 0 0 1-.574 1.378 1.879 1.879 0 0 1-1.378.575 1.879 1.879 0 0 1-1.378-.575 1.879 1.879 0 0 1-.574-1.378V6.7a1.88 1.88 0 0 1 .574-1.378 1.88 1.88 0 0 1 1.378-.574 1.88 1.88 0 0 1 1.378.574 1.88 1.88 0 0 1 .574 1.378v1.149a1.086 1.086 0 0 0 .009.13v.431a.242.242 0 0 0 .242.242z"/><path d="M67.653.586a1 1 0 0 0-.593-.211L63.19.38v10.51a.378.378 0 0 1-.379.378h-3.148a.378.378 0 0 1-.378-.378V1.149a.691.691 0 0 0-.268-.536.829.829 0 0 0-.536-.23h-3.943l-.013 25.792h3.943a.829.829 0 0 0 .536-.23.69.69 0 0 0 .268-.536v-1.621a.818.818 0 0 0 .016-.166v-7.227a.378.378 0 0 1 .378-.379h3.148a.378.378 0 0 1 .254.1.377.377 0 0 1 .109.266v9.8h3.87a1 1 0 0 0 .594-.211c.191-.141.3-.325.3-.911l.006-1.075V1.497c-.007-.586-.102-.771-.294-.911z"/><g data-name="グループ 2910"><path d="M103.05 41.847a5.307 5.307 0 0 0 1.687-.4 3.206 3.206 0 0 0 1.28-.958 2.587 2.587 0 0 0 .5-1.661 2.9 2.9 0 0 0-1.043-2.4 3.718 3.718 0 0 0-2.4-.839 3.36 3.36 0 0 0-2.823 1.229 4.76 4.76 0 0 0-.924 3.111h-4.68a10.422 10.422 0 0 1 .67-3.416 7.723 7.723 0 0 1 1.7-2.662 7.478 7.478 0 0 1 2.62-1.713 9.221 9.221 0 0 1 3.409-.6 10.224 10.224 0 0 1 2.916.432 8.4 8.4 0 0 1 2.629 1.3 6.959 6.959 0 0 1 1.9 2.12 5.638 5.638 0 0 1 .729 2.883 5.72 5.72 0 0 1-.856 3.12 4.308 4.308 0 0 1-2.552 1.849v.068a5.322 5.322 0 0 1 3.162 1.95 5.707 5.707 0 0 1 1.145 3.578 7.473 7.473 0 0 1-.746 3.391 7.415 7.415 0 0 1-2 2.5 8.926 8.926 0 0 1-2.899 1.531 11.066 11.066 0 0 1-3.4.525 11.137 11.137 0 0 1-3.722-.593 7.844 7.844 0 0 1-2.866-1.72 7.635 7.635 0 0 1-1.822-2.764 9.742 9.742 0 0 1-.611-3.756h4.68a6.923 6.923 0 0 0 .314 1.865 4.576 4.576 0 0 0 .8 1.526 3.833 3.833 0 0 0 1.306 1.026 4.166 4.166 0 0 0 1.849.382 4.074 4.074 0 0 0 2.823-1.026 3.556 3.556 0 0 0 1.145-2.79 3.515 3.515 0 0 0-.543-2.12 3.128 3.128 0 0 0-1.368-1.055 5.676 5.676 0 0 0-1.823-.382q-.992-.051-1.891-.051v-3.48a10.778 10.778 0 0 0 1.705 0z"/></g><path d="M61.371 55.748l-4.12-12.018h3.461l2.542 8.2h.047l2.531-8.2h3.28l-4.074 12.018z"/><path d="M69.611 47.144a5.688 5.688 0 0 1 1.254-2 5.531 5.531 0 0 1 1.953-1.277 6.95 6.95 0 0 1 2.559-.448 7 7 0 0 1 2.565.448 5.589 5.589 0 0 1 1.964 1.277 5.648 5.648 0 0 1 1.259 2 7.369 7.369 0 0 1 .443 2.616 7.228 7.228 0 0 1-.443 2.6 5.679 5.679 0 0 1-1.259 1.986 5.513 5.513 0 0 1-1.964 1.271 7.071 7.071 0 0 1-2.565.442 7.02 7.02 0 0 1-2.559-.442 5.457 5.457 0 0 1-1.953-1.271 5.719 5.719 0 0 1-1.254-1.986 7.228 7.228 0 0 1-.443-2.6 7.369 7.369 0 0 1 .443-2.616zm3 4.017a3.624 3.624 0 0 0 .476 1.231 2.61 2.61 0 0 0 .9.874 2.7 2.7 0 0 0 1.4.329 2.775 2.775 0 0 0 1.4-.329 2.513 2.513 0 0 0 .908-.874 3.8 3.8 0 0 0 .477-1.231 6.923 6.923 0 0 0 .141-1.4 7.149 7.149 0 0 0-.141-1.424 3.672 3.672 0 0 0-.477-1.231 2.6 2.6 0 0 0-.9-.868 2.724 2.724 0 0 0-1.407-.335 2.664 2.664 0 0 0-1.4.335 2.7 2.7 0 0 0-.9.868 3.506 3.506 0 0 0-.476 1.237 7.42 7.42 0 0 0-.136 1.418 7.16 7.16 0 0 0 .131 1.401z"/><path d="M86.667 39.164v16.591h-3.3V39.164z"/><path d="M92.116 52.177v3.575h-3.643v-3.575z"/></svg>