<svg xmlns="http://www.w3.org/2000/svg" viewBox="0 0 215 97.9"><path fill="#fff" d="M17.9 40.8h4.5v25.8h-4.5z"/><path fill="#fff" d="M35.4 66.6h4.3V49.8L57.9 67V40.7h-4.3v16.5L35.4 40.3v26.3z"/><path fill="#fff" d="M69.5 60.2c2.4 1.9 5.4 3 8.4 3s5.2-1 5.2-3.4c0-2-1.4-2.8-3.7-3.7l-3.8-1.3c-3.5-1.3-6.2-3.1-6.2-7.4 0-4.5 4.1-7 8.9-7 2.8 0 5.5.7 7.8 2.1V47c-2.2-1.8-4.9-2.8-7.7-2.8-2.7 0-4.7 1-4.7 3.1 0 1.9 1.3 2.7 3.5 3.4l4.3 1.5c4.1 1.5 6 3.7 6 7.5 0 4.7-4.1 7.3-9.5 7.3-3 .1-5.9-.7-8.4-2.3v-4.5z"/><path fill="#fff" d="M99.1 40.8h4.5v25.8h-4.5z"/><path fill="#fff" d="M116.8 40.8H127c7.8 0 12.9 5 12.9 12.9s-5.1 12.9-12.9 12.9h-10.2V40.8zm10 21.9c5.6 0 8.5-3.5 8.5-9 0-5.6-3-9-8.5-9h-5.5v18.1h5.5z"/><path fill="#fff" d="M165.5 40.8v3.9h-11.7v6.2h10.5v3.8h-10.5v8h11.7v3.9h-16.1V40.8h16.1z"/><path fill="#fff" d="M183.4 56.1v10.5h-4.5V40.8h9.6c5.5 0 9 2.7 9 7.7 0 4.3-2 6.8-6.2 7.4l9.5 10.6h-5.1L186.5 56l-3.1.1zm0-3.6h5c3 0 4.7-1.6 4.7-4s-1.7-4-4.7-4h-5v8z"/><path fill="#fff" d="M197 24.5c2.5 1.6 5.5 2.4 8.5 2.3 5.4 0 9.6-2.6 9.6-7.4 0-3.8-1.9-6.1-6.1-7.5l-4.3-1.5c-2.2-.8-3.5-1.5-3.5-3.4 0-2.1 2-3.1 4.7-3.1 2.8 0 5.6 1 7.8 2.8V2.1c-2.4-1.4-5.1-2.2-7.9-2.1-4.9 0-9 2.5-9 7.1 0 4.3 2.7 6.1 6.3 7.4l3.9 1.4c2.4.9 3.7 1.7 3.7 3.7 0 2.3-2.1 3.4-5.2 3.4s-6.1-1.1-8.5-3v4.5zm-27.4 0c2.5 1.6 5.5 2.4 8.5 2.3 5.4 0 9.6-2.6 9.6-7.4 0-3.8-1.9-6.1-6.1-7.5l-4.3-1.5c-2.2-.8-3.5-1.5-3.5-3.4 0-2.1 2-3.1 4.7-3.1 2.8 0 5.6 1 7.8 2.8V2.1c-2.4-1.4-5.1-2.2-7.9-2.1-4.9 0-9 2.5-9 7.1 0 4.3 2.7 6.1 6.3 7.4l3.9 1.4c2.4.9 3.7 1.7 3.7 3.7 0 2.3-2.1 3.4-5.2 3.4s-6.1-1.1-8.5-3v4.5zM159.1.4v3.9h-11.7v6.2h10.5v3.8h-10.5v8.1h11.7v3.9h-16.2V.3l16.2.1zm-51 26h4.4V9.5l18.3 17.3V.4h-4.3V17L108.1 0v26.4zM95.2.4h-4.5v26h4.5V.4zM61 24.6c2.5 1.6 5.5 2.4 8.5 2.3 5.4 0 9.6-2.6 9.6-7.4 0-3.8-1.9-6.1-6.1-7.5l-4.3-1.5c-2.2-.8-3.5-1.5-3.5-3.4 0-2.1 2-3.1 4.7-3.1 2.8 0 5.6 1 7.8 2.8V2.1C75.3.7 72.6 0 69.8 0c-4.9 0-9 2.5-9 7.1 0 4.3 2.7 6.1 6.3 7.4l3.9 1.4c2.4.9 3.7 1.7 3.7 3.7 0 2.3-2.1 3.4-5.2 3.4s-6.1-1.1-8.5-3v4.6zm-21.3 2.3c6.4 0 10.7-3.6 10.7-10.8V.4h-4.5v15.1c0 5-2.2 7.3-6.2 7.3s-6.2-2.3-6.2-7.3V.4H29V16c0 7.2 4.3 10.9 10.7 10.9zM4.4 15h5.7c3 0 4.7 1.4 4.7 3.8 0 2.3-1.7 3.8-4.7 3.8H4.4V15zm0-3.6V4.3h4.9c3.1 0 4.7 1.1 4.7 3.5s-1.7 3.6-4.7 3.6H4.4zM14.9 13c2.2-.9 3.6-3.1 3.5-5.5 0-4.7-3.5-7.1-9-7.1H0v26h10.2c5.6 0 9-2.6 9-7.4.1-2.7-1.7-5.1-4.3-6z"/><path fill="#67c2e5" d="M61.7 94.2c1 .7 2.1 1.1 3.3 1.2 1.8 0 2.5-1.1 2.5-3.6V81h2.8v10.9c0 4.2-1.8 6-5.3 6-1.2 0-2.3-.3-3.4-.9l.1-2.8z"/><path fill="#67c2e5" d="M86.1 81l6.4 16.7h-2.9L87.9 93h-6.4l-1.7 4.6h-2.9L83.4 81h2.7zm-3.7 9.6H87l-2.3-6.2-2.3 6.2z"/><path fill="#67c2e5" d="M102.6 91.4v6.2h-2.8V81h6.4c3.5 0 5.7 1.8 5.7 5.2 0 3.4-2.3 5.2-5.7 5.2h-3.6zm3.6-8h-3.6V89h3.6c1.5.1 2.9-1.1 3-2.6.1-1.5-1.1-2.9-2.6-3h-.4z"/><path fill="#67c2e5" d="M126.1 81l6.4 16.7h-2.9L128 93h-6.4l-1.7 4.6H117l6.4-16.7h2.7zm-3.6 9.6h4.6l-2.3-6.2-2.3 6.2z"/><path fill="#67c2e5" d="M153.3 97.7h-2.2l-8.5-12.2v12.2h-2.7V81h2.7l8.1 11.6V81h2.7v16.7z"/></svg>
